<svg id="Ebene_1" data-name="Ebene 1" xmlns="http://www.w3.org/2000/svg" viewBox="0 0 255.12 255.12"><defs><style>.cls-1{fill:#9c5f2c;}.cls-2{fill:#934221;}.cls-3{fill:#bf925e;}</style></defs><title>Haselnuss</title><path class="cls-1" d="M201,147.23s4.84-15.74,2.59-20.36C189.34,97.71,92.08,60.43,92.08,60.43L61.74,120.87l38.44,87.65,8.54,1.24S136.11,150.78,201,147.23Z"/><path class="cls-2" d="M202.42,118l1,4.77c-.26.33,0,.67,0,1a24,24,0,0,1,.28,3c-.12,3-.1,6,0,9,0,.5-.13.7-.57.81-.89.23-1.78.44-2.64.75s-1,0-1.37-.64q-4.62-8.48-9.3-16.91c-.2-.37-.31-.86-1-.53s-.68.56-.47,1.15c.74,2.09,1.44,4.19,2.15,6.29l3.14,9.3c.09.26.28.54-.17.65-1.33.3-2.66.71-4,.88-1.59.19-3.18.42-4.77.65L172.46,140c-.53.07-1,.21-1.34-.58q-3.63-9.69-7.34-19.34c-.75-2-1.52-3.94-2.28-5.92-.27,4.94.85,9.62,2.14,14.28a64.85,64.85,0,0,1,2.05,7.65c.62,4.21-.84,7-4.38,8.3a17.7,17.7,0,0,1-2.59.51,2.6,2.6,0,0,1-3-1.52c-4.39-7.28-8.87-14.51-13.34-21.75A208.64,208.64,0,0,0,116,86.86,66.48,66.48,0,0,0,102.84,75.8a20,20,0,0,0-6.43-2.7l2.43,2.42a225.81,225.81,0,0,1,24.48,28,182.8,182.8,0,0,1,20.57,37.08c1.94,4.64,1.83,8.94-2.06,12.71s-7.93,7-11.88,10.44c-2.58,2.27-5.84,1.95-8.51-.25a14.25,14.25,0,0,1-1.39-1.3c-4.57-5-9.27-9.93-13.73-15.06a87,87,0,0,1-12-17.18c-4.69-9.12-8.41-18.65-12.28-28.12-.8-1.94-1.63-3.87-2.45-5.8a20.85,20.85,0,0,0,.41,5.07,145.37,145.37,0,0,0,5.82,22.7,119.26,119.26,0,0,0,9.75,21.24,124.89,124.89,0,0,0,18,23.23c3.58,3.7,5.14,7.91,1.62,13.13-2.15,3.19-4.56,6.18-6.72,9.35-.47.69-.74.69-1.33.12-3.73-3.58-7.5-7.12-11.26-10.68l-13.73-13a1.12,1.12,0,0,0,.31,1,106.06,106.06,0,0,0,6.8,9.24,144.21,144.21,0,0,0,11.92,12.55c2.32,2.25,4.22,4.63,3.75,8.24-.3,2.34-.29,4.7-1.14,6.94a4.76,4.76,0,0,1-5.66,3.27,16.17,16.17,0,0,1-2-.55c-2.1-.68-3.87-2-5.81-3-10-5.14-17.5-12.9-23.07-22.58a128.24,128.24,0,0,1-15.48-76.47A157.7,157.7,0,0,1,60,69.9,85.54,85.54,0,0,1,65.79,56c3.16-5.57,7.58-9.38,14.1-10.34A37.89,37.89,0,0,1,91.24,46a208.59,208.59,0,0,1,29.31,6.57,157.43,157.43,0,0,1,59,32.62,73.47,73.47,0,0,1,9.56,9.68c4.72,6.07,8.29,12.85,11.58,19.79A12.74,12.74,0,0,0,202.42,118Z"/><path class="cls-3" d="M131.18,207.81a80.82,80.82,0,0,1-21.49,1.79c-.87,0-1.21-.11-.88-1.17a84.27,84.27,0,0,1,22.9-36.57,99.85,99.85,0,0,1,37.46-22.66,75.59,75.59,0,0,1,29.18-4.27c2.71.17,2.35-.24,2,2.42-.9,7.36-3.84,13.94-7.9,20.06-7.49,11.27-17.47,19.89-28.87,27a110,110,0,0,1-20,9.78A91.18,91.18,0,0,1,131.18,207.81Z"/></svg>