<svg id="Ebene_1" data-name="Ebene 1" xmlns="http://www.w3.org/2000/svg" viewBox="0 0 255.12 255.12"><defs><style>.cls-1{fill:#353434;}.cls-2{fill:#ededec;}.cls-3{fill:#a48a7b;}</style></defs><title>Oreo</title><path class="cls-1" d="M126,212.33c-9.29.31-18.58.5-27.65-2.12-33.3-9.64-54.18-32-60.61-67.68-7.89-43.68,17.78-85.39,58.54-97,9.44-2.68,19-3.11,28.7-2.53.45,0,.91,0,1.36,0,.62.14,1.23.33,1.86.42,36.53,5.21,64.86,35.4,69.38,74,4.21,35.9-13.61,70.51-44.5,86.57A85.67,85.67,0,0,1,126,212.33Z"/><path class="cls-2" d="M126,212.33a85.67,85.67,0,0,0,27.08-8.4c30.89-16.06,48.71-50.67,44.5-86.57-4.52-38.56-32.85-68.75-69.38-74-.63-.09-1.24-.28-1.86-.42,4.46,0,8.93-.39,13.36.49a38,38,0,0,1,8.85,1.59c40.45,10.58,66.72,50.36,60.91,93.66-4.59,34.26-23.26,57.21-54,69.41-5.34,2.12-11,2.88-16.52,4.2Z"/><path class="cls-1" d="M138.87,212.33c5.52-1.32,11.18-2.08,16.52-4.2,30.76-12.2,49.43-35.15,54-69.41,5.81-43.3-20.46-83.08-60.91-93.66a38,38,0,0,0-8.85-1.59c2.1-1.51,4.42-.61,6.55-.38C182.61,47,211.88,76,217.76,113.64c7,44.63-20,87-61.85,96.91C150.33,211.88,144.66,212.89,138.87,212.33Z"/><path class="cls-3" d="M114.92,193.64c-.29-2.37-.64-4.73-.79-7.12,0-.38.78-1,1.29-1.18s1.06.32,1.35.72c1,1.3.33,6.28-.89,7.58Z"/><path class="cls-3" d="M113,60.15c2,2.12,1.35,4.8,1.28,7.31,0,.38-.92.94-1.46,1a1.57,1.57,0,0,1-1.22-.94c-.44-2.48-1.33-5,.44-7.38Z"/><path class="cls-3" d="M179.94,128.4a56.72,56.72,0,0,1-6.21.7c-.48,0-1-1.15-1.5-1.77.55-.47,1.1-1.34,1.65-1.35,2,0,4,.25,6.06.42Z"/><path class="cls-3" d="M52.77,130.41c2.24-.45,4.47-1,6.73-1.29.36-.05,1.1.79,1.18,1.3a2.11,2.11,0,0,1-.8,1.57c-1.25,1-5.84.51-7.11-.58Z"/><path class="cls-3" d="M179.94,123.89c-2.14.34-4.27.78-6.42,1-.46,0-1.23-.76-1.4-1.32-.12-.4.46-1.49.81-1.53,2.34-.3,4.77-1.56,7,.37Z"/><path class="cls-3" d="M121.61,60.15c1,1.31,1.47,6.15.56,7.46a1.93,1.93,0,0,1-1.5.85c-.49-.08-1.3-.85-1.25-1.22.3-2.38.8-4.73,1.24-7.09Z"/><path class="cls-3" d="M110.62,193.64c-.1-2.19-.33-4.38-.22-6.56,0-.54,1.14-1,1.76-1.51.43.59,1.26,1.21,1.23,1.77-.13,2.11-.55,4.2-.86,6.3Z"/><path class="cls-3" d="M52.77,120.88c2.17-.12,4.34-.33,6.5-.29.43,0,1.16,1,1.17,1.53s-.79,1.57-1.13,1.52c-2.2-.29-4.36-.81-6.54-1.26Z"/><path class="cls-3" d="M52.77,125.39c2.1-.17,4.2-.44,6.31-.43.49,0,1.24.93,1.38,1.54.08.39-.78,1.44-1.21,1.43-2.16,0-4.32-.33-6.48-.53Z"/><path class="cls-3" d="M117.79,60.15c.18,2.27.44,4.53.48,6.8,0,.44-1,1.33-1.35,1.24-.59-.15-1.46-.93-1.46-1.44,0-2.2.25-4.4.42-6.6Z"/><path class="cls-3" d="M118.45,148.83l4.61-2.28.33.67c-2.32,3.05-4.63,6.11-7,9.3l-6.86-9.11c2.23-.9,2.31-.87,4.24,2l2.57-2.58Z"/><path class="cls-3" d="M144.67,159c.47-1.32.67-3.53,1.45-3.79a14.23,14.23,0,0,1,6.3-.41c1.23.17.85,1.6-.12,1.94a7.66,7.66,0,0,0-5,5.3c-.14.45-.91.68-1.39,1a4.64,4.64,0,0,1-.77-1.38,16,16,0,0,1,0-2.5Z"/><path class="cls-3" d="M81.78,143.29c-1.67.77-3.33,1.58-5,2.3a12.71,12.71,0,0,1-2,.52c.09-.74.17-1.48.28-2.22a1.63,1.63,0,0,1,.23-.43c2.7-5.13,2.72-5.16,7.52-2.22a9.27,9.27,0,0,1,1.78,2l-2.39,1Z"/><path class="cls-3" d="M148,96.65c-1.27-.46-3.39-.61-3.65-1.42-.65-2-.48-4.38-.55-6.6,0-.25.58-.79.78-.74.47.13,1.14.46,1.25.85a7.4,7.4,0,0,0,5,5.15c.41.15.67.8,1,1.22-.45.37-.87.93-1.38,1.06a10.31,10.31,0,0,1-2.36,0Z"/><path class="cls-3" d="M92.54,154.88c-1.26-.48-3.37-.67-3.62-1.49-.63-2-.42-4.38-.55-6.59.68,0,1.9-.19,2,0a7.72,7.72,0,0,0,5.19,5.34c.41.14.64.82,1,1.25-.47.34-.91.87-1.43,1a11,11,0,0,1-2.37,0Z"/><path class="cls-3" d="M119.71,170.94c.86-2.93-.11-4.94-1.48-6.89a5.82,5.82,0,0,1-.48-2c.7.05,1.4.09,2.09.16.15,0,.28.17.41.24,5.11,2.91,5.35,4.12,1.7,9a1.8,1.8,0,0,1-1.52.69C120,172,119.84,171.19,119.71,170.94Z"/><path class="cls-3" d="M99.35,91.5c-.81-1.81-1.66-3.59-2.41-5.43a8.11,8.11,0,0,1-.3-1.95,16.57,16.57,0,0,1,1.72.12,2.84,2.84,0,0,1,.82.47c4.89,2.83,4.93,2.85,2.13,7.9-.41.74-1.29,1.18-2,1.77l-.89-2.48Z"/><path class="cls-3" d="M143.42,159.81a4.63,4.63,0,0,1,0,1.48,14.69,14.69,0,0,1-.88,2.09l-1.51-1.56c-1.37-1.4-2.73-2.81-4.1-4.22l-1.67-1.68c.74-.3,1.48-.63,2.24-.88a3.33,3.33,0,0,1,1,0C143.16,155,143.16,155,143.42,159.81Z"/><path class="cls-3" d="M92.4,97c-1.25-.49-3.34-.72-3.59-1.54-.61-2.06-.39-4.39-.51-6.61.69.05,1.91-.08,2,.17a7.89,7.89,0,0,0,5.06,5.22c.43.17.64.94,1,1.43a5.44,5.44,0,0,1-1.35.7,18.78,18.78,0,0,1-2.38.17Z"/><path class="cls-3" d="M150.59,126.36c.93.66,1.27.86,1.56,1.12a6.74,6.74,0,0,0,5.77,1.56,6.8,6.8,0,0,1,2.31.57,9.29,9.29,0,0,1-1.58,1.91c-4.83,3.36-6.25,2.89-8.41-2.8C150,128.19,150.41,127.42,150.59,126.36Z"/><path class="cls-3" d="M149.18,109c1.61-.71,3.21-1.45,4.84-2.13.72-.29,1.48-.45,2.23-.68a8.94,8.94,0,0,1-.41,2.48c-2.65,5.33-2.69,5.35-7.63,2.44-.71-.41-1.15-1.32-1.72-2l2.35-1Z"/><path class="cls-3" d="M143.71,102.07c.47-1.31.68-3.5,1.46-3.75,2-.63,4.17-.41,6.29-.44.22,0,.67.62.62.88a1.6,1.6,0,0,1-.75,1.1,7.61,7.61,0,0,0-5,5.52,1.47,1.47,0,0,1-1.23.81c-.36-.07-.8-.76-.87-1.23a17.74,17.74,0,0,1,0-2.73Z"/><path class="cls-3" d="M110.89,82.86c.74,1.76,1.52,3.5,2.22,5.28a14.81,14.81,0,0,1,.49,2.14c-.71-.1-1.42-.18-2.12-.3a1.34,1.34,0,0,1-.42-.23c-5.78-3.24-4.6-3-2.13-7.93.38-.76,1.27-1.24,1.93-1.85l.91,2.51Z"/><path class="cls-3" d="M93.24,156a4.63,4.63,0,0,1,1.18,0c.77.22,1.5.54,2.25.82-.56.57-1.16,1.12-1.69,1.72-1.33,1.54-2.61,3.12-4,4.65a16.27,16.27,0,0,1-1.45,1.29,7.07,7.07,0,0,1-.84-1.61,9.29,9.29,0,0,1-.06-2C88.59,156.07,88.59,156.07,93.24,156Z"/><path class="cls-3" d="M75.11,106.19c2.8,3.31,5.82,3.36,9,2.89,0,.65.29,1.66,0,1.9a19.3,19.3,0,0,1-4.23,2.75,2.65,2.65,0,0,1-2.48-.57,20.22,20.22,0,0,1-2.7-4.39C74.43,108.31,74.85,107.5,75.11,106.19Z"/><path class="cls-3" d="M99.52,80.3c2.76.89,4.68-.08,6.55-1.5a5.58,5.58,0,0,1,1.88-.57c0,.74-.07,1.48-.14,2.22a1.38,1.38,0,0,1-.2.45c-2.62,5.19-4.45,5.54-8.75,1.63-.34-.31-.68-1.14-.52-1.42C98.6,80.65,99.27,80.46,99.52,80.3Z"/><path class="cls-3" d="M113,159.63a6.06,6.06,0,0,1-.72,1.15,10.87,10.87,0,0,1-1.18.83c-4.9,3.25-6,2.91-8.31-2.77a1.87,1.87,0,0,1,0-1.54,1.45,1.45,0,0,1,1.46-.11c2.08,2.08,4.55,2.1,7.15,1.76C111.89,158.89,112.41,159.35,113,159.63Z"/><path class="cls-3" d="M86.84,103.06a2.12,2.12,0,0,1,0,.5c-.2,1.07-.41,2.13-.62,3.19a25.65,25.65,0,0,0-2-2.25c-1.39-1.27-2.88-2.43-4.3-3.66a15.62,15.62,0,0,1-1.23-1.33,7,7,0,0,1,1.5-.93,7.32,7.32,0,0,1,1.88-.16C86.63,98.24,86.63,98.24,86.84,103.06Z"/><path class="cls-3" d="M87.14,92.33c-.52,1.37-.75,3.64-1.59,3.93a13.32,13.32,0,0,1-6.28.29c-1.1-.19-.7-1.61.29-2a7.54,7.54,0,0,0,4.89-5.31c.13-.43.76-.7,1.16-1,.35.48.89.91,1,1.44a11.38,11.38,0,0,1,0,2.48Z"/><path class="cls-3" d="M143.51,148.86c-.42,1.35-.56,3.61-1.31,3.86a14.84,14.84,0,0,1-6.3.42c-1.14-.14-1-1.61.06-2a7.66,7.66,0,0,0,5-5.27c.15-.45.91-.69,1.39-1a7.14,7.14,0,0,1,.76,1.61,13,13,0,0,1,0,2.25Z"/><path class="cls-3" d="M71,143c.83-2.91-.09-4.94-1.47-6.9a5.6,5.6,0,0,1-.45-2,5.09,5.09,0,0,1,1.94.2c6,3.36,5.69,2.74,2.2,9.18a1.72,1.72,0,0,1-1.48.77C71.37,144.14,71.18,143.31,71,143Z"/><path class="cls-3" d="M160.43,141.45c-.21.32-.46,1-.9,1.22-.27.12-.87-.47-1.29-.79a2.57,2.57,0,0,1-.38-.63c-3.7-5.81-3.27-5.18,2.46-8.91.41-.27,1.12,0,1.68,0,0,.54.16,1.27-.11,1.57C160.08,136,159.62,138.42,160.43,141.45Z"/><path class="cls-3" d="M71.47,112a5.92,5.92,0,0,1-.12-1.5A7.49,7.49,0,0,1,72,109l1.37.74c.06,0,.07.15.12.21,3.83,5.35,3.76,5.82-1.71,9.15a5.41,5.41,0,0,1-2.09.28,15,15,0,0,1,.4-2c.6-1.73,1.28-3.44,1.93-5.16Z"/><path class="cls-3" d="M72,130.29c2.89.92,5-.14,7-1.85.33-.28,1-.15,1.48-.2a13,13,0,0,1,.06,1.76c0,.3-.32.57-.46.86C77,137,77.45,136,71.57,132.66a2,2,0,0,1-.66-1.59C70.92,130.76,71.68,130.5,72,130.29Z"/><path class="cls-3" d="M110.17,174c-.89.39-1.76,1-2,.83-2.24-1.92-4.64-2.73-7.51-1.84a1.26,1.26,0,0,1-1.08-.64,1.74,1.74,0,0,1,.48-1.4,30.93,30.93,0,0,1,4-2.67c.55-.3,1.71-.42,2-.07C107.44,169.89,108.61,171.75,110.17,174Z"/><path class="cls-3" d="M82.15,124.25c-1,.32-1.89.84-2.15.62a7.92,7.92,0,0,0-7.36-1.81c-.35.07-1.14-.34-1.14-.54a2,2,0,0,1,.53-1.45,36.73,36.73,0,0,1,4.24-2.77,1.83,1.83,0,0,1,1.73.07C79.35,120.07,80.53,121.91,82.15,124.25Z"/><path class="cls-3" d="M148.86,153.42c-1.22-.39-3.3-.52-3.51-1.24a26.42,26.42,0,0,1-.56-6.63c0-.24.78-.8,1-.71a2,2,0,0,1,1.11,1.11,7.11,7.11,0,0,0,4.61,4.69c.53.21.87,1,1.3,1.49a7.7,7.7,0,0,1-1.73.85,10.19,10.19,0,0,1-2.14,0Z"/><path class="cls-3" d="M159.15,122c-2.86-.95-4.92.08-6.88,1.7-.38.31-1.09.2-1.65.29a5.07,5.07,0,0,1,0-1.79,19.69,19.69,0,0,1,2.23-4.09,2.63,2.63,0,0,1,2.34-.88,21.9,21.9,0,0,1,4.39,2.41,1.68,1.68,0,0,1,.66,1.37C160.11,121.46,159.46,121.74,159.15,122Z"/><path class="cls-3" d="M146.88,128.56a9.19,9.19,0,0,1,1.89,1,6.22,6.22,0,0,1,.92,1.44c2.68,4.41,1.78,6.84-3.09,8.39-1,.33-2.23-.21-1.5-1.17C147.24,135.44,147.1,132.28,146.88,128.56Z"/><path class="cls-3" d="M120.62,158.19c2.84.79,4.85-.1,6.77-1.65.44-.35,1.24-.23,1.87-.32,0,.59,0,1.2-.11,1.79a2.35,2.35,0,0,1-.33.65c-2.7,5.31-4.24,5.64-8.72,1.76-.36-.31-.76-1.11-.62-1.38C119.73,158.58,120.38,158.35,120.62,158.19Z"/><path class="cls-3" d="M159.88,109.28c-.8,2.9.13,4.91,1.49,6.87a5.58,5.58,0,0,1,.48,1.91,5.35,5.35,0,0,1-1.93-.09c-5.57-2.64-5.87-3.78-2.36-9.07.32-.49,1.09-.65,1.65-1Z"/><path class="cls-3" d="M132.44,81.31a17,17,0,0,1-1.15,1.26c-4.53,4-7,3.32-9.25-2.45a4.42,4.42,0,0,1,0-1.58c.57,0,1.34-.17,1.67.14a7,7,0,0,0,6.61,1.84C130.88,80.4,131.55,81,132.44,81.31Z"/><path class="cls-3" d="M147.53,119.36c-.76-1.74-1.56-3.48-2.28-5.25a11.92,11.92,0,0,1-.49-2c.65,0,1.31,0,2,.14a2.66,2.66,0,0,1,.85.44c4.68,2.71,4.72,2.73,2,7.61a9.94,9.94,0,0,1-2.07,2l-.82-2.6Z"/><path class="cls-3" d="M132.06,160.88c.78,1.74,1.59,3.47,2.32,5.25a10.64,10.64,0,0,1,.41,2c-.64-.05-1.29-.05-1.92-.15a3.07,3.07,0,0,1-.83-.48c-4.67-2.73-4.71-2.75-2-7.64a9.2,9.2,0,0,1,2.07-1.95l.76,2.63Z"/><path class="cls-3" d="M99.36,162.6,100,159a16.83,16.83,0,0,1,2.6,2.82c.68,1.18,1.67,3.32,1.23,3.85-1.35,1.62-3.31,2.69-5.09,3.88-.21.14-1.07-.26-1.12-.51a3,3,0,0,1,.33-1.58c.67-1.53,1.4-3,2.1-4.56Z"/><path class="cls-3" d="M110.91,94a7.17,7.17,0,0,0-6.79,1.8c-.38.33-1.12.22-1.7.31,0-.59,0-1.19,0-1.78,0-.23.22-.44.33-.66,3-5.93,2.59-5.46,8.53-2a1.84,1.84,0,0,1,.74,1.53C112,93.61,111.15,93.83,110.91,94Z"/><path class="cls-3" d="M132.14,171.84a7.22,7.22,0,0,0-6.7,1.64c-.46.37-1.25.28-1.88.4a6.43,6.43,0,0,1,.22-2c2.71-5.89,3.39-6.08,8.58-2.42a5.61,5.61,0,0,1,1,1.47Z"/><path class="cls-3" d="M88.25,102.5c.43-1.34.59-3.58,1.35-3.83,2-.64,4.17-.44,6.29-.48.24,0,.72.6.69.86-.06.42-.38,1-.71,1.15a7.6,7.6,0,0,0-5.09,5.45c-.13.42-.79.66-1.21,1a5,5,0,0,1-.88-1.52,12.81,12.81,0,0,1,0-2.48Z"/><path class="cls-3" d="M150.53,142.64a1,1,0,0,1-.24,0l-3.3-.3a13.48,13.48,0,0,1,2.39-2.63c1.22-.78,3.35-2,3.9-1.52,1.58,1.36,2.58,3.46,3.72,5.34a1.42,1.42,0,0,1-.4,1.23,2.5,2.5,0,0,1-1.52-.28c-1.47-.71-2.91-1.5-4.36-2.25Z"/><path class="cls-3" d="M130.67,94.62a27.94,27.94,0,0,1-2.41-3.77c-.51-1.16-1.21-3.26-.74-3.7a30,30,0,0,1,5.38-3.47c.28.53.93,1.2.8,1.55-.56,1.44-1.62,2.7-2,4.16a20.85,20.85,0,0,0-.08,4.68Z"/><path class="cls-3" d="M87.2,112.79A9.35,9.35,0,0,0,86,114.61c-.49,1.93-.91,3.87-1.34,5.81-.19.81-.36,1.61-.53,2.42a8.54,8.54,0,0,1-1.87-1.59c-3.21-5-2.69-6.67,2.66-8.83C85.42,112.21,86.16,112.6,87.2,112.79Z"/><path class="cls-3" d="M128.54,95.39c-.15.25-.33.81-.57.85a2,2,0,0,1-1.51-.27,6.65,6.65,0,0,0-6.4-1.79c-.51.1-1.11-.36-1.67-.56.32-.58.62-1.18,1-1.73.12-.19.4-.26.61-.39,4.8-3.08,6.31-2.53,8.29,3C128.35,94.76,128.42,95,128.54,95.39Z"/><path class="cls-3" d="M82.9,156c1.21.41,3.27.54,3.48,1.27a27.3,27.3,0,0,1,.57,6.62c0,.22-.63.72-.85.66-.46-.14-1.11-.49-1.23-.9a7.29,7.29,0,0,0-4.71-4.9c-.52-.2-.85-1-1.27-1.49a8.35,8.35,0,0,1,1.76-.79,10.9,10.9,0,0,1,2.14,0Z"/><path class="cls-3" d="M118.77,83a6.91,6.91,0,0,1-.16-1.48c0-.45.3-1.22.5-1.23a1.72,1.72,0,0,1,1.39.52A33.29,33.29,0,0,1,123,85.36c.26.58.21,1.81-.16,2.09a42.41,42.41,0,0,1-5,3.25,1.49,1.49,0,0,1-1.2-.38,4.85,4.85,0,0,1,.4-1.78c.73-1.76,1.52-3.5,2.28-5.24Z"/><path class="cls-3" d="M84.12,131.24A7.76,7.76,0,0,0,85.55,138a6.35,6.35,0,0,1,.49,2.18c-.65-.08-1.3-.15-1.94-.25-.15,0-.27-.17-.41-.25-5.26-3-5.36-2.42-1.85-8.74.28-.5,1.09-.67,1.65-1Z"/><path class="cls-3" d="M112.07,173a7.33,7.33,0,0,1-1.08-.85,13.06,13.06,0,0,1-.81-1.23c-2.9-4.81-2.25-6.83,2.88-8.72a1.56,1.56,0,0,1,1.45.25,1.6,1.6,0,0,1-.1,1.48,7.75,7.75,0,0,0-1.56,7.24C113,171.63,112.39,172.29,112.07,173Z"/><path class="cls-3" d="M142.53,103a9.52,9.52,0,0,1,0,2,5.05,5.05,0,0,1-.8,1.37c-.48-.32-1.25-.54-1.39-1a7.34,7.34,0,0,0-4.77-4.85c-.52-.2-.83-1-1.23-1.52a8.35,8.35,0,0,1,1.57-.75,8.33,8.33,0,0,1,1.66-.06C142.23,98.1,142.23,98.1,142.53,103Z"/><path class="cls-3" d="M87.15,150.31c-.46,1.33-.67,3.57-1.43,3.8-2,.6-4.21.34-6.34.34-.19,0-.63-.77-.53-.94a2.33,2.33,0,0,1,1.09-1.14,7.5,7.5,0,0,0,4.5-4.83c.21-.59.92-1,1.4-1.44a8.22,8.22,0,0,1,.84,1.81,11.25,11.25,0,0,1,0,2.25Z"/><path class="cls-3" d="M142.56,92c-.43,1.34-.59,3.61-1.34,3.85-2,.63-4.2.41-6.33.44-.21,0-.65-.65-.6-.9a1.71,1.71,0,0,1,.79-1.09A7.7,7.7,0,0,0,140,88.92c.14-.46.92-.69,1.4-1a5,5,0,0,1,.7,1.45,17.33,17.33,0,0,1,0,2.5Z"/><path class="cls-3" d="M77,82.67c.65,2.72.24,3.22-2.35,2.85l-1.24-1.06a14.35,14.35,0,0,1-1.76-2.53,7.45,7.45,0,0,1-.18-2.39c.79,0,1.7-.2,2.32.14a18,18,0,0,1,2.72,2.26Z"/><path class="cls-3" d="M130.06,145.47l9-3.67C137.29,147.7,133.93,149,130.06,145.47Z"/><path class="cls-3" d="M139.8,111.76l-8.73-4.05C135.47,104.62,139.45,106.46,139.8,111.76Z"/><path class="cls-3" d="M102.63,145.87c-4.1,3.26-7.72,1.66-8.78-4Z"/><path class="cls-3" d="M91.29,112.05c2-6.28,2.75-7,9.07-4.48Z"/><path class="cls-3" d="M123.55,155.83c.1-5.84,2.16-7.37,8.12-5.89Z"/><path class="cls-3" d="M110.65,67.34c-.32.32-.86,1.31-1.52,1.41-.49.08-1.47-.88-1.67-1.56a14.08,14.08,0,0,1-.56-4.43c0-.68.89-1.32,1.37-2,.56.49,1.45.88,1.63,1.49A40.41,40.41,0,0,1,110.65,67.34Z"/><path class="cls-3" d="M161.77,166.55a10.43,10.43,0,0,1,1.63,2,9,9,0,0,1,.39,2.42c-.85,0-1.86.27-2.5-.11a9.41,9.41,0,0,1-2.83-2.65c-.45-.63-.35-1.69-.5-2.55a14.81,14.81,0,0,1,2.5.11,4.92,4.92,0,0,1,1.39.83Z"/><path class="cls-3" d="M110.75,155.68l-8.33-5,.06-.84c1.93,0,4.12-.7,5.7.06C109.94,150.74,110.46,153.17,110.75,155.68Z"/><path class="cls-3" d="M167.69,102.17c-.58-.53-1.26-.86-1.39-1.36a2,2,0,0,1,.45-1.71,34.07,34.07,0,0,1,4.89-2.49,1.73,1.73,0,0,1,1.52.76c.24.45.16,1.57-.16,1.78C171.35,100.24,169.58,101.12,167.69,102.17Z"/><path class="cls-3" d="M177.71,137.91a23.84,23.84,0,0,1-4.53-.74c-.71-.26-1.16-1.26-1.73-1.93.68-.43,1.35-1.21,2.05-1.23a12.31,12.31,0,0,1,4.21.6A2.42,2.42,0,0,1,179,136.5C179,137.1,178,137.63,177.71,137.91Z"/><path class="cls-3" d="M147.1,178.68l0-3.18,2.73.53-.08-.09c.42.86.83,1.73,1.29,2.58.61,1.15,2,2.35.43,3.59s-2.22-.61-3-1.62L147,178.6Z"/><path class="cls-3" d="M85.27,178.63a27.25,27.25,0,0,1-2.52,3.1c-.48.45-1.35.45-2,.66-.18-.8-.72-1.75-.48-2.37a29.1,29.1,0,0,1,2.27-4l-.08.09,2.54-.52c.08,1.06.15,2.11.23,3.16Z"/><path class="cls-3" d="M89,72.87a12.81,12.81,0,0,1-1.22-2.94,8.7,8.7,0,0,1,.43-2.75,7.78,7.78,0,0,1,2.35,1.43A7.93,7.93,0,0,1,92,71.7a9,9,0,0,1-.17,2.66c-.81-.23-1.63-.44-2.43-.7a2.46,2.46,0,0,1-.57-.42A.49.49,0,0,0,89,72.87Z"/><path class="cls-3" d="M137.24,70.85l-2.54.56a9.42,9.42,0,0,1-.23-2.72A12.8,12.8,0,0,1,135.76,65c.3-.53,1.23-.68,1.87-1,.33.74,1,1.53.9,2.19a39,39,0,0,1-1.34,4.77Z"/><path class="cls-3" d="M147.39,75.79l-2.88.37a15,15,0,0,1,.43-3.11,8.93,8.93,0,0,1,1.72-2.94c.43-.49,1.31-.52,2-.76.21.79.78,1.69.58,2.34a29.2,29.2,0,0,1-1.93,4.18Z"/><path class="cls-3" d="M137.19,70.91a33.24,33.24,0,0,1,2.15-4c.45-.65,1.41-.91,2.15-1.34a7.85,7.85,0,0,1,.64,2.54,18.93,18.93,0,0,1-1,3.55l-.25.51c-2.32,1.62-2.79,1.45-3.65-1.27Z"/><path class="cls-3" d="M70.81,166.16a3.06,3.06,0,0,1,.84-.31c.94-.07,1.89-.07,2.83-.1a20.08,20.08,0,0,1-.86,2.69,8.58,8.58,0,0,1-1.29,1.62l.08-.09a5.9,5.9,0,0,1-1.59.93,10.92,10.92,0,0,1-2.29,0,8.24,8.24,0,0,1,.42-2.54,12.78,12.78,0,0,1,1.94-2.32Z"/><path class="cls-3" d="M64.4,151.81a28,28,0,0,1-4.21,1.52c-.75.16-1.63-.41-2.45-.65.4-.77.64-1.78,1.25-2.26a7.42,7.42,0,0,1,3-1.36,10.26,10.26,0,0,1,2.74.17l-.4,2.65Z"/><path class="cls-3" d="M55,115.78a26.83,26.83,0,0,1,4.57.77,2.65,2.65,0,0,1,1.27,1.93c0,.38-1.07,1.22-1.67,1.24a10.4,10.4,0,0,1-4-.57c-.76-.29-1.26-1.33-1.88-2Z"/><path class="cls-3" d="M55.42,111.5a40,40,0,0,1,4.95,1.2c.55.21.83,1.2,1.23,1.83-.67.43-1.36,1.25-2,1.21a14.5,14.5,0,0,1-4.38-1,2.3,2.3,0,0,1-1.13-1.8C54.13,112.39,55,111.91,55.42,111.5Z"/><path class="cls-3" d="M140.9,72.12l.25-.51a15.1,15.1,0,0,1,1.71-2.94,8.1,8.1,0,0,1,2.4-1.28,9.33,9.33,0,0,1,.28,2.84,7.43,7.43,0,0,1-1.39,2.85,10.24,10.24,0,0,1-2.08,1.64Z"/><path class="cls-3" d="M127,62.39a41.21,41.21,0,0,1-.82,5.19,2.09,2.09,0,0,1-1.68,1.22,2.23,2.23,0,0,1-1.3-1.69,16.65,16.65,0,0,1,.65-4.66A2.36,2.36,0,0,1,125.55,61C126.11,61,126.63,62,127,62.39Z"/><path class="cls-3" d="M88.6,180.16l2.7-.58a11.82,11.82,0,0,1-.1,3.1,9.49,9.49,0,0,1-1.66,3.26,2.09,2.09,0,0,1-2,.55,2.38,2.38,0,0,1-.64-2,25.27,25.27,0,0,1,1.36-3.66Z"/><path class="cls-3" d="M62.07,108.49c-1.89-.77-3.56-1.34-5.11-2.16a2,2,0,0,1-.64-1.82,2,2,0,0,1,1.64-1,24.94,24.94,0,0,1,4.9,1.89,2.07,2.07,0,0,1,.63,1.83C63.34,107.76,62.53,108.1,62.07,108.49Z"/><path class="cls-3" d="M136.58,183.23l1.3-2.59a10.57,10.57,0,0,1,2.05,2,9.77,9.77,0,0,1,1.3,3.45c.11.68-.52,1.48-.82,2.23-.65-.33-1.56-.48-1.9-1a37.75,37.75,0,0,1-2-4.15Z"/><path class="cls-3" d="M136.51,183.16a22.57,22.57,0,0,1,.85,4,8.17,8.17,0,0,1-.83,2.66,7.86,7.86,0,0,1-2-1.57,6.48,6.48,0,0,1-.94-2.77,18,18,0,0,1,.13-3.18l2.86.92Z"/><path class="cls-3" d="M133.83,189.48c-.36.46-.83,1.52-1.24,1.5a2.61,2.61,0,0,1-1.88-1.29,14.33,14.33,0,0,1-1.13-4.28c-.07-.7.64-1.48,1-2.22.63.38,1.6.61,1.83,1.17A45.35,45.35,0,0,1,133.83,189.48Z"/><path class="cls-3" d="M57.74,149.81c-.49-.44-1.29-.81-1.4-1.33a2.13,2.13,0,0,1,.74-1.81A24.91,24.91,0,0,1,62,145a1.87,1.87,0,0,1,1.58,1,2.06,2.06,0,0,1-.74,1.8C61.29,148.59,59.62,149.1,57.74,149.81Z"/><path class="cls-3" d="M169.28,152.69a16.5,16.5,0,0,1,2.6,2,8.69,8.69,0,0,1,1.07,2.39,6.42,6.42,0,0,1-2.43.47,20.14,20.14,0,0,1-3.47-1.55l.09.08-1-2.89,2.5-.34Z"/><path class="cls-3" d="M165.72,94.63l-3-.14.42-2.67-.07.09c1-.62,2-1.24,3-1.88s2.26-1.54,3,0c.27.57-.57,1.92-1.17,2.7a13.52,13.52,0,0,1-2.32,2Z"/><path class="cls-3" d="M160.88,88.67c-2.8.45-3.22-.06-2.47-3l-.09.1a22.65,22.65,0,0,1,3.22-2.38,8.06,8.06,0,0,1,2.73-.33,8.29,8.29,0,0,1-.65,2.74,23,23,0,0,1-2.83,2.93Z"/><path class="cls-3" d="M175.84,133.46a9.16,9.16,0,0,1-2.63-.39c-.57-.25-1.31-1.16-1.24-1.69a2.11,2.11,0,0,1,1.55-1.38,14.86,14.86,0,0,1,4.46.36c.61.15,1.05,1.11,1.56,1.7a10.61,10.61,0,0,1-1.89,1.36A5.06,5.06,0,0,1,175.84,133.46Z"/><path class="cls-3" d="M73.42,84.46l1.24,1.06c.23,3-.24,3.45-2.89,2.45l-.17-.15A19.69,19.69,0,0,1,69,84.94c-.38-.6-.17-1.6-.22-2.43a5.45,5.45,0,0,1,2.18.06A14.6,14.6,0,0,1,73.42,84.46Z"/><path class="cls-3" d="M77,82.67l-.49-.73a17,17,0,0,1-2.08-3c-.28-.64.08-1.59.15-2.4.7.09,1.58-.06,2.08.32a25.63,25.63,0,0,1,2.87,2.84l-.09-.1.13,3.14Z"/><path class="cls-3" d="M82.5,176l-2.35,2.65c-.8.88-1.65,2.25-2.83.94-.42-.47-.06-2,.3-2.9a22.66,22.66,0,0,1,2-3.26l-.08.09c2.69-.94,3.26-.42,2.85,2.57Z"/><path class="cls-3" d="M55.09,142.17a5.94,5.94,0,0,1-.85-2.18,2.39,2.39,0,0,1,1.12-1.85,17.1,17.1,0,0,1,4.64-.95,2.15,2.15,0,0,1,1.67,1.29,2.24,2.24,0,0,1-1.17,1.79,34.22,34.22,0,0,1-4.63,1.08Z"/><path class="cls-3" d="M176.87,106.54a29.34,29.34,0,0,1-4.42,2c-1,.28-2.14-.13-3.21-.24.12-.66,0-1.76.39-1.92a28.73,28.73,0,0,1,5.32-2c.48-.12,1.19.74,1.8,1.15Z"/><path class="cls-3" d="M79.54,79.72a22.51,22.51,0,0,1-2-3.3,6.62,6.62,0,0,1,0-2.43,6.43,6.43,0,0,1,2.43.58,16.59,16.59,0,0,1,2.35,2.64l-.08-.09a3.06,3.06,0,0,1,.29.92c0,.81-.16,1.61-.26,2.42l-2.88-.84Z"/><path class="cls-3" d="M66.61,93.73a18.21,18.21,0,0,1-2.43-2.2,5.8,5.8,0,0,1-.59-2.1c.75-.19,1.61-.71,2.24-.49a18.57,18.57,0,0,1,3.23,1.88L69,90.73c.29.37.73.69.86,1.11.2.62.47,1.64.19,1.92a3,3,0,0,1-2,.54c-.5,0-1-.42-1.49-.66Z"/><path class="cls-3" d="M103.15,68.8c-.41.51-.81,1.46-1.35,1.55a2.12,2.12,0,0,1-1.76-1.1,21.49,21.49,0,0,1-1.27-4.75c-.09-.55.47-1.67.86-1.74a2.15,2.15,0,0,1,1.91.79A48.65,48.65,0,0,1,103.15,68.8Z"/><path class="cls-3" d="M130.44,68.86a45.4,45.4,0,0,1,1.45-5.11,2.08,2.08,0,0,1,1.84-1,2.18,2.18,0,0,1,1.05,1.82,20,20,0,0,1-1.31,4.76,2.13,2.13,0,0,1-1.8,1C131.15,70.31,130.78,69.33,130.44,68.86Z"/><path class="cls-3" d="M98.8,184.11a43,43,0,0,1-1.84,5,2,2,0,0,1-1.89.83,2.23,2.23,0,0,1-.89-1.93,20,20,0,0,1,1.62-4.65,2,2,0,0,1,1.86-.83C98.19,182.68,98.5,183.65,98.8,184.11Z"/><path class="cls-3" d="M96,71.39c-.43.54-.79,1.37-1.3,1.5A1.92,1.92,0,0,1,93,72.13a26.3,26.3,0,0,1-1.9-4.81,2.1,2.1,0,0,1,.77-1.8,1.82,1.82,0,0,1,1.81.43C94.56,67.6,95.2,69.4,96,71.39Z"/><path class="cls-3" d="M161.85,166.64a8.44,8.44,0,0,1-1.47-1.83,2.33,2.33,0,0,1,0-1.93,1.81,1.81,0,0,1,1.79-.46,24,24,0,0,1,4.06,3.35,2.46,2.46,0,0,1,0,2.17c-.16.33-1.28.39-1.83.18a16.47,16.47,0,0,1-2.58-1.57Z"/><path class="cls-3" d="M64.38,101.44l.23,2.71a8.61,8.61,0,0,1-2.63,0,11.27,11.27,0,0,1-3.44-1.65,2.3,2.3,0,0,1-.69-2,2,2,0,0,1,1.9-.77,42.74,42.74,0,0,1,4.68,1.77Z"/><path class="cls-3" d="M173.17,121c-.32-.31-1.31-.83-1.34-1.41a2.41,2.41,0,0,1,1.35-1.84,13.27,13.27,0,0,1,4.41-.67c.62,0,1.22,1,1.82,1.53-.49.57-.9,1.46-1.5,1.65A34.73,34.73,0,0,1,173.17,121Z"/><path class="cls-3" d="M145.36,184.89c-.4.61-.66,1.44-1.08,1.55a2,2,0,0,1-1.85-.49,27.08,27.08,0,0,1-2.25-4.89,2.17,2.17,0,0,1,.74-1.81,1.64,1.64,0,0,1,1.65.32C143.58,181.22,144.4,183,145.36,184.89Z"/><path class="cls-3" d="M166.09,160l-.24-.41-1.65-2.68,2.94-.83-.09-.08a21.82,21.82,0,0,1,2.89,2.33A8.57,8.57,0,0,1,171,160.7a9.25,9.25,0,0,1-2.67.35,8.51,8.51,0,0,1-2.34-1.16Z"/><path class="cls-3" d="M55.25,137.05l-1.88-1.42c.66-.67,1.21-1.63,2-1.93a9,9,0,0,1,3.74-.54c.68.05,1.32.85,2,1.32-.56.65-1,1.6-1.7,1.88A20.16,20.16,0,0,1,55.25,137.05Z"/><path class="cls-3" d="M71.6,87.82l.17.15c.12,1,.24,2,.35,2.92L69,90.73l.09.09a19,19,0,0,1-2.48-2.51A7,7,0,0,1,66,86c.83-.08,1.76-.46,2.46-.18A18.11,18.11,0,0,1,71.6,87.82Z"/><path class="cls-3" d="M147,178.6a20.89,20.89,0,0,1,1.39,3.55,6.2,6.2,0,0,1-.53,2.35c-.69-.23-1.64-.24-2-.73a12.82,12.82,0,0,1-2-3.63,7.05,7.05,0,0,1,.14-2.64c.8.23,1.6.45,2.4.71a4.51,4.51,0,0,1,.74.46Z"/><path class="cls-3" d="M176.85,142.17a30.86,30.86,0,0,1-4.6-1.17c-.6-.26-.92-1.25-1.37-1.9.67-.39,1.37-1.14,2-1.11a12.69,12.69,0,0,1,4.15.93,2.45,2.45,0,0,1,1.29,1.87C178.29,141.36,177.26,141.82,176.85,142.17Z"/><path class="cls-3" d="M56.59,145.67c-.44-.38-1.31-.77-1.35-1.23a2.38,2.38,0,0,1,.85-1.95,18.63,18.63,0,0,1,4.77-1.39c.52-.08,1.41.69,1.68,1.3.16.36-.45,1.48-.94,1.69A51.46,51.46,0,0,1,56.59,145.67Z"/><path class="cls-3" d="M64.43,101.5A25.37,25.37,0,0,1,60.7,99c-.62-.56-.77-1.69-1.13-2.56a6.88,6.88,0,0,1,2.51-.25,24.63,24.63,0,0,1,3.67,1.68l-.09-.09c1.48,2.27,1.29,2.8-1.29,3.62Z"/><path class="cls-3" d="M149.8,176l.12-2.69,2.78.21-.09-.1a20.31,20.31,0,0,1,1.91,3.3,10.55,10.55,0,0,1,.21,3,10.23,10.23,0,0,1-2.67-1.11,17.53,17.53,0,0,1-2.34-2.7Z"/><path class="cls-3" d="M64.34,151.88l2.26,1.72a17.49,17.49,0,0,1-1.77,2.05,7.42,7.42,0,0,1-1.89,1c-1.17.54-2.58,1.85-3.41-.13s1-2.24,2.15-2.94c.91-.58,1.81-1.17,2.71-1.77Z"/><path class="cls-3" d="M152.7,173.55l.14-2.67,2.79.19-.09-.1a21.49,21.49,0,0,1,2.2,3.38,7.83,7.83,0,0,1,.07,2.79,6.57,6.57,0,0,1-2.42-.69,24.88,24.88,0,0,1-2.78-3Z"/><path class="cls-3" d="M89,72.87a.49.49,0,0,1-.16.37c.3,1.19.85,2.7-.78,3-.66.14-1.71-1-2.36-1.75a7.77,7.77,0,0,1-1.51-2.78,7.21,7.21,0,0,1,.26-2.43,7,7,0,0,1,2.36.83A17.35,17.35,0,0,1,89,72.87Z"/><path class="cls-3" d="M67.74,158.87a25.61,25.61,0,0,1-3.83,1.88c-.73.23-1.65-.23-2.49-.38a7.59,7.59,0,0,1,1-2.4,6.94,6.94,0,0,1,2.64-1.63,12.09,12.09,0,0,1,2.78-.3c-.07,1-.13,1.93-.21,2.9Z"/><path class="cls-3" d="M169.28,152.69l-.6.14a4.06,4.06,0,0,1-.8-1.2,3.27,3.27,0,0,1,0-2,1.74,1.74,0,0,1,1.66-.49,21,21,0,0,1,4.33,2,2.28,2.28,0,0,1,.7,2,2.16,2.16,0,0,1-1.93.78A18.1,18.1,0,0,1,169.28,152.69Z"/><path class="cls-3" d="M129.84,190.58c-.37.39-.84,1.3-1.47,1.43s-1.5-.66-1.68-1.24a20,20,0,0,1-.85-4.85,2.13,2.13,0,0,1,1.22-1.68,2.15,2.15,0,0,1,1.66,1.25A44.41,44.41,0,0,1,129.84,190.58Z"/><path class="cls-3" d="M109.67,186.87a23.61,23.61,0,0,1-.63,4.4c-.27.75-1.17,1.25-1.79,1.87a8.13,8.13,0,0,1-1.26-2.49,7.38,7.38,0,0,1,.44-3.42c.32-.83,1.2-1.42,1.84-2.11Z"/><path class="cls-3" d="M68.61,162.94A11.38,11.38,0,0,1,66,164.35a7.12,7.12,0,0,1-2.48-.37c.25-.78.3-1.77.79-2.29a34,34,0,0,1,3.48-2.82l-.07.07,2.48.9L68.53,163Z"/><path class="cls-3" d="M68.53,163l.45,0,3.11-.37c-.36,1-.71,2.06-1.08,3.09a4.28,4.28,0,0,1-.2.44l.08-.09a13.32,13.32,0,0,1-2.58,1.61,6.84,6.84,0,0,1-2.34,0,8.2,8.2,0,0,1,.52-2.56,12,12,0,0,1,2.12-2.15Z"/><path class="cls-3" d="M147.31,75.87a25.43,25.43,0,0,1,2.5-3.27c.57-.54,1.57-.58,2.38-.85a10,10,0,0,1,.15,2.65,10,10,0,0,1-1.18,2.38l.08-.09a6.33,6.33,0,0,1-.72.56c-.82.46-1.66.9-2.49,1.34l-.63-2.81Z"/><path class="cls-3" d="M102.36,185.12c-.57,2-.94,3.72-1.57,5.31-.19.5-1.3,1.08-1.64.9A2.35,2.35,0,0,1,98,189.52a22.82,22.82,0,0,1,1.31-5,1.88,1.88,0,0,1,1.67-.85C101.55,183.82,102,184.65,102.36,185.12Z"/><path class="cls-3" d="M66.53,93.64l.32.61c.46.83.93,1.66,1.4,2.49l-2.59,1.07.09.09a25.84,25.84,0,0,1-3.35-2.6,6.9,6.9,0,0,1-.89-2.46,7,7,0,0,1,2.34-.34,13.25,13.25,0,0,1,2.76,1.23Z"/><path class="cls-3" d="M165.64,94.72A21.37,21.37,0,0,1,169,93.16a5.73,5.73,0,0,1,2.29.36,6.39,6.39,0,0,1-.72,2.32,5.34,5.34,0,0,1-2.42,1.53,18.29,18.29,0,0,1-3.41.45l1-3.18Z"/><path class="cls-3" d="M160.79,88.77a26.92,26.92,0,0,1,3.55-2.35,6.24,6.24,0,0,1,2.48,0,7,7,0,0,1-.67,2.54,25.87,25.87,0,0,1-3,3l.07-.09c-2.92.14-3.28-.36-2.3-3.15Z"/><path class="cls-3" d="M174.6,150.38a42.26,42.26,0,0,1-4.87-2,2.4,2.4,0,0,1-.67-2c.06-.38,1.16-.94,1.65-.81a20.76,20.76,0,0,1,4.65,1.71,2.44,2.44,0,0,1,.67,2C176,149.74,175.06,150.05,174.6,150.38Z"/><path class="cls-3" d="M88.6,180.16l-.33.63a18.3,18.3,0,0,1-2.08,3c-.52.51-1.46.53-2.21.77-.15-.8-.58-1.7-.37-2.4a21.13,21.13,0,0,1,1.67-3.5l-.09.1,2.6-1.19Z"/><path class="cls-3" d="M151.16,76.78A9.83,9.83,0,0,1,153,75a9.7,9.7,0,0,1,2.44-.71,8.26,8.26,0,0,1-.12,2.83,7.15,7.15,0,0,1-2,2.71,7.69,7.69,0,0,1-2.59.87c0-1,.06-1.92.16-2.88a4.87,4.87,0,0,1,.4-1.1Z"/><path class="cls-3" d="M102.68,63.07c.34-.38.86-1.4,1.29-1.36a2.53,2.53,0,0,1,1.81,1.35,14.34,14.34,0,0,1,.89,4.35c0,.71-.74,1.45-1.15,2.17-.64-.49-1.64-.84-1.86-1.48A34.81,34.81,0,0,1,102.68,63.07Z"/><path class="cls-3" d="M125.64,190.83l-1.33,2c-.66-.74-1.6-1.38-1.9-2.26a10.5,10.5,0,0,1-.41-3.92c0-.64.75-1.25,1.15-1.87.6.51,1.52.9,1.75,1.56A27.4,27.4,0,0,1,125.64,190.83Z"/><path class="cls-3" d="M82.38,77.21A19.87,19.87,0,0,1,80.75,74,7,7,0,0,1,81,71.5c.8.24,1.83.24,2.37.77a8.63,8.63,0,0,1,2,3.1,8.81,8.81,0,0,1,0,2.86c-.81-.26-1.62-.5-2.42-.77a3.21,3.21,0,0,1-.59-.34Z"/><path class="cls-3" d="M173.59,100.09c.52.47,1.21.8,1.36,1.31s-.07,1.53-.42,1.71a35.79,35.79,0,0,1-5.23,2.21c-.36.13-1.24-.46-1.41-.92a1.87,1.87,0,0,1,.43-1.69C170,101.75,171.72,101,173.59,100.09Z"/><path class="cls-3" d="M72.33,170.06a10,10,0,0,1,2.07-1.48,8.23,8.23,0,0,1,2.35-.24c-.08.89.1,2-.31,2.62a9.54,9.54,0,0,1-2.71,2.77c-.64.43-1.65.24-2.49.33a23.76,23.76,0,0,1,.34-2.67,5.72,5.72,0,0,1,.83-1.42Z"/><path class="cls-3" d="M171.66,113.09c-.45-.4-1.32-.82-1.34-1.29a2.38,2.38,0,0,1,.93-1.9,17.8,17.8,0,0,1,4.54-1.34,2.06,2.06,0,0,1,1.75,1.07,2.19,2.19,0,0,1-.87,1.92A42.64,42.64,0,0,1,171.66,113.09Z"/><path class="cls-3" d="M172.54,117c-.44-.4-1.34-.83-1.43-1.41a2.2,2.2,0,0,1,1.07-1.8,21.73,21.73,0,0,1,4.85-1c.49,0,1.47.74,1.47,1.13a2.38,2.38,0,0,1-1.05,1.84A40.09,40.09,0,0,1,172.54,117Z"/><path class="cls-3" d="M99.47,69.92c-.35.53-.69,1.52-1.12,1.56a2.25,2.25,0,0,1-1.9-.9,19.59,19.59,0,0,1-1.53-4.68,2.29,2.29,0,0,1,.91-2,2,2,0,0,1,1.83.87A47.68,47.68,0,0,1,99.47,69.92Z"/><path class="cls-3" d="M131,63.2a42,42,0,0,1-1.16,5.18,2.2,2.2,0,0,1-1.77,1.11c-.39,0-1.15-1-1.1-1.57a27.61,27.61,0,0,1,1-5.33,1.86,1.86,0,0,1,1.67-.86C130.24,61.91,130.63,62.76,131,63.2Z"/><path class="cls-3" d="M175.87,146.3a39.38,39.38,0,0,1-4.86-1.55,2.22,2.22,0,0,1-.94-1.91,2.07,2.07,0,0,1,1.78-1.07,17.77,17.77,0,0,1,4.55,1.35,2.3,2.3,0,0,1,1,1.9C177.27,145.57,176.32,145.94,175.87,146.3Z"/><path class="cls-3" d="M166,159.89a10.62,10.62,0,0,1,1.75,1.8,15.6,15.6,0,0,1,1.05,2.67,7.21,7.21,0,0,1-2.69.06,6.75,6.75,0,0,1-2.71-1.94,9.24,9.24,0,0,1-1.06-2.65c.9-.06,1.79-.16,2.69-.16a3.81,3.81,0,0,1,1.05.31Z"/><path class="cls-3" d="M121.73,191.17l-1.8,2.06a7.87,7.87,0,0,1-1.63-2.17,9,9,0,0,1-.3-3.68c.11-.8.91-1.49,1.39-2.22.58.65,1.45,1.2,1.67,2a16.73,16.73,0,0,1,.26,3.7Z"/><path class="cls-3" d="M154,83.73c-.33-.74-1.14-1.84-.92-2.16a33.31,33.31,0,0,1,4-4.74c.14-.14,1.29.84,2,1.3L155,83.88Z"/><path class="cls-3" d="M91.34,189c-.35-.94-1-1.82-.85-2.47a22.33,22.33,0,0,1,2-4.78,2,2,0,0,1,1.76-.67c.42.08,1.11,1.07,1,1.4a60.58,60.58,0,0,1-2.35,5.65C92.72,188.42,92.21,188.52,91.34,189Z"/><path class="cls-3" d="M101.77,190.64a37.64,37.64,0,0,1,1.16-4.92,2.12,2.12,0,0,1,1.75-1.11,2.22,2.22,0,0,1,1.1,1.79,16,16,0,0,1-.85,4.39c-.25.69-1.15,1.13-1.75,1.67Z"/><path class="cls-3" d="M61,112.14a46.18,46.18,0,0,1-5-1.65,2.2,2.2,0,0,1-.79-1.93,2.11,2.11,0,0,1,1.81-1,16.36,16.36,0,0,1,4.29,1.31,2.32,2.32,0,0,1,1.11,1.81C62.31,111.22,61.43,111.69,61,112.14Z"/><path class="cls-3" d="M158.41,85.71l-2.68-.39a11,11,0,0,1,.88-2.56,7.21,7.21,0,0,1,2.2-2.2,8.42,8.42,0,0,1,2.65-.61,9.72,9.72,0,0,1-.63,2.94,19.13,19.13,0,0,1-2.5,2.92Z"/><path class="cls-3" d="M155.63,171.07l.07-2.89a9.32,9.32,0,0,1,2.67,1,9.94,9.94,0,0,1,2.45,2.71c.34.56.14,1.49.19,2.26-.79,0-1.77.27-2.32-.12a26.32,26.32,0,0,1-3.15-3Z"/><path class="cls-3" d="M79.65,173.43a25.38,25.38,0,0,1-3.05,3.08c-.61.46-1.62.32-2.45.45a7.27,7.27,0,0,1,.25-2.64,8.51,8.51,0,0,1,2.21-2.57A9.69,9.69,0,0,1,79,170.69l.54,2.83Z"/><path class="cls-3" d="M116.56,131.84,114.38,133c-2.28-1.62-1.22-6-5.22-6.43V133l-2.66.18V118.38c1.92,0,3.88-.12,5.83,0s3.79,3.23,2.73,4.89c-1.47,2.34-.35,4,.43,5.94Zm-6.92-10.77-.71,1.09c.53.47,1.07,1.34,1.58,1.31s1.23-.8,1.85-1.24Z"/><path class="cls-3" d="M137.33,125.9a34.9,34.9,0,0,1-.3,3.76,4.78,4.78,0,0,1-4.83,4.24,5,5,0,0,1-4.78-4.66,45.21,45.21,0,0,1,0-6.48,5,5,0,0,1,4.72-4.73,4.85,4.85,0,0,1,4.89,4.2A32.63,32.63,0,0,1,137.33,125.9Zm-3,.26h0a8.56,8.56,0,0,0-.07-3c-.33-.84-1.28-2-1.95-2s-1.8,1.15-1.93,1.94a17.6,17.6,0,0,0,0,5.47c.13.82,1.19,1.48,1.83,2.21a11,11,0,0,0,2.08-2.24C134.58,128,134.31,127,134.31,126.16Z"/><path class="cls-3" d="M104.85,126.2c0,1,.07,2,0,3a5,5,0,0,1-4.75,4.94,4.73,4.73,0,0,1-5-4.39,32.61,32.61,0,0,1,0-7.19,4.69,4.69,0,0,1,5.07-4.2,5,5,0,0,1,4.57,4.6,29.17,29.17,0,0,1,0,3.24Zm-2.87,0a6.52,6.52,0,0,0-.06-2.47,12.05,12.05,0,0,0-2-2.36c-.7.75-1.84,1.41-2,2.26a14,14,0,0,0,0,5.21c.16.85,1.32,1.47,2,2.2a11.08,11.08,0,0,0,1.93-2.38A6.48,6.48,0,0,0,102,126.21Z"/><path class="cls-3" d="M125.26,130.34v2.92a10.49,10.49,0,0,1-1.23.15c-2.3,0-4.59,0-7,0V118.26h8.25v2.93h-5.36v2.67H124l.18,2.94h-4.22v3.54Z"/><path class="cls-3" d="M109.19,116.35c4.28-4.73,8.86-4.72,13.9,0Z"/><path class="cls-3" d="M123.12,136.38c-4.93,4.55-8.17,4.64-14,0Z"/></svg>