<svg id="Ebene_1" data-name="Ebene 1" xmlns="http://www.w3.org/2000/svg" viewBox="0 0 255.12 255.12"><defs><style>.cls-1{fill:#1b335c;}.cls-2{fill:#0d0f16;}.cls-3{fill:#7e9dc9;}.cls-4{fill:#283e64;}</style></defs><title>Blaubeere</title><path class="cls-1" d="M126.8,49.71s-73.64-6.36-84.63,64,60.63,96.23,93.18,96c45.4-.29,100.91-33.36,69.58-106.19,0,0-3.26-18.94-30.52-35.51S126.8,49.71,126.8,49.71Z"/><path class="cls-2" d="M124.77,65.43S110.53,77,110.12,81.74s26.45,6.4,26.45,6.4,6.51,18.68,11.39,22.75,16.68-13.56,16.68-13.56l10.18-2.6,4.06,2.6s1.23-8.76,1.63-11.64-8.14-11.42-8.14-11.42,5.29-9,2.85-13.06a13,13,0,0,0-6.51-5.31s-2.13,6.89-6.76,5.31a61.92,61.92,0,0,1-9.07-4.11l-7.56-2.85s-3-13.26-9.16-7.4-15.46,9.49-15.46,9.49l-2.44,4.87Z"/><path class="cls-3" d="M129,68.13s-11.29,9.17-11.61,12.92,21,5.07,21,5.07,5.15,14.81,9,18S160.63,93.4,160.63,93.4l8.06-2.05,3.23,2.05s1-6.94,1.29-9.22-6.45-9.05-6.45-9.05S171,68,169,64.78a10.27,10.27,0,0,0-5.16-4.2s-1.7,5.45-5.36,4.2a48.29,48.29,0,0,1-7.19-3.25l-6-2.26s-2.42-10.51-7.26-5.87-12.25,7.53-12.25,7.53l-1.93,3.85Z"/><ellipse class="cls-4" cx="149.28" cy="75.61" rx="9.02" ry="13.71" transform="translate(27.89 190.79) rotate(-70.36)"/></svg>