<svg id="Ebene_1" data-name="Ebene 1" xmlns="http://www.w3.org/2000/svg" viewBox="0 0 255.12 255.12"><defs><style>.cls-1{fill:#c04858;}.cls-2{fill:#e65469;}.cls-3{fill:#84b427;}</style></defs><title>Himbeere</title><path class="cls-1" d="M186,105.64a6.22,6.22,0,0,0-.47.43,13.89,13.89,0,0,1,6.11,3,11.86,11.86,0,0,1,4.07,8.81,22.88,22.88,0,0,1-2.67,12,1.24,1.24,0,0,0,.22,1.15c3.34,3.28,4,6.82,2,11a22.6,22.6,0,0,1-9.42,9.7l-1.14.66a13.35,13.35,0,0,1,2.91,6.66,13.94,13.94,0,0,1-3.9,11.42A18.63,18.63,0,0,1,171.55,177a3,3,0,0,0-.57.17,11.56,11.56,0,0,1-3.76,9.36,18.65,18.65,0,0,1-10.81,5.34,11.77,11.77,0,0,1-3.7,0,1.44,1.44,0,0,0-1.74.81,21.62,21.62,0,0,1-6,6.27,16.57,16.57,0,0,1-13,2.26,1.56,1.56,0,0,0-1.81.6c-3.46,3.94-7.62,6.72-13.28,6.44a8.44,8.44,0,0,1-3-.92,2,2,0,0,0-2,0,18.4,18.4,0,0,1-12.77,2c-4.85-1.08-8.27-3.82-9.77-8.54a2.93,2.93,0,0,0-.16-.39,45.76,45.76,0,0,1-6.73,0c-3.6-.52-5.87-2.94-7.39-6a36.4,36.4,0,0,1-2-5.37,1.88,1.88,0,0,0-1.33-1.45c-4.81-1.63-7.78-7.39-6.1-12a23.3,23.3,0,0,1,2.28-3.78,15.23,15.23,0,0,1-5.78-10.15,13.82,13.82,0,0,1,3.49-11.26c-.43-.28-.84-.53-1.25-.78A11.12,11.12,0,0,1,59,137.78a20.59,20.59,0,0,1,5.75-11.28,9.08,9.08,0,0,1-4.64-6.08,13,13,0,0,1,1.76-9.76c2.45-4.12,5.89-7.07,10.88-7.92a22.46,22.46,0,0,1,3.67,0,15.81,15.81,0,0,1,5.17-17A9.48,9.48,0,0,1,91.06,84a2.65,2.65,0,0,0,.39.1,31.5,31.5,0,0,1-.19-5.73c.82-5.54,4.9-9.41,10.85-10.71,6.79-1.49,12.77.59,18.46,3.92.31.18.6.38,1.07.67m31.29,9.62-14.7-2.31c.09.12.22.22.42.44m-14.1,43.91a6.77,6.77,0,0,0-.63.49c-4.12,4.23-9.22,5-14.75,3.59a3.73,3.73,0,0,0-4,1.1c-3.41,3.4-4.19,11.42,1.53,15.08,8,5.11,18.51.31,21-8a2,2,0,0,0-.39-1.34c-.54-.94-1.26-1.77-1.73-2.73A13.55,13.55,0,0,1,124.55,123.91ZM129,109.08c-.52,0-1,.1-1.4.08a54.24,54.24,0,0,1-6.89-.44,9.88,9.88,0,0,1-8.34-7.54c-.22-.83-.56-1.19-1.44-.79a15.45,15.45,0,0,0-2.88,1.32A12.59,12.59,0,0,0,102.67,114c.62,5.34,3.83,8.12,9.41,8.5a21.14,21.14,0,0,0,11.24-2.69C127.81,117.51,128.84,113.6,129,109.08Zm-1.22,59.8c-.2,0-.3,0-.35,0a21.7,21.7,0,0,1-12.85,4.94,1.66,1.66,0,0,0-1.07.77,13.35,13.35,0,0,0-1.52,9.58c1.21,5.88,7,10.72,14.35,7.75a17.27,17.27,0,0,0,8.65-7.18c.49-.82.63-1.43-.4-2.15a18.72,18.72,0,0,1-5.39-6,10.1,10.1,0,0,1-1.6-6.27C127.61,169.88,127.68,169.4,127.74,168.88ZM126,146.29c-.4.37-.66.62-.93.84-4.15,3.43-8.88,5.15-14.37,4.34a2.27,2.27,0,0,0-2.31.63A10.83,10.83,0,0,0,107,154a11.26,11.26,0,0,0-1,5.94c.37,6.55,5.38,10.23,11.85,8.55,6-1.55,9.64-5.69,12.22-10.87a1.47,1.47,0,0,0-.34-1.22,13.49,13.49,0,0,1-3.26-7.22C126.36,148.31,126.18,147.41,126,146.29Zm52.93-32.1c-.12-1-.18-1.9-.38-2.84-1-4.61-4.16-7-9-6.65a13.3,13.3,0,0,0-9.78,5.18c-4,4.91-2.43,11.37,3.3,14.25S178.92,123.48,178.93,114.19ZM126.09,104c.77-.11,1.93-.2,3-.46a18.69,18.69,0,0,0,10.75-6.33,5.51,5.51,0,0,0,1.38-4.78,9.07,9.07,0,0,0-8.37-6.8c-5.83-.25-10.47,2.28-14.16,6.36a6.88,6.88,0,0,0,.09,9.32C120.63,103.34,123.09,103.85,126.09,104ZM105.93,89a28.34,28.34,0,0,0,11.74-2.64,5.27,5.27,0,0,0,3.3-4.5,6.61,6.61,0,0,0-2-5.56,13.23,13.23,0,0,0-9.14-4.19c-5.53-.39-11,1.65-13.46,7.13-1.37,3.08-.47,5.85,2.49,7.63A14.9,14.9,0,0,0,105.93,89Zm52.3,36.85a13.82,13.82,0,0,0-1.74,2.53,17,17,0,0,0,.63,15,7.57,7.57,0,0,0,6.17,4.05,11.42,11.42,0,0,0,8.33-2.33c3.49-2.62,4.28-6.36,4.11-10.36a10.27,10.27,0,0,0-2.27-6C168,130.11,162.74,130.53,158.23,125.81Zm-7.72,10.33c-.36.12-.94.3-1.5.5-4.3,1.57-8.67,2.54-13.3,1.53a1.52,1.52,0,0,0-1.17.67,14.22,14.22,0,0,0-2,10.08A9.53,9.53,0,0,0,144,156.65a13.6,13.6,0,0,0,9.37-6.6,1.24,1.24,0,0,0,0-1.68,13.88,13.88,0,0,1-2.83-7.28C150.41,139.45,150.51,137.8,150.51,136.14ZM106.12,93.05a18,18,0,0,1-11.57-4.89A4.36,4.36,0,0,0,90.83,87a13.06,13.06,0,0,0-8.73,4.91A6,6,0,0,0,81,95.08a9.32,9.32,0,0,0,6.5,9.29C94.48,106.72,105.34,103.3,106.12,93.05Zm2,79.6c-3.85-3.31-6.86-6.83-5.89-12.17-3.44,2.19-7,3.33-11.08,2.51a1.47,1.47,0,0,0-1.64.61c-2.61,2.93-3.2,6.39-2.79,10.07a7.7,7.7,0,0,0,4.11,6.43,12.81,12.81,0,0,0,8,1.25C104.09,180.55,106.54,177,108.14,172.65ZM96.87,136.72c-.48.07-1,.11-1.52.23-5.62,1.42-10.64,6.94-11.37,12.48-.58,4.48,1.84,8.25,6,9.21a9.85,9.85,0,0,0,5.61-.36c4-1.43,7.19-3.67,8.74-7.69.33-.83.13-1.28-.69-1.71A11,11,0,0,1,98.05,142C97.55,140.35,97.28,138.61,96.87,136.72Zm-9.58-1.87a16.31,16.31,0,0,0-1.82-1.08,14.77,14.77,0,0,1-7.83-7.3,1.13,1.13,0,0,0-.83-.5c-4,.08-9.57,2.62-11.13,7.39-1.49,4.57.24,9.18,4.27,11,4.7,2.19,11.13.59,14-3.63C85.19,138.93,86.15,136.89,87.29,134.85Zm9.93-23.63-6-.26a1.78,1.78,0,0,0-.61,0c-3.39,1-6.41,2.52-8.26,5.63-2.2,3.72-1.55,7.54,1.88,10.26a13.27,13.27,0,0,0,10.57,2.58,14.51,14.51,0,0,0,8.3-4.25C98.58,121.45,97.52,116.37,97.22,111.22Zm51.6,47.52c-3.22,2.51-5.67,3.23-10,2.86-.74-.06-1.48-.18-2.22-.2-2.22,0-3.35.78-3.94,2.86a13.16,13.16,0,0,0-.14,6.39,9.76,9.76,0,0,0,9.83,7.67c4.92-.13,9.16-3.53,9.56-8a14.9,14.9,0,0,0-.93-5C150.34,163.1,149.54,160.93,148.82,158.74ZM147.87,99c-5.5,0-11.88,5.33-12.93,10.84-.75,3.93,1.48,7,5.56,7.56,6.11.91,12.94-3.4,14.58-9.22C156.47,103.28,153.13,99,147.87,99Zm14.52,67.27a12.82,12.82,0,0,0,12.6-9.57,7.85,7.85,0,0,0-1.06-7c-1-1.31-1-1.29-2.43-.44A16.24,16.24,0,0,1,157.55,151a1.4,1.4,0,0,0-1.78.58,11.2,11.2,0,0,0-2.43,6.39C153.14,162.6,157.21,166.28,162.39,166.28Zm-83.25-16a12.64,12.64,0,0,1-7.83,1.33,3.09,3.09,0,0,0-3.47,2,10.25,10.25,0,0,0,.86,11.09c2.88,4.07,8.14,4.75,11.35,1.37a41.94,41.94,0,0,0,3.74-5.3C80.34,157.92,79.1,154.47,79.14,150.27Zm96.55-23.08c1,.72,1.82,1.69,2.75,1.84a17.11,17.11,0,0,0,5.62.08c4.61-.85,7.79-4.88,8.48-10.28.78-6.17-3-10.3-9.32-10.24-1.47,0-1.84.41-1.63,1.82a13.32,13.32,0,0,0,.32,1.39,13.29,13.29,0,0,1-.3,7.65A14.71,14.71,0,0,1,175.69,127.19ZM152,120.47c-7.41,4-13.52,3.74-18.83-.72a11.67,11.67,0,0,0-2.53,4.82,6,6,0,0,0,2.31,6.49,11,11,0,0,0,5.47,2C146.46,134.19,153,128.14,152,120.47Zm3.55,49.06a14.66,14.66,0,0,1-.22,1.62,15.07,15.07,0,0,1-7.15,9.49,1.79,1.79,0,0,0-.94,2.46,6.71,6.71,0,0,0,1.54,2.23,6.84,6.84,0,0,0,4.75,1.72c2.87,0,5.71-.07,7.93-2.24a10,10,0,0,0,2.64-5.17C165.34,174.21,161.3,169.43,155.57,169.53ZM76.39,122.78c-.74-6.54,2-11,8-13.5-1.56-.91-3-1.74-4.38-2.55a2.07,2.07,0,0,0-.79-.31,13,13,0,0,0-11.4,3.93c-2.66,2.77-3.08,6.28-2.2,9.86a9.71,9.71,0,0,0,1.81,3,1.34,1.34,0,0,0,1.17.32C71.1,122.72,73.59,122.09,76.39,122.78Zm15.52,62a11.84,11.84,0,0,0,4.63,10.55A8.4,8.4,0,0,0,100.4,197c3.41.53,7.69-1.9,9.14-4.94a1.17,1.17,0,0,0,.06-.88c-1.1-2.6-2.17-5.2-1.91-8.28C102.77,186.82,97.8,188.81,91.91,184.8ZM165,100.53c1.94-2.27,5.3-6.71,1.55,1.22a50.88,50.88,0,0,1,5.91-.41,10,10,0,0,1,7.75,4,4.32,4.32,0,0,0,.5-.2m-99,67.21s-.06,0-.14,0-.29.14-.44.21a11.65,11.65,0,0,1-9.06,1.15,1.54,1.54,0,0,0-1.22.6,6.47,6.47,0,0,0,1.38,8.82c3.13,2.41,6.46,1.93,9.8.51,2.76-1.17,3.43-2.93,2.24-5.6ZM130.55,195a8.94,8.94,0,0,0,8.62,2.66c4.37-.79,6.94-3.75,9.08-7.26a8.78,8.78,0,0,1-4.17-7.34L139,184.19C137.44,188.87,136.78,189.73,130.55,195Zm44.81-49.63a9.32,9.32,0,0,0,6.1,1.26c4.15-.79,8.26-5.44,8.16-9.54-.07-3.43-1.49-4.51-4.14-4.15-2.44.33-4.86.7-7.33-.54C180.13,137.75,179.45,140.87,175.36,145.41ZM145.69,88.53c.5,1.21,2.74-1.07,3.18,0,5.52.29,11,4.57,15.17,7.67m0,0c.13,1.38.35,1.55,1.82,1.31m-29-15-7.43,113a3.69,3.69,0,0,0-.55.08,17.1,17.1,0,0,1-16.16-.95c-.8-.47-1.07,0-1.26.53a5.45,5.45,0,0,0,.26,4.4,9.11,9.11,0,0,0,9,4.8c3.46-.26,8.23-4.46,8.66-7.16A12,12,0,0,0,129.44,195.46Zm49-43.43c.62,4,.84,7.91-1.64,11.41a16.26,16.26,0,0,1-9.94,6.69c3.07,1.67,6.08,2.25,9.11.72,4.38-2.21,6.9-5.83,7.09-10.59C183.17,156.82,181.25,154.12,178.42,152ZM144.23,85.89,78.47,188.48a7.33,7.33,0,0,0,1.82,4.86c2.25,2.58,6.41,3.49,9.06,2,.64-.35.87-.68.55-1.42a10,10,0,0,1-1-3.17c-.16-2.07,0-4.16,0-6.14C85.73,186.36,82.43,188.13,78.47,188.48Zm32.07,15.78c-.68-1.78-1.33-3.44-2-5.08a18.79,18.79,0,0,1-7.61,2.17,13.75,13.75,0,0,1-7.92-1.46C95.86,206.89,104.11,208.2,110.54,204.26Z"/><path class="cls-2" d="M124.55,123.91a13.55,13.55,0,0,0,1,8.2c.47,1,1.19,1.79,1.73,2.73a2,2,0,0,1,.39,1.34c-2.51,8.3-13,13.1-21,8-5.72-3.66-4.94-11.68-1.53-15.08a3.73,3.73,0,0,1,4-1.1c5.53,1.42,10.63.64,14.75-3.59A6.77,6.77,0,0,1,124.55,123.91Z"/><path class="cls-2" d="M129,109.08c-.12,4.52-1.15,8.43-5.64,10.72a21.14,21.14,0,0,1-11.24,2.69c-5.58-.38-8.79-3.16-9.41-8.5A12.59,12.59,0,0,1,108,101.71a15.45,15.45,0,0,1,2.88-1.32c.88-.4,1.22,0,1.44.79a9.88,9.88,0,0,0,8.34,7.54,54.24,54.24,0,0,0,6.89.44C128,109.18,128.44,109.11,129,109.08Z"/><path class="cls-2" d="M127.74,168.88c-.06.52-.13,1-.18,1.49a10.1,10.1,0,0,0,1.6,6.27,18.72,18.72,0,0,0,5.39,6c1,.72.89,1.33.4,2.15A17.27,17.27,0,0,1,126.3,192c-7.38,3-13.14-1.87-14.35-7.75a13.35,13.35,0,0,1,1.52-9.58,1.66,1.66,0,0,1,1.07-.77,21.7,21.7,0,0,0,12.85-4.94S127.54,168.9,127.74,168.88Z"/><path class="cls-2" d="M126,146.29c.18,1.12.36,2,.47,2.92a13.49,13.49,0,0,0,3.26,7.22,1.47,1.47,0,0,1,.34,1.22c-2.58,5.18-6.23,9.32-12.22,10.87-6.47,1.68-11.48-2-11.85-8.55a11.26,11.26,0,0,1,1-5.94,10.83,10.83,0,0,1,1.41-1.93,2.27,2.27,0,0,1,2.31-.63c5.49.81,10.22-.91,14.37-4.34C125.34,146.91,125.6,146.66,126,146.29Z"/><path class="cls-2" d="M178.93,114.19c0,9.29-10.17,12.82-15.9,9.94s-7.29-9.34-3.3-14.25a13.3,13.3,0,0,1,9.78-5.18c4.88-.32,8.07,2,9,6.65C178.75,112.29,178.81,113.24,178.93,114.19Z"/><path class="cls-2" d="M126.09,104c-3-.13-5.46-.64-7.27-2.69a6.88,6.88,0,0,1-.09-9.32c3.69-4.08,8.33-6.61,14.16-6.36a9.07,9.07,0,0,1,8.37,6.8,5.51,5.51,0,0,1-1.38,4.78,18.69,18.69,0,0,1-10.75,6.33C128,103.78,126.86,103.87,126.09,104Z"/><path class="cls-2" d="M105.93,89a14.9,14.9,0,0,1-7.07-2.13c-3-1.78-3.86-4.55-2.49-7.63,2.45-5.48,7.93-7.52,13.46-7.13A13.23,13.23,0,0,1,119,76.26a6.61,6.61,0,0,1,2,5.56,5.27,5.27,0,0,1-3.3,4.5A28.34,28.34,0,0,1,105.93,89Z"/><path class="cls-2" d="M158.23,125.81c4.51,4.72,9.72,4.3,15.23,2.9a10.27,10.27,0,0,1,2.27,6c.17,4-.62,7.74-4.11,10.36a11.42,11.42,0,0,1-8.33,2.33,7.57,7.57,0,0,1-6.17-4.05,17,17,0,0,1-.63-15A13.82,13.82,0,0,1,158.23,125.81Z"/><path class="cls-2" d="M150.51,136.14c0,1.66-.1,3.31,0,5a13.88,13.88,0,0,0,2.83,7.28,1.24,1.24,0,0,1,0,1.68,13.6,13.6,0,0,1-9.37,6.6,9.53,9.53,0,0,1-11.49-7.73,14.22,14.22,0,0,1,2-10.08,1.52,1.52,0,0,1,1.17-.67c4.63,1,9,0,13.3-1.53C149.57,136.44,150.15,136.26,150.51,136.14Z"/><path class="cls-2" d="M106.12,93.05c-.78,10.25-11.64,13.67-18.66,11.32A9.32,9.32,0,0,1,81,95.08a6,6,0,0,1,1.14-3.2A13.06,13.06,0,0,1,90.83,87a4.36,4.36,0,0,1,3.72,1.19A18,18,0,0,0,106.12,93.05Z"/><path class="cls-2" d="M108.14,172.65c-1.6,4.36-4,7.9-9.26,8.7a12.81,12.81,0,0,1-8-1.25,7.7,7.7,0,0,1-4.11-6.43c-.41-3.68.18-7.14,2.79-10.07a1.47,1.47,0,0,1,1.64-.61c4,.82,7.64-.32,11.08-2.51C101.28,165.82,104.29,169.34,108.14,172.65Z"/><path class="cls-2" d="M96.87,136.72c.41,1.89.68,3.63,1.18,5.3a11,11,0,0,0,5.56,6.86c.82.43,1,.88.69,1.71-1.55,4-4.77,6.26-8.74,7.69a9.85,9.85,0,0,1-5.61.36c-4.13-1-6.55-4.73-6-9.21.73-5.54,5.75-11.06,11.37-12.48C95.86,136.83,96.39,136.79,96.87,136.72Z"/><path class="cls-2" d="M87.29,134.85c-1.14,2-2.1,4.08-3.35,5.93-2.86,4.22-9.29,5.82-14,3.63-4-1.87-5.76-6.48-4.27-11,1.56-4.77,7.17-7.31,11.13-7.39a1.13,1.13,0,0,1,.83.5,14.77,14.77,0,0,0,7.83,7.3A16.31,16.31,0,0,1,87.29,134.85Z"/><path class="cls-2" d="M97.22,111.22c.3,5.15,1.36,10.23,5.92,14a14.51,14.51,0,0,1-8.3,4.25,13.27,13.27,0,0,1-10.57-2.58c-3.43-2.72-4.08-6.54-1.88-10.26,1.85-3.11,4.87-4.62,8.26-5.63a1.78,1.78,0,0,1,.61,0Z"/><path class="cls-2" d="M148.82,158.74c.72,2.19,1.52,4.36,2.14,6.57a14.9,14.9,0,0,1,.93,5c-.4,4.5-4.64,7.9-9.56,8a9.76,9.76,0,0,1-9.83-7.67,13.16,13.16,0,0,1,.14-6.39c.59-2.08,1.72-2.9,3.94-2.86.74,0,1.48.14,2.22.2C143.15,162,145.6,161.25,148.82,158.74Z"/><path class="cls-2" d="M147.87,99c5.26,0,8.6,4.27,7.21,9.18-1.64,5.82-8.47,10.13-14.58,9.22-4.08-.61-6.31-3.63-5.56-7.56C136,104.34,142.37,99,147.87,99Z"/><path class="cls-2" d="M162.39,166.28c-5.18,0-9.25-3.68-9-8.28a11.2,11.2,0,0,1,2.43-6.39,1.4,1.4,0,0,1,1.78-.58,16.24,16.24,0,0,0,13.95-1.72c1.39-.85,1.46-.87,2.43.44a7.85,7.85,0,0,1,1.06,7A12.82,12.82,0,0,1,162.39,166.28Z"/><path class="cls-2" d="M79.14,150.27c0,4.2,1.2,7.65,4.65,10.49a41.94,41.94,0,0,1-3.74,5.3c-3.21,3.38-8.47,2.7-11.35-1.37a10.25,10.25,0,0,1-.86-11.09,3.09,3.09,0,0,1,3.47-2A12.64,12.64,0,0,0,79.14,150.27Z"/><path class="cls-2" d="M175.69,127.19a14.71,14.71,0,0,0,5.92-7.74,13.29,13.29,0,0,0,.3-7.65,13.32,13.32,0,0,1-.32-1.39c-.21-1.41.16-1.81,1.63-1.82,6.35-.06,10.1,4.07,9.32,10.24-.69,5.4-3.87,9.43-8.48,10.28a17.11,17.11,0,0,1-5.62-.08C177.51,128.88,176.71,127.91,175.69,127.19Z"/><path class="cls-2" d="M152,120.47c1,7.67-5.56,13.72-13.58,12.61a11,11,0,0,1-5.47-2,6,6,0,0,1-2.31-6.49,11.67,11.67,0,0,1,2.53-4.82C138.5,124.21,144.61,124.45,152,120.47Z"/><path class="cls-2" d="M155.57,169.53c5.73-.1,9.77,4.68,8.55,10.11a10,10,0,0,1-2.64,5.17c-2.22,2.17-5.06,2.28-7.93,2.24a6.84,6.84,0,0,1-4.75-1.72,6.71,6.71,0,0,1-1.54-2.23,1.79,1.79,0,0,1,.94-2.46,15.07,15.07,0,0,0,7.15-9.49A14.66,14.66,0,0,0,155.57,169.53Z"/><path class="cls-2" d="M76.39,122.78c-2.8-.69-5.29-.06-7.77.76a1.34,1.34,0,0,1-1.17-.32,9.71,9.71,0,0,1-1.81-3c-.88-3.58-.46-7.09,2.2-9.86a13,13,0,0,1,11.4-3.93,2.07,2.07,0,0,1,.79.31c1.42.81,2.82,1.64,4.38,2.55C78.36,111.82,75.65,116.24,76.39,122.78Z"/><path class="cls-2" d="M91.91,184.8c5.89,4,10.86,2,15.78-1.9-.26,3.08.81,5.68,1.91,8.28a1.17,1.17,0,0,1-.06.88c-1.45,3-5.73,5.47-9.14,4.94a8.4,8.4,0,0,1-3.86-1.65A11.84,11.84,0,0,1,91.91,184.8Z"/><path class="cls-2" d="M81.71,172.4l2.56,5.7c1.19,2.67.52,4.43-2.24,5.6-3.34,1.42-6.67,1.9-9.8-.51a6.47,6.47,0,0,1-1.38-8.82,1.54,1.54,0,0,1,1.22-.6,11.65,11.65,0,0,0,9.06-1.15c.15-.07.29-.15.44-.21S81.73,172.39,81.71,172.4Z"/><path class="cls-2" d="M130.55,195c6.23-5.31,6.89-6.17,8.47-10.85l5.06-1.09a8.78,8.78,0,0,0,4.17,7.34c-2.14,3.51-4.71,6.47-9.08,7.26A8.94,8.94,0,0,1,130.55,195Z"/><path class="cls-2" d="M175.36,145.41c4.09-4.54,4.77-7.66,2.79-13,2.47,1.24,4.89.87,7.33.54,2.65-.36,4.07.72,4.14,4.15.1,4.1-4,8.75-8.16,9.54A9.32,9.32,0,0,1,175.36,145.41Z"/><path class="cls-2" d="M129.44,195.46a12,12,0,0,1,0,1.7c-.43,2.7-5.2,6.9-8.66,7.16a9.11,9.11,0,0,1-9-4.8,5.45,5.45,0,0,1-.26-4.4c.19-.57.46-1,1.26-.53a17.1,17.1,0,0,0,16.16.95A3.69,3.69,0,0,1,129.44,195.46Z"/><path class="cls-2" d="M178.42,152c2.83,2.09,4.75,4.79,4.62,8.23-.19,4.76-2.71,8.38-7.09,10.59-3,1.53-6,1-9.11-.72a16.26,16.26,0,0,0,9.94-6.69C179.26,159.94,179,156,178.42,152Z"/><path class="cls-2" d="M78.47,188.48c4-.35,7.26-2.12,10.37-3.84,0,2-.11,4.07,0,6.14a10,10,0,0,0,1,3.17c.32.74.09,1.07-.55,1.42-2.65,1.46-6.81.55-9.06-2A7.33,7.33,0,0,1,78.47,188.48Z"/><path class="cls-2" d="M110.54,204.26c-6.43,3.94-14.68,2.63-17.49-4.37a13.75,13.75,0,0,0,7.92,1.46,18.79,18.79,0,0,0,7.61-2.17C109.21,200.82,109.86,202.48,110.54,204.26Z"/><path class="cls-3" d="M186.75,110.45c-2.35-2.51-5.42-3.84-8.24-5.55-1.17-.71-1.8.18-2.28.95-1.7,2.7-3.35,5.45-5,8.19-.48.81-1,1.7-2,1.57s-1.05-1.18-1.4-1.89c-2.55-5.3-5.11-10.6-7.63-15.91-1.72-3.63-1.76-3.61-5.36-2.7-2,.5-4.16.7-6.24,1a11.37,11.37,0,0,0-4.9.65c-3.34.45-6.67.88-10,1.37-.71.1-1.46.34-2-.28s-.19-1.49,0-2.22c.8-2.5,2.33-4.66,2.76-7.33A9.46,9.46,0,0,0,136,84.72c.2-.87-.25-.68-.71-.54-1.82-1.06-3.6-.43-5.35-.31-5.94.4-11.94.49-17.8,1.36-.59.09-1.4.16-1.66-.65-.32-1,.54-1.37,1.13-1.78q6.65-4.65,13.34-9.22c2.44-1.66,2.48-2-.13-4-1.5-1.18-3.08-2.24-4.62-3.35-2.08-2.3-4.94-3.65-7.25-6.37,4.44.63,8.58,1.15,12.72,1.82,5.63.9,11.34,1,16.86,3.22a25.56,25.56,0,0,1,7.29,4.64c2.19,1.89,4.93,3.12,7.43,4.63a1.9,1.9,0,0,0,1.82,0c4.58-1.74,8.38-4.43,10.75-8.78,2.86-5.24,5.6-10.55,8.51-15.76a8.28,8.28,0,0,1,6.53-4.2c.41,0,1.35-.34,1,1.11a68.13,68.13,0,0,1-7.63,17.14,52,52,0,0,0-6.63,18.47,4.17,4.17,0,0,0,1.1,3.43A32.48,32.48,0,0,0,183,95a12.38,12.38,0,0,1,4.36,5.4c2.1,4.15,4.32,8.25,6.49,12.37l-.56.58c-1.47-.88-2.95-1.74-4.39-2.67C188.15,110.21,187.47,109.88,186.75,110.45Z"/></svg>