<svg id="Ebene_1" data-name="Ebene 1" xmlns="http://www.w3.org/2000/svg" viewBox="0 0 255.12 255.12"><defs><style>.cls-1{fill:#2a1710;}.cls-2{opacity:0.38;}.cls-3{fill:#feddaa;}.cls-4{fill:#fad32c;}.cls-5{fill:#e7a500;}.cls-6{fill:#fce773;}</style></defs><title>Vanille</title><path class="cls-1" d="M182.64,137c17.7,4,34.47,9.45,52.13,12.88-.85.24-1.5.48-2.16.61a96,96,0,0,1-20.4,1.2c-7.78-.21-15.53-.71-23.29-1.13a1.61,1.61,0,0,1-1.16-.69,32.27,32.27,0,0,0-6-8.31c-.49-.44-.58-.91.08-1.38C182.93,139.43,183.79,138.63,182.64,137Z"/><path class="cls-1" d="M180.43,131.78c.48-.39,1.22-1,1.91-1.56,1.79-1.55,3.54-3.13,5.33-4.65a2.49,2.49,0,0,1,1.42-.69c11.58.61,23.16,1.28,34.73,1.94a.66.66,0,0,1,.52.32c-.36.16-.72.33-1.09.47a147.7,147.7,0,0,1-29.31,7c-3.71.53-7.44.86-11.16,1.34-.91.12-1.27-.17-1.44-1.06S180.8,133,180.43,131.78Z"/><path class="cls-1" d="M23.32,97c-.6,4.7.83,7.32,5.39,8.75a93.42,93.42,0,0,0,10.84,2.41c6,1.11,12.09,2.08,18.14,3.1a14,14,0,0,0,1.48.11c-2.92-1.64-5.61-3.07-8.22-4.63-4.08-2.44-8.12-4.94-11.33-8.57a16,16,0,0,1-4.06-7.46,11.82,11.82,0,0,1,6.88-12.58c-.31.52-.53.85-.73,1.2a34.52,34.52,0,0,0-1.9,3.4A6.93,6.93,0,0,0,42,91.32c3,2.57,6.66,4,10.36,5.21,13.12,4.45,26.57,7.88,40.11,11,11.55,2.68,23.18,5.07,34.77,7.59a1.92,1.92,0,0,1,1.07.57c-.9.34-1.82.65-2.72,1a27.63,27.63,0,0,1-11.29,2,29.21,29.21,0,0,0-13.64,2.57c-2.8,1.35-2.8,1.48-1.25,4a43,43,0,0,0,10.58,12.17,10.58,10.58,0,0,1,.93,1c-.79-.12-1.22-.15-1.63-.25-15.32-3.44-30.5-7.3-45.44-12C52.43,122.78,41.15,119,30.39,114c-3.79-1.77-7.28-3.95-9.28-7.92a5.61,5.61,0,0,1-.76-3A21,21,0,0,1,23.32,97Z"/><g class="cls-2"><path class="cls-3" d="M81.14,109.14c1.3,0,2.61.09,3.91.17s2.6.21,3.9.34c2.59.31,5.18.69,7.72,1.17s5.07,1,7.57,1.49c1.25.28,2.48.61,3.72.91l3.72.91q3.72.91,7.45,1.77l3.73.85,3.75.8c2.49.52,5,1,7.5,1.5l7.51,1.4c10,1.82,20,3.7,30.09,5.1,5,.69,10.12,1.29,15.22,1.76,2.55.23,5.11.46,7.69.63s5.15.33,7.75.5v.63A137.94,137.94,0,0,1,170.85,131c-5.23-.24-10.42-.74-15.58-1.41S145,127.92,140,126.79l-3.76-.88c-1.25-.31-2.5-.61-3.75-.94q-3.74-1-7.45-2c-5-1.36-9.9-2.72-14.82-4.13-2.46-.71-4.92-1.4-7.36-2.16S98,115,95.62,114.16L92,112.91c-1.2-.4-2.41-.78-3.62-1.15s-2.44-.72-3.67-1-2.47-.65-3.72-1Z"/></g><g class="cls-2"><path class="cls-3" d="M34.91,110.91c1.3,0,2.61.09,3.91.17s2.6.21,3.9.34c2.59.31,5.18.69,7.72,1.17s5.07,1,7.57,1.49c1.25.28,2.48.61,3.72.91l3.72.91q3.72.91,7.45,1.77l3.73.85,3.74.8q3.75.78,7.51,1.5l7.51,1.4c10,1.81,20,3.69,30.09,5.09q7.56,1,15.22,1.77c2.55.22,5.11.46,7.68.63s5.16.32,7.75.5v.63a137.86,137.86,0,0,1-31.5,1.88c-5.23-.24-10.42-.74-15.58-1.42s-10.25-1.61-15.29-2.74L90,127.68l-3.74-.94q-3.73-1-7.46-2-7.43-2-14.81-4.13c-2.46-.71-4.92-1.4-7.37-2.16s-4.82-1.71-7.21-2.55c-1.2-.43-2.39-.84-3.59-1.25s-2.41-.78-3.62-1.15-2.44-.72-3.67-1-2.48-.65-3.72-.95Z"/></g><g class="cls-2"><path class="cls-3" d="M40.54,93.78c3.08,1.53,6.16,3,9.3,4.29l2.35,1,2.37.91,2.37.87,2.39.82c.8.26,1.62.48,2.43.7l2.47.57a24.71,24.71,0,0,1,2.42.67,20,20,0,0,1,2.33.9c.77.32,1.53.67,2.29,1.06s1.52.75,2.26,1.19,1.51.86,2.25,1.36A18,18,0,0,1,78,109.7l-.16.63a19.56,19.56,0,0,1-2.84.57c-.93.1-1.86.15-2.78.17s-1.82-.06-2.72-.13-1.78-.23-2.66-.39a24.72,24.72,0,0,1-2.56-.68c-.83-.3-1.64-.65-2.44-1l-2.33-1.25c-.77-.43-1.54-.86-2.32-1.25l-2.31-1.25-2.26-1.32-2.21-1.4-2.16-1.48a75.08,75.08,0,0,1-8.06-6.58Z"/></g><g class="cls-2"><path class="cls-3" d="M214,149.86c-3.36-.82-6.71-1.58-10.09-2.15l-2.53-.41-2.53-.37-2.54-.33-2.53-.29c-.85-.07-1.7-.11-2.56-.15l-2.57,0a23.56,23.56,0,0,1-2.53-.12,21.23,21.23,0,0,1-2.5-.37c-.83-.14-1.66-.32-2.49-.53s-1.65-.4-2.49-.66-1.66-.51-2.5-.83a19,19,0,0,1-2.53-1.1l0-.64a20.45,20.45,0,0,1,2.71-1.16c.91-.3,1.82-.54,2.73-.75s1.82-.33,2.73-.45,1.81-.16,2.72-.2a24.1,24.1,0,0,1,2.69.11,26.16,26.16,0,0,1,2.62.47l2.57.71c.85.25,1.7.5,2.55.71l2.55.7,2.51.79,2.47.88,2.44,1a74.1,74.1,0,0,1,9.32,4.62Z"/></g><path class="cls-4" d="M181.85,139.77c2.77,2.44,4.64,5.61,6.49,8.81,5,8.57,5.34,18.1,3.64,28.1a24.28,24.28,0,0,0-.43,2.79c-.07,1.68-.83,1.86-2.1,1.91-8,.32-15.35-1.61-21.51-6.44-2.55-2-5.14-3.88-7.83-5.68-.92-.61-2-.77-3-1.28-4-2.14-7.1-5.07-8.41-10.12-.9,2.48-1.63,4.56-2.58,6.6-2.16,4.61-5.34,7.92-10,9.23-8.76,2.43-17.64,3.06-26.52,3.5-1,0-1.55-.24-1.31-1.55,1.35-7.32,3.16-14.45,6.71-21.24a51.77,51.77,0,0,1,8-10.65c-4.66-1.2-9.18-2.56-12.91-5.43-4.18-3.22-8.32-6.58-11.23-11.21-1-1.61-2-3.21-3.08-4.78-.6-.89-.73-1.37.53-2.08a25,25,0,0,1,9.16-3.07,37.16,37.16,0,0,1,8-.5c3.57.27,7-.9,10.43-2.21a17.22,17.22,0,0,1,4.81-1.49c-1.48-4.74-1.14-9.66-.23-14.6s2.9-10,2.64-15.25a7.78,7.78,0,0,0-1.66-4.91,2.86,2.86,0,0,1-.39-3.45,2.68,2.68,0,0,1,3.16-.92,25,25,0,0,1,9.6,5.38c1.74,1.44,3.83,2.35,5.41,4.1,5.61,6.22,9.57,13.46,8.91,23.8,1.63-1,2.56-2.62,3.81-3.84,5-4.91,10.63-8.78,17.31-10.38,4.63-1.1,9.31-1,13.95-1.1,3.71-.06,7.45-.12,11,.92,1.47.42,2,1,1.91,2.81a44.34,44.34,0,0,1-5.25,18.19c-3.15,5.94-7.73,10.29-12.72,14.37-1,.78-1.9,1.59-2.84,2.38-.78.33-.87,1-1,1.73-.39,1.87-.47,3.75-2,5.42-1,1.09-2.56,2.45-1.83,4.42.1.26-.15.28-.34.28-1.93-.09-1.9,1.06-1.42,2.37-.7.31-1.11-.7-1.73-.13-.21.8.84,1.07.6,1.81-1,.24-1.28-1.12-2.25-.95-.39,1.21.93,1.75.67,2.86-.76-.16-.78-1-1.26-1.3-1.83-1.19-.29,1.19-1.29,1.07l-.27-.14c-.47-.28-.59-1.34-1.37-.82s-.14,1.16-.08,1.76.39,1.14-.33,1.29c-.56.11-1.42.53-1.68-.51s-.75-1.24-1.56-.4c-.24.25-.55.48-.81.23-1.05-1-1.66-.14-2.22.91-1.3-3.11-1.36.38-2.06.39-.53-.73.46-2-.6-2.41s-1.4,1-2.15,1.55c-.15-.89.53-1.76-.32-2.43-1.08-.84-1.62.66-2.51.7.06-.87,1.29-1.69.63-2.33-.93-.9-1.29,1.14-2.23,1-.17-.82.73-1.29.61-2l-2.42-.31c.28-1,1.35-1.63.64-2.74s-1.57-.5-2.44-.18c-.59.21-.86-.32-1.24-.58v0c.31-.34.6-.69.94-1s1.08-.65.77-1.38-.79-.69-1.41-.53c-.26.07-.61.29-.69-.26.45-.63,1.54-.82,1.38-1.94s-1.29-.93-2.6-1.19c2.53-.93,2-2.59,2.06-4.07,0-.46,0-1-.53-1.06s-.79.56-.92,1c-1.06,4.31-1.6,8.33,1.37,12.06,1.28,1.6,2.94,3,3.79,5.16.47,1.16,1.91,1.91,2.32,3.36.12.4.55.37.95.34,2-.14,3.76,1.07,5.83.59.21-.05.53.27.72.49a1.08,1.08,0,0,0,1.33.29c1.27-.45,2.67.47,3.92-.75.19-.18,1,.08,1.34.35a6.43,6.43,0,0,1,2.59,4.1,27.69,27.69,0,0,0,.93,3.85c.28.91,1,1.3,1.53.17s1.19-.81,1.78-.36c1.92,1.47,4.24,2,6.52,2.63a2.06,2.06,0,0,1,1.75,1.83c.13.72.06,2,1.14,1.7s.22-1.34.22-2a6,6,0,0,0-.15-.93c-.12-.64-.09-1.12.73-1.27,1.86-.35,2.06-1.73,1.92-3.26a12.6,12.6,0,0,0-1.61-4.16c-1.67-3.65-3.28-7.39-6.22-10.14-1.73-1.63-1.81-1.56-.11-3.64A16.14,16.14,0,0,1,181.85,139.77Zm-65.91,32c2.46.07,4.74-1,7.06-1.81a.77.77,0,0,0,.59-.89c-.11-.5-.49-.5-.87-.34-2.28,1-4.7,1.52-6.78,3.05l-.12,0Zm25.55-54.48,0,.12,0-.11a4,4,0,0,0-.24-3.17c-.72-2,0-3.76.63-5.6.16-.48.39-1.12.94-1.16s.58.68.68,1.14c.18.86.3,1.75.43,2.62.05.36-.1.88.35,1s.69-.48.9-.86a2.8,2.8,0,0,0,.29-1.89c-.27-1.5-.52-3-.9-4.46a42,42,0,0,1-1.63-8.44A20,20,0,0,0,136.2,82c-.56-.49-1.21-1.33-2-.79s-.28,1.44-.13,2.13a31.66,31.66,0,0,1-.3,12.26c-.83,4.37-1.05,8.59.21,12.69.69,2.23,1.52,4.64,4,5.14a3.2,3.2,0,0,1,2.59,2.12A16.81,16.81,0,0,0,141.49,117.29Zm43.83-11.52c-.79-.42-1.57.07-2.36.19-.48.07-1.13-.2-.63-.6,1.47-1.19,1.38-4,4-4,.82,0,2.44-.69.49-1.76-.36-.2-.4-.57-.41-1,0-3-.69-3.71-3.56-3.36A32,32,0,0,0,164.29,104c-1.91,1.82-4,3.57-4.8,6.33-.1.38-.29.86-.75.71-1.41-.47-1.64.62-2.09,1.59-.3.65-.81,1.9-1.55,1.25-1.39-1.21-1.71-.18-2.27.87-.13.25-.49.41-.77.57-1.51.86-1.29,3-2.82,3.85.46,1,.13,1.63-.57,2.5-.38.47.17,1.49.9,1.79s1.4-.46,1.23-.8c-.71-1.38.63-2,1.08-2.81a11.46,11.46,0,0,1,2.57-3.07c1.2-1,2.85-1.53,4.06-2.73.2-.21.53-.32.66-.11,1.38,2.17,1.76.28,2.21-.81.83.24.37,1.84,1.47,1.39.78-.33.29-1.28.43-1.94.07-.3-.06-.65.36-.87.92.23,0,1.93,1.24,1.89s.45-1.4,1.35-1.8c0,1.32.77,1.45,1.89,1.4.65,0,1.5.76,1.82-.3s-.91-.67-1.4-1c-.09-.06-.14-.18-.35-.47a16.2,16.2,0,0,1,6.81-1.3c-.42,1.25-1.63,1.5-2.17,2.51.75.44,1.55.72,2.26.14,3.23-2.66,6.86-4.62,10.22-7l.13,0Zm-83.89,18.91-.27.23c.35.39.72.77,1.06,1.17,2.82,3.29,6.65,5.33,9.77,8.29a33.31,33.31,0,0,0,12.58,7.37,2.14,2.14,0,0,0,1.93-.41,29.35,29.35,0,0,1,10.24-4.12c.36-.07.73-.06,1-.43,1.23-1.63.75-5.34-.91-6.48a17.49,17.49,0,0,0-7.38-3c-6.91-1-14-.61-21-.5a.39.39,0,0,0-.19,0c-1.93,1.23-3.27,0-4.69-.86ZM136,143.91a2.84,2.84,0,0,0-2.39.4c-.69.31-1.36.5-1.65-.44-.52-1.69-1.74-1.51-3-.88a17.26,17.26,0,0,0-2.9,1.94A37.33,37.33,0,0,0,115.9,157.2c-1.33,2.6-2.34,5.16-2.08,8,.17,1.76.82,3.47-.7,5.18a33.88,33.88,0,0,0,3-2.34c.64-.52,1.15-1.27,2.09-1.25,2.83,0,5.12-2.11,7.81-2.68.09,0,.15-.31.23-.46-.49-.57-.94.05-1.38.06-.79,0-.83-.5,0-1.48,2.33-2.65,3.73-6.08,6.61-8.27a1.68,1.68,0,0,0,.36-.47c.26-.4.47-.85.16-1.25s-.65-.21-1,0-1.12.48-1-.09c.33-1.49-.29-3.25,1.19-4.47S134.29,145.27,136,143.91Zm58.37-28.51a13.13,13.13,0,0,0,1.42-3c.83-2.58,0-3.78-2.63-3.68a16.17,16.17,0,0,0-4.58,1,5,5,0,0,0-3.6,4c-.46,3.08-1.31,6.1-1.79,9.17-.28,1.75.31,2.13,1.85,1.26C188.82,122,191.67,118.78,194.38,115.4Zm-26.82,29.12c1.67.26,3.58,1,4.76-.66,1.35-1.86,2.76-3.81,3.08-6.26a15.15,15.15,0,0,0-1-7.26c-1-2.63-2.31-5.09-2.57-8a1.31,1.31,0,0,0-1.3-1.3c-1.09-.13-2.19-.19-3.29-.23-.67,0-.92.47-.78,1a2.31,2.31,0,0,0,1.1,1.64c2.55,1.28,3.89,3.67,5.39,6,2.7,4.23,1.24,8.47-2,12.09A34.9,34.9,0,0,1,167.56,144.52Zm-18.7-18.38a1.34,1.34,0,0,0,1-1.48.35.35,0,0,0-.58-.21A1.23,1.23,0,0,0,148.86,126.14Z"/><path class="cls-5" d="M169,144.5a38,38,0,0,0,3.57-3.12c3.45-3.85,5-8.35,2.12-12.85-1.59-2.5-3-5-5.73-6.39a2.46,2.46,0,0,1-1.16-1.75c-.15-.61.11-1.13.82-1.11,1.17,0,2.35.12,3.51.24a1.4,1.4,0,0,1,1.37,1.4c.28,3.09,1.71,5.71,2.73,8.51a16,16,0,0,1,1.1,7.72c-.34,2.6-1.84,4.67-3.27,6.65C172.84,145.54,170.81,144.78,169,144.5Z"/><path class="cls-5" d="M114.16,173.48c2.21-1.63,4.79-2.2,7.21-3.24.41-.18.81-.17.93.35a.85.85,0,0,1-.63,1c-2.46.87-4.89,2-7.51,1.91Z"/><path class="cls-4" d="M181.83,139.64c-.41.41-.87.78-1.24,1.23-1.7,2.08-1.63,2,.11,3.64,2.94,2.75,4.54,6.49,6.22,10.14a13,13,0,0,1,1.61,4.16c.14,1.53-.07,2.91-1.92,3.25-.82.16-.85.64-.74,1.27a5.11,5.11,0,0,1,.15.94c0,.71.73,1.75-.22,2s-1-1-1.13-1.71a2.07,2.07,0,0,0-1.75-1.82c-2.29-.6-4.61-1.16-6.53-2.63-.59-.45-1.19-.8-1.78.36s-1.24.74-1.53-.17a30.86,30.86,0,0,1-.93-3.85,6.39,6.39,0,0,0-2.58-4.1c-.35-.28-1.15-.54-1.34-.35-1.25,1.22-2.65.3-3.93.75a1.07,1.07,0,0,1-1.32-.29c-.2-.22-.51-.54-.72-.49-2.07.48-3.85-.73-5.84-.59-.4,0-.83.06-.94-.34-.42-1.45-1.86-2.2-2.32-3.36-.85-2.14-2.52-3.56-3.79-5.16-3-3.73-2.43-7.75-1.37-12.06.12-.49.24-1.12.92-1s.54.6.52,1c0,1.48.48,3.15-2.05,4.08,1.3.25,2.42-.07,2.59,1.19s-.93,1.3-1.38,1.94c.08.55.43.33.7.26.61-.16,1.15-.06,1.4.53s-.35,1-.77,1.38-.62.66-.93,1l-.13,0,.13,0c.38.26.65.79,1.25.57.87-.31,1.71-.94,2.44.19s-.37,1.77-.64,2.74l2.42.31c.11.74-.79,1.21-.62,2,.94.11,1.3-1.93,2.23-1,.66.64-.57,1.45-.63,2.33.9,0,1.44-1.54,2.51-.7.85.67.18,1.54.33,2.43.74-.57,1-2,2.15-1.55s.07,1.67.59,2.41c.7,0,.76-3.5,2.06-.39.57-1.06,1.18-1.9,2.22-.92.27.26.57,0,.81-.22.82-.84,1.32-.61,1.57.4s1.12.62,1.68.5c.72-.14.37-.82.32-1.29s-.63-1.28.08-1.75.9.54,1.37.82l.28.14c1,.12-.54-2.26,1.28-1.07.49.31.5,1.14,1.26,1.3.26-1.11-1.06-1.65-.66-2.86,1-.17,1.21,1.19,2.25.95.23-.74-.82-1-.61-1.81.62-.58,1,.44,1.74.13-.48-1.31-.51-2.46,1.42-2.37.18,0,.44,0,.34-.28-.74-2,.84-3.34,1.83-4.42,1.52-1.68,1.61-3.55,2-5.42.16-.75.24-1.41,1-1.73a3.91,3.91,0,0,1,.62,5.18c-.16.18-.41.51-.36.6C184.6,138.07,182.66,138.6,181.83,139.64Z"/><path class="cls-4" d="M185.31,105.75c-3.36,2.42-7,4.38-10.22,7-.71.58-1.51.3-2.26-.14.54-1,1.75-1.26,2.17-2.51a16.2,16.2,0,0,0-6.81,1.3c.21.29.26.41.35.47.49.36,1.7,0,1.4,1s-1.17.27-1.82.3c-1.12.05-1.85-.08-1.89-1.4-.9.4-.24,1.76-1.35,1.8s-.32-1.66-1.24-1.89c-.42.22-.29.57-.36.87-.14.66.35,1.61-.43,1.94-1.1.45-.64-1.15-1.47-1.39-.45,1.09-.83,3-2.21.81-.13-.21-.46-.1-.66.11-1.21,1.2-2.86,1.76-4.06,2.73a11.46,11.46,0,0,0-2.57,3.07c-.45.81-1.79,1.43-1.08,2.81.17.34-.6,1.06-1.23.8s-1.28-1.32-.9-1.79c.7-.87,1-1.54.57-2.5,1.53-.84,1.31-3,2.82-3.85.28-.16.64-.32.77-.57.56-1.05.88-2.08,2.27-.87.74.65,1.25-.6,1.55-1.25.45-1,.68-2.06,2.09-1.59.46.15.65-.33.75-.71.78-2.76,2.89-4.51,4.8-6.33a32,32,0,0,1,18.58-8.79c2.87-.35,3.56.32,3.56,3.36,0,.41,0,.78.41,1,1.95,1.07.33,1.75-.49,1.76-2.64,0-2.55,2.82-4,4-.5.4.15.67.63.6.79-.12,1.57-.61,2.36-.19Z"/><path class="cls-4" d="M101.43,124.68l2.15,1.33c1.42.87,2.76,2.09,4.69.86a.39.39,0,0,1,.19,0c7-.11,14.09-.53,21,.5a17.49,17.49,0,0,1,7.38,3c1.66,1.14,2.14,4.85.91,6.48-.28.37-.65.36-1,.43a29.35,29.35,0,0,0-10.24,4.12,2.14,2.14,0,0,1-1.93.41A33.31,33.31,0,0,1,112,134.37c-3.12-3-6.95-5-9.77-8.29-.34-.4-.71-.78-1.06-1.17Z"/><path class="cls-4" d="M141.49,117.29a16.81,16.81,0,0,1-1-1.75,3.2,3.2,0,0,0-2.59-2.12c-2.45-.5-3.28-2.91-4-5.14-1.26-4.1-1-8.32-.21-12.69a31.66,31.66,0,0,0,.3-12.26c-.15-.69-.69-1.61.13-2.13s1.49.3,2,.79a20,20,0,0,1,6.72,14.45,42,42,0,0,0,1.63,8.44c.38,1.46.63,3,.9,4.46a2.8,2.8,0,0,1-.29,1.89c-.21.38-.35,1-.9.86s-.3-.6-.35-1c-.13-.87-.25-1.76-.43-2.62-.1-.46,0-1.18-.68-1.14s-.78.68-.94,1.16c-.61,1.84-1.35,3.64-.63,5.6a4,4,0,0,1,.24,3.17Z"/><path class="cls-4" d="M194.38,115.4c-2.71,3.38-5.56,6.62-9.33,8.77-1.54.87-2.13.49-1.85-1.26.48-3.07,1.33-6.09,1.79-9.17a5,5,0,0,1,3.6-4,16.17,16.17,0,0,1,4.58-1c2.6-.1,3.46,1.1,2.63,3.68A13.13,13.13,0,0,1,194.38,115.4Z"/><path class="cls-4" d="M167.56,144.52a34.9,34.9,0,0,0,3.36-2.93c3.24-3.62,4.7-7.86,2-12.09-1.5-2.35-2.84-4.74-5.39-6a2.31,2.31,0,0,1-1.1-1.64c-.14-.57.11-1.06.78-1,1.1,0,2.2.1,3.29.23a1.31,1.31,0,0,1,1.3,1.3c.26,2.92,1.61,5.38,2.57,8a15.15,15.15,0,0,1,1,7.26c-.32,2.45-1.73,4.4-3.08,6.26C171.14,145.5,169.23,144.78,167.56,144.52Z"/><path class="cls-4" d="M115.94,171.78c2.08-1.53,4.5-2.07,6.78-3.05.38-.16.76-.16.87.34a.77.77,0,0,1-.59.89c-2.32.82-4.6,1.88-7.06,1.81Z"/><path class="cls-4" d="M148.86,126.14a1.23,1.23,0,0,1,.38-1.69.35.35,0,0,1,.58.21A1.34,1.34,0,0,1,148.86,126.14Z"/><polygon class="cls-6" points="185.32 105.77 185.44 105.72 185.31 105.75 185.32 105.77"/><polygon class="cls-6" points="141.47 117.3 141.51 117.41 141.49 117.29 141.47 117.3"/><polygon class="cls-6" points="115.94 171.77 115.82 171.81 115.94 171.78 115.94 171.77"/><polygon class="cls-4" points="149.02 141.04 148.89 141.06 149.01 141.02 149.02 141.04"/><path class="cls-4" d="M163.76,141c-1.31-1-2.33-.09-3.42.45-1.77-1.27-3.53-2.58-5.33-3.82a2.19,2.19,0,0,1-1.14-2.27,8.58,8.58,0,0,0-.74-3.35c-1-2.58,1-6,3.75-6.3a7.94,7.94,0,0,0,1.77-.21A20.93,20.93,0,0,0,161,124.3c.54,1.88.95,2,3.34,1a8.4,8.4,0,0,0-.9,2.68c0,1.35,1.3,1.2,2.16,1.06-.49.66-1.31,1.31-1.32,1.9,0,1.57,1.65,1,2.56,1.65-.26.12-.43.2-.59.29-.46.25-1.27.5-1.3.78a4.1,4.1,0,0,0,.3,2.27,11.91,11.91,0,0,0,2,2.11,4.8,4.8,0,0,1-.52-.11l-2.13-.71c-.28,1-.57,2.08-.84,3.13A3.45,3.45,0,0,0,163.76,141Z"/><path class="cls-5" d="M191.82,105.52c-3.58,2.57-7.44,4.66-10.87,7.49-.76.62-1.61.31-2.4-.15.57-1.08,1.85-1.34,2.31-2.67a17.23,17.23,0,0,0-7.24,1.38c.22.31.27.44.37.51.51.37,1.8,0,1.48,1.08s-1.24.29-1.93.32c-1.19.06-2-.08-2-1.48-.95.42-.26,1.87-1.44,1.91s-.34-1.76-1.32-2c-.45.23-.3.6-.37.92-.16.71.37,1.72-.46,2.07-1.17.48-.68-1.22-1.57-1.48-.47,1.16-.87,3.17-2.34.86-.14-.22-.49-.1-.71.12-1.29,1.28-3,1.87-4.31,2.9a12.06,12.06,0,0,0-2.74,3.26c-.47.87-1.9,1.53-1.15,3,.19.36-.63,1.13-1.3.85s-1.37-1.4-1-1.9c.75-.92,1.1-1.64.61-2.66,1.62-.89,1.39-3.18,3-4.1a2,2,0,0,0,.82-.6c.59-1.11.93-2.21,2.41-.92.79.68,1.33-.64,1.65-1.33.48-1,.72-2.19,2.22-1.69.49.16.68-.35.8-.75.82-2.94,3.07-4.8,5.1-6.74a34,34,0,0,1,19.75-9.34c3.05-.38,3.78.34,3.79,3.57,0,.44,0,.83.42,1,2.08,1.14.36,1.87-.51,1.88-2.81,0-2.71,3-4.28,4.25-.53.43.16.72.67.65.84-.13,1.67-.65,2.51-.21Z"/><path class="cls-5" d="M98.74,123.4l2.29,1.42c1.51.93,2.93,2.23,5,.92,0,0,.13,0,.2,0,7.47-.12,15-.57,22.33.52a18.59,18.59,0,0,1,7.84,3.14c1.76,1.22,2.28,5.16,1,6.89-.29.39-.69.38-1.08.46a31,31,0,0,0-10.88,4.38,2.26,2.26,0,0,1-2,.43A35.27,35.27,0,0,1,110,133.71c-3.32-3.15-7.39-5.31-10.39-8.81-.36-.43-.75-.83-1.13-1.24Z"/><path class="cls-5" d="M141.32,115.56a20.2,20.2,0,0,1-1.06-1.86,3.4,3.4,0,0,0-2.76-2.26c-2.59-.54-3.48-3.1-4.21-5.46-1.34-4.36-1.1-8.84-.23-13.49a33.32,33.32,0,0,0,.32-13c-.15-.73-.72-1.7.14-2.26s1.58.32,2.18.84a21.23,21.23,0,0,1,7.14,15.36,45.9,45.9,0,0,0,1.74,9c.4,1.55.67,3.14.95,4.73a3,3,0,0,1-.3,2c-.23.4-.38,1-1,.92s-.32-.64-.38-1c-.13-.93-.26-1.87-.45-2.79-.1-.48,0-1.26-.73-1.21s-.82.72-1,1.23c-.66,2-1.44,3.87-.67,6a4.27,4.27,0,0,1,.25,3.36Z"/><path class="cls-5" d="M197.54,113.55c-2.88,3.59-5.91,7-9.91,9.31-1.64.94-2.26.53-2-1.33.52-3.26,1.41-6.47,1.91-9.75a5.33,5.33,0,0,1,3.82-4.28,17.19,17.19,0,0,1,4.87-1.1c2.77-.1,3.68,1.17,2.8,3.91A14.48,14.48,0,0,1,197.54,113.55Z"/><path class="cls-5" d="M165.65,140.79c-1.32-1-2.34-.09-3.43.45-1.77-1.27-3.53-2.58-5.33-3.82a2.22,2.22,0,0,1-1.14-2.27,8.24,8.24,0,0,0-.74-3.35c-.95-2.58,1-6,3.76-6.31a6.84,6.84,0,0,0,1.76-.21,20.21,20.21,0,0,0,2.36-1.21c.54,1.88,1,2,3.34,1a7.94,7.94,0,0,0-.9,2.68c0,1.34,1.29,1.19,2.16,1.06-.49.66-1.32,1.3-1.33,1.89,0,1.58,1.66,1,2.57,1.66-.26.12-.43.19-.6.29-.45.25-1.26.5-1.3.78a4,4,0,0,0,.31,2.27,11.45,11.45,0,0,0,2,2.11,4.31,4.31,0,0,1-.51-.11l-2.14-.71c-.28,1-.56,2.08-.83,3.13A2.87,2.87,0,0,0,165.65,140.79Z"/><path class="cls-5" d="M182.54,139.52a16.32,16.32,0,0,0-1.32,1.31c-1.81,2.21-1.73,2.14.12,3.87,3.12,2.92,4.83,6.89,6.61,10.78.65,1.42,1.56,2.75,1.71,4.42s-.07,3.09-2,3.46c-.87.16-.91.68-.78,1.35a5.67,5.67,0,0,1,.16,1c0,.76.77,1.86-.24,2.18s-1.07-1-1.2-1.81a2.2,2.2,0,0,0-1.86-1.94c-2.44-.64-4.9-1.24-6.94-2.8-.63-.48-1.27-.85-1.89.38s-1.33.79-1.63-.18a31.11,31.11,0,0,1-1-4.08,6.83,6.83,0,0,0-2.74-4.37c-.38-.29-1.23-.56-1.43-.37-1.33,1.3-2.82.32-4.17.8a1.15,1.15,0,0,1-1.41-.3c-.21-.24-.54-.58-.77-.53-2.2.51-4.08-.77-6.2-.63-.42,0-.88.07-1-.36-.44-1.54-2-2.34-2.47-3.57-.9-2.28-2.67-3.78-4-5.49-3.16-4-2.58-8.23-1.45-12.82.13-.52.26-1.19,1-1.11s.58.64.56,1.12c0,1.57.51,3.35-2.18,4.33,1.39.27,2.57-.07,2.76,1.27s-1,1.38-1.47,2.06c.08.58.45.35.74.28a1.11,1.11,0,0,1,1.49.56c.34.78-.38,1.06-.82,1.47s-.66.7-1,1.06l-.14,0,.14,0c.41.28.69.84,1.33.61.92-.33,1.82-1,2.59.2s-.39,1.88-.68,2.91l2.57.33c.13.79-.83,1.29-.65,2.16,1,.12,1.38-2.05,2.37-1.09.7.67-.61,1.54-.67,2.47.95,0,1.52-1.64,2.67-.74.9.71.18,1.63.35,2.58.79-.61,1.07-2.12,2.28-1.65s.07,1.78.63,2.57c.75,0,.81-3.72,2.19-.42.6-1.12,1.25-2,2.36-1,.28.26.6,0,.87-.24.86-.9,1.39-.65,1.66.42s1.19.66,1.78.54c.77-.16.4-.88.35-1.37s-.68-1.37.08-1.87,1,.58,1.46.87l.29.16c1.06.12-.57-2.41,1.37-1.15.51.34.53,1.22,1.34,1.39.27-1.18-1.13-1.76-.71-3,1-.18,1.29,1.26,2.39,1,.25-.79-.86-1.08-.64-1.93.66-.61,1.09.47,1.84.14-.51-1.39-.54-2.61,1.51-2.52.2,0,.47,0,.36-.3-.78-2.09.9-3.54,1.95-4.69,1.62-1.79,1.71-3.77,2.12-5.77.16-.79.26-1.49,1.08-1.83a4.13,4.13,0,0,1,.66,5.5c-.17.19-.44.55-.39.64C185.48,137.86,183.42,138.41,182.54,139.52Z"/><path class="cls-4" d="M136,143.91c-1.72,1.36-3.26,2.54-4.76,3.77s-.86,3-1.19,4.47c-.13.57.59.34,1,.09s.73-.36,1,0,.1.85-.16,1.25a1.68,1.68,0,0,1-.36.47c-2.88,2.19-4.28,5.62-6.61,8.27-.85,1-.81,1.52,0,1.48.44,0,.89-.63,1.38-.06-.08.15-.14.44-.23.46-2.69.57-5,2.72-7.81,2.68-.94,0-1.45.73-2.09,1.25a33.88,33.88,0,0,1-3,2.34c1.52-1.71.87-3.42.7-5.18-.26-2.83.75-5.39,2.08-8a37.33,37.33,0,0,1,10.19-12.27A17.26,17.26,0,0,1,129,143c1.24-.63,2.46-.81,3,.88.29.94,1,.75,1.65.44A2.84,2.84,0,0,1,136,143.91Z"/><path class="cls-5" d="M135.5,143.85c-1.83,1.45-3.46,2.7-5.06,4s-.91,3.16-1.27,4.75c-.14.6.63.36,1.05.1s.79-.39,1.07,0,.11.9-.17,1.33a1.84,1.84,0,0,1-.38.49c-3.07,2.33-4.56,6-7,8.8-.9,1-.86,1.61,0,1.57.48,0,.95-.67,1.47-.07-.07.16-.14.48-.24.5-2.85.6-5.29,2.88-8.29,2.84-1,0-1.55.78-2.23,1.33a36.72,36.72,0,0,1-3.22,2.49c1.62-1.82.92-3.64.74-5.51-.28-3,.8-5.73,2.21-8.5a39.86,39.86,0,0,1,10.84-13,19.46,19.46,0,0,1,3.08-2.06c1.31-.67,2.61-.86,3.16.94.31,1,1,.79,1.76.46A3,3,0,0,1,135.5,143.85Z"/></svg>