<svg id="Ebene_1" data-name="Ebene 1" xmlns="http://www.w3.org/2000/svg" viewBox="0 0 16 16"><defs><style>.cls-1{fill:#cbbba0;}.cls-2{fill:none;}.cls-3{fill:#432918;}</style></defs><title>favicon</title><rect class="cls-1" x="12.01" y="3.07" width="1.24" height="3.58" transform="translate(21.99 14.64) rotate(-154.78)"/><rect class="cls-1" x="3.13" y="3.38" width="7.73" height="11.63" rx="2.12" transform="translate(9.19 20.53) rotate(-153.71)"/><path class="cls-2" d="M13.85,3.68a.79.79,0,0,1-.13.26C13.57,3.76,13.77,3.74,13.85,3.68Z"/><path class="cls-2" d="M13.85,3.68l0-.07S13.87,3.66,13.85,3.68Z"/><polygon class="cls-2" points="13.72 3.94 13.72 3.94 13.72 3.94 13.72 3.94"/><path class="cls-1" d="M7.87,6.94a.68.68,0,0,0,.23-.3l.49-1a.49.49,0,0,1,.11-.18s0,.07,0,.09C8.48,6,8.25,6.49,8,7a.35.35,0,0,1,0,.08s-.07,0-.11,0S7.81,7,7.87,6.94Z"/><path class="cls-1" d="M8,7.17c.19,0,.24-.19.3-.33l.68-1.41.05,0c-.26.55-.53,1.1-.79,1.66A.38.38,0,0,1,8,7.27s-.09,0-.11,0S7.92,7.18,8,7.17Z"/><path class="cls-1" d="M8.93,4.66c-.37-.11-.68-.36-1-.47A5,5,0,0,1,8.93,4.66Z"/><path class="cls-1" d="M7.25,3.79a.07.07,0,0,1,0-.12.83.83,0,0,0,.28-.39c.07-.13.13-.26.19-.39l.06,0a8.69,8.69,0,0,1-.44.86A.07.07,0,0,1,7.25,3.79Z"/><path class="cls-1" d="M7.23,4c.47-.18.5-.65.74-1-.14.28-.27.57-.41.85S7.42,4,7.23,4Z"/><path class="cls-1" d="M9.86,7.45l.56-1.17a9.09,9.09,0,0,1-.67,1.53.27.27,0,0,1-.07.08.07.07,0,0,1-.1,0,.06.06,0,0,1,0-.09C9.76,7.72,9.8,7.58,9.86,7.45Z"/><path class="cls-1" d="M11.9,2.9a.52.52,0,0,0,.3-.3A1.1,1.1,0,0,1,12,3s-.08,0-.11,0S11.85,2.92,11.9,2.9Z"/><path class="cls-1" d="M11.94,3.14A.54.54,0,0,0,12.23,3c-.07.17-.16.23-.27.24s-.07,0-.07,0A.06.06,0,0,1,11.94,3.14Z"/><path class="cls-1" d="M9.15,4.57s-.05.09-.11.08,0,0-.06-.06,0-.07.07-.09a.77.77,0,0,0,.24-.32c.13-.3.28-.6.42-.9l0,0-.39.82C9.3,4.28,9.23,4.43,9.15,4.57Z"/><path class="cls-1" d="M7.13,3.9c0-.14-.17-.14-.26-.18A3,3,0,0,0,6,3.35c.09-.08.16,0,.23,0a7.37,7.37,0,0,0,.7.3,1.83,1.83,0,0,1,.26.16.07.07,0,0,1,0,.1A.06.06,0,0,1,7.13,3.9Z"/><path class="cls-1" d="M9.13,4.85s-.08,0-.1,0,0-.06.06-.07.24-.17.31-.31.25-.54.38-.81h0l-.48,1A.31.31,0,0,1,9.13,4.85Z"/><path class="cls-1" d="M10.15,2.17s0-.07,0-.1L10.36,2a.41.41,0,0,1-.1.22A.07.07,0,0,1,10.15,2.17Z"/><path class="cls-1" d="M5.69,7.14A.17.17,0,0,1,5.82,7c-.2.55-.5,1-.71,1.57.16,0,.2-.11.25-.2.18-.4.37-.79.57-1.19C6,7.14,6,7.07,6,7A.13.13,0,0,0,6,7.1c-.22.5-.48,1-.68,1.48a.74.74,0,0,1-.15.21.18.18,0,0,1-.22,0c-.11,0-.13-.15-.18-.17A3.89,3.89,0,0,0,3.7,8.2c.08-.09.16,0,.25,0l.84.4s.09.07.14,0a2,2,0,0,0,.25-.35Z"/><path class="cls-1" d="M6.13,6.41s0-.08.07-.09A.57.57,0,0,0,6.5,6c.13-.29.26-.58.41-.86A1,1,0,0,0,7,4.26a.38.38,0,0,0,0-.08c.08.1,0,.21.11.28a.26.26,0,0,1,0,.34A1.14,1.14,0,0,0,7,5c-.19.39-.37.78-.56,1.18a.37.37,0,0,1-.2.24S6.16,6.47,6.13,6.41Z"/><path class="cls-1" d="M5.68,9l.67.32,0,.06-.53-.25-.14-.05s-.05.09-.1,0,0,0,0-.07A.13.13,0,0,1,5.68,9Z"/><path class="cls-1" d="M13.72,3.94s-.1.09-.12,0-.1-.1-.16-.13c-.25-.11-.48-.25-.73-.35a6.14,6.14,0,0,1,1,.46Z"/><path class="cls-1" d="M10.29,8.34s-.08,0-.08,0,.06-.06.1,0a8.37,8.37,0,0,1,1.08.54l-.69-.31A1.07,1.07,0,0,0,10.29,8.34Z"/><path class="cls-1" d="M5.08,5.77l.65.31a1.11,1.11,0,0,1,.37.2,9,9,0,0,0-1.25-.49A.18.18,0,0,1,5.08,5.77Z"/><path class="cls-1" d="M6.8,9.6a.8.8,0,0,0,.34-.41c.21-.46.43-.9.65-1.38a.21.21,0,0,1,0,.18c-.23.51-.46,1-.7,1.52a.35.35,0,0,1-.2.18s-.08.05-.11,0S6.77,9.62,6.8,9.6Z"/><path class="cls-1" d="M7.78,7.07C7.4,7,7.09,6.73,6.72,6.62A4.13,4.13,0,0,1,7.78,7.07Z"/><path class="cls-1" d="M6.92,4.59A12.5,12.5,0,0,1,6.31,6a.75.75,0,0,1-.21.29h0a.19.19,0,0,1,.07-.23.52.52,0,0,0,.12-.17c.17-.34.33-.69.5-1Z"/><path class="cls-1" d="M6.75,9.35a.88.88,0,0,0,.2-.3c.17-.34.33-.69.5-1,0-.06,0-.13.13-.17s0,.08,0,.1l-.66,1.4a.22.22,0,0,1,0,.08.08.08,0,0,1-.11,0S6.71,9.38,6.75,9.35Z"/><path class="cls-1" d="M8.76,11.75c.09.14,0,.37.22.44,0,0,0,0,0,.05s0,.14-.12.25l-.14-.78h0Z"/><path class="cls-1" d="M11.79,3c-.35-.11-.65-.34-1-.45A5.37,5.37,0,0,1,11.79,3Z"/><path class="cls-1" d="M11.8.58,13,1.14l.13.06L11.82.59Z"/><path class="cls-1" d="M6.16,12.25c.06,0,.12,0,.17,0l.92.44s0,.11,0,.13-.13,0-.19-.08.09,0,.15,0c-.31-.18-.63-.31-.94-.46,0,0,0,0,0,0s0,.08,0,0a.1.1,0,0,1,0-.06S6.13,12.26,6.16,12.25Z"/><path class="cls-1" d="M5.74,11.57c.19-.41.39-.82.58-1.22,0,0,0-.13.11-.12v0a15.61,15.61,0,0,1-.76,1.6l0,0c-.1,0-.13,0-.06-.1A1.12,1.12,0,0,0,5.74,11.57Z"/><path class="cls-1" d="M5.89,11.78l.69-1.45c0-.05,0-.12.11-.16a.29.29,0,0,1-.05.21c-.24.52-.49,1-.73,1.54l-.1.15s-.11.1-.18.07,0-.11,0-.16,0-.05,0-.08C5.79,12,5.84,11.88,5.89,11.78Z"/><path class="cls-1" d="M4,10.7c.18-.41.37-.81.56-1.21,0,0,0-.1.08-.1a.07.07,0,0,1,0,.1L4,11a.17.17,0,0,1-.18.1C3.81,10.92,4,10.83,4,10.7Z"/><path class="cls-1" d="M3.55,11.14v0l-.88-.42v0Z"/><path class="cls-1" d="M3.92,11.12c.17,0,.2-.14.26-.25.2-.41.39-.83.59-1.24l.12-.27h0a.17.17,0,0,1,0,.07l-.78,1.69a.27.27,0,0,1-.14.14s-.09.05-.11,0S3.86,11.13,3.92,11.12Z"/><path class="cls-1" d="M5.43,11.86A.11.11,0,0,1,5.5,12s0,0,0,0,0,0-.06,0-.06-.13-.11-.15l-.81-.39,0,0Z"/><path class="cls-1" d="M3.69,11.09l-1.06-.5a5.89,5.89,0,0,1,1.15.5S3.73,11.12,3.69,11.09Z"/><path class="cls-1" d="M11.36,4.88a4.57,4.57,0,0,1-.35.7c-.08.13-.15.14-.33,0C11.14,5.56,11.17,5.16,11.36,4.88Z"/><path class="cls-1" d="M10.17,2.34c0-.07.1-.06.15-.08a.48.48,0,0,0,.11-.08c0,.11,0,.14-.06.16a.17.17,0,0,1-.18,0S10.16,2.35,10.17,2.34Z"/><path class="cls-1" d="M9.7,5.09a.06.06,0,0,1-.08,0,0,0,0,0,1,0-.05.09.09,0,0,1,.1,0l.53.24a.9.9,0,0,1,.39.25L10,5.19A.56.56,0,0,0,9.7,5.09Z"/><path class="cls-1" d="M8.15,11.18l-.67,1.44a.2.2,0,0,1-.22.11A14.69,14.69,0,0,0,8.16,11,.19.19,0,0,1,8.15,11.18Z"/><path class="cls-1" d="M10.84,5.46a.07.07,0,0,1-.11,0s0-.09,0-.11.23-.24.3-.39c.17-.34.34-.69.5-1h0L10.9,5.37A.18.18,0,0,1,10.84,5.46Z"/><path class="cls-1" d="M8,10.19,7.61,10c-.08,0-.16-.11-.27-.05s0,0-.06,0a.07.07,0,0,1,.06-.07.26.26,0,0,1,.17.05l.58.28c.14.07.14.07.28,0h.05c.1,0,.15,0,.18-.1s.16-.32.24-.48l.46-1a.19.19,0,0,1,0,.21l-.69,1.44s-.06.08,0,.12.08,0,.1,0A1.22,1.22,0,0,0,8.91,10c.21-.43.41-.87.62-1.3l0,0-.06.18c-.24.5-.47,1-.7,1.49a.35.35,0,0,0-.05.08.35.35,0,0,1-.28.18c-.07,0-.13-.14-.2-.21S8.2,10.26,8,10.19Z"/><path class="cls-1" d="M7.42,12.79c.16,0,.19-.13.25-.23s.22-.48.33-.71.27-.55.4-.83l0,0a.17.17,0,0,1,0,.07c-.27.58-.54,1.16-.82,1.74A.2.2,0,0,1,7.5,13c-.06,0-.14.08-.18,0A.14.14,0,0,1,7.42,12.79Z"/><path class="cls-1" d="M10.07,7.53l.57-1.2,0,0c-.15.31-.3.62-.44.94s-.18.4-.28.6a.28.28,0,0,1-.43.17C9.88,8,10,7.76,10.07,7.53Z"/><path class="cls-1" d="M8.54,7.51s-.1,0-.08,0,.07,0,.11,0l.95.45v0l-.16-.08A4.79,4.79,0,0,0,8.54,7.51Z"/><path class="cls-3" d="M1.24,12.8a.33.33,0,0,0,.19.16,7.19,7.19,0,0,1,1.06.48c.14.06.2,0,.26-.1.22-.47.45-.95.68-1.42,0,0,0-.14.09-.1s0,.1,0,.14c-.2.44-.42.88-.62,1.33-.05.1-.18.23-.06.31s.11-.15.16-.24c.26-.53.51-1.06.78-1.63a.63.63,0,0,1-.08.34L3,13.51c-.08.16,0,.28.13.29a2.8,2.8,0,0,1,.76.3l.39.2c.08,0,.12,0,.17-.06.26-.46.47-1,.7-1.43,0-.05,0-.13.13-.16a.38.38,0,0,1-.06.24l-.61,1.29a.93.93,0,0,1-.05.1c0,.05,0,.11,0,.13s.08,0,.09-.08c.26-.52.51-1.05.77-1.58l.08-.16a.42.42,0,0,1-.07.31c-.23.49-.47,1-.7,1.46-.07.16,0,.26.14.27a.72.72,0,0,1,.33.11,5.66,5.66,0,0,0,.83.37c.08,0,.11,0,.14,0s.15-.28.22-.42c.17-.36.34-.71.5-1.06,0-.05,0-.11.12-.13a.47.47,0,0,1-.09.31c-.2.44-.41.88-.62,1.33,0,0-.1.1,0,.14s.1-.05.12-.09c.29-.53.54-1.08.8-1.63a.85.85,0,0,1,.07-.15.41.41,0,0,1-.07.31c-.24.51-.48,1-.73,1.52-.07.14,0,.22.11.24a3.52,3.52,0,0,1,.88.35c.32.15.34.16.55-.13s.31-.6.52-.88c0,0,.07-.12,0-.1s.06-.07.05-.08c.08-.17,0,0,.1-.19s.06,0,.11-.14l0-.06A1.55,1.55,0,0,0,9,14c.05-.14,0-.27-.14-.32l.19.05,0-.05c-.36-.16-.69-.39-1.07-.52,0,.09,0,.09.06.15l-.07,0c-.06,0-.15,0-.15-.14s0-.06.08-.06a.31.31,0,0,1,.2.07c.29.15.57.32.89.45.06-.16,0-.31,0-.46h0c.06,0,0,.16.11.15s.08-.11.11-.17c.19-.39.37-.77.55-1.16a.31.31,0,0,1,.15-.18c-.05.24-.19.41-.24.62.15-.36.38-.67.51-1a.09.09,0,0,0-.06-.13l-.89-.41a.28.28,0,0,0-.2,0,0,0,0,0,1-.06,0c0-.06,0-.07.07-.06l.14,0,.8.4c.08.05.12,0,.18,0a6.51,6.51,0,0,0,.39-.74l.44-.92,0,0L10.35,11l.06,0L10.92,10a6.3,6.3,0,0,1,.34-.69c.09-.13.09-.3.18-.43s0,0,0,0h0l-.69-.31a1.07,1.07,0,0,0-.41-.15s-.08,0-.08,0,.06-.06.1,0a7.26,7.26,0,0,1,1.08.54h0a.18.18,0,0,1,0-.2,3.12,3.12,0,0,0,.35-.68L12.24,7l0,0L11.5,8.64l0,0,.51-1a6.27,6.27,0,0,1,.41-.82c.06-.1,0-.22.12-.32s0-.07-.05-.08a4.88,4.88,0,0,0-1.11-.45s0,0,0-.05,0,0,0,0a.39.39,0,0,1,.21.06l.68.32c.17.08.26,0,.35-.14s.33-.67.49-1a.08.08,0,0,1,.06,0l-.57,1.19h0l.74-1.55,0,0-.1.19c0-.15,0-.23-.21-.12a1.1,1.1,0,0,1,.35-.25.39.39,0,0,0,.22-.32c0-.1.08-.14.11-.22l.86-1.8a.36.36,0,0,0,0-.07V2s0,0-.06-.07a12.5,12.5,0,0,1-1.46-.75L11.83.6h0L11.18.28l-.06,0a.5.5,0,0,0-.67.13c-.28.32-.53.68-.81,1a1.18,1.18,0,0,1-.54.44,1.56,1.56,0,0,0-.52.32.92.92,0,0,1-.83.2L6.51,2.14a.28.28,0,0,0-.23.1,3.19,3.19,0,0,0-.72.91L4.69,5,3.34,7.79C3,8.51,2.65,9.24,2.3,10c.09,0,.17-.06.26,0s0,0,0,0c-.4.18-.54.57-.73.92s-.38.8-.58,1.2A.75.75,0,0,0,1.24,12.8ZM12.71,3.48a6.14,6.14,0,0,1,1,.46h0c-.15-.18,0-.2.13-.26l0-.07s0,.05,0,.07a.79.79,0,0,1-.13.26h0s-.1.09-.12,0-.1-.1-.16-.13C13.19,3.72,13,3.58,12.71,3.48ZM5.18,8.24l.51-1.1A.17.17,0,0,1,5.82,7c-.2.55-.5,1-.71,1.57.16,0,.2-.11.25-.2.18-.4.37-.79.57-1.19C6,7.14,6,7.07,6,7A.13.13,0,0,0,6,7.1c-.22.5-.48,1-.68,1.48a.74.74,0,0,1-.15.21.18.18,0,0,1-.22,0c-.11,0-.13-.15-.18-.17A3.89,3.89,0,0,0,3.7,8.2c.08-.09.16,0,.25,0l.84.4s.09.07.14,0A2,2,0,0,0,5.18,8.24ZM5.55,9a.13.13,0,0,1,.13,0l.67.32,0,.06-.53-.25-.14-.05s-.05.09-.1,0S5.53,9.05,5.55,9ZM6.79,4.86l.13-.27A12.5,12.5,0,0,1,6.31,6a.75.75,0,0,1-.21.29h0a9,9,0,0,0-1.25-.49.18.18,0,0,1,.23,0l.65.31a1.11,1.11,0,0,1,.37.2h0a.19.19,0,0,1,.07-.23.52.52,0,0,0,.12-.17C6.46,5.55,6.62,5.2,6.79,4.86Zm0,4.49a.88.88,0,0,0,.2-.3c.17-.34.33-.69.5-1,0-.06,0-.13.13-.17s0,.08,0,.1l-.66,1.4a.22.22,0,0,1,0,.08.08.08,0,0,1-.11,0S6.71,9.38,6.75,9.35Zm0,.25a.8.8,0,0,0,.34-.41c.21-.46.43-.9.65-1.38a.21.21,0,0,1,0,.18c-.23.51-.46,1-.7,1.52a.35.35,0,0,1-.2.18s-.08.05-.11,0S6.77,9.62,6.8,9.6Zm-.08-3a4.13,4.13,0,0,1,1.06.45C7.4,7,7.09,6.73,6.72,6.62Zm-.46-.21s-.1.06-.13,0,0-.08.07-.09A.57.57,0,0,0,6.5,6c.13-.29.26-.58.41-.86A1,1,0,0,0,7,4.26a.38.38,0,0,0,0-.08c.08.1,0,.21.11.28a.26.26,0,0,1,0,.34A1.14,1.14,0,0,0,7,5c-.19.39-.37.78-.56,1.18A.37.37,0,0,1,6.26,6.41Zm1-2.5a.06.06,0,0,1-.08,0c0-.14-.17-.14-.26-.18A3,3,0,0,0,6,3.35c.09-.08.16,0,.23,0a7.37,7.37,0,0,0,.7.3,1.83,1.83,0,0,1,.26.16A.07.07,0,0,1,7.21,3.91Zm.59-1a8.69,8.69,0,0,1-.44.86.07.07,0,0,1-.11,0,.07.07,0,0,1,0-.12.83.83,0,0,0,.28-.39c.07-.13.13-.26.19-.39ZM8,3c-.14.28-.27.57-.41.85S7.42,4,7.23,4C7.7,3.78,7.73,3.31,8,3Zm-.1,4a.68.68,0,0,0,.23-.3l.49-1a.49.49,0,0,1,.11-.18s0,.07,0,.09C8.48,6,8.25,6.49,8,7a.35.35,0,0,1,0,.08s-.07,0-.11,0S7.81,7,7.87,6.94ZM8,7.17c.19,0,.24-.19.3-.33l.68-1.41.05,0c-.26.55-.53,1.1-.79,1.66A.38.38,0,0,1,8,7.27s-.09,0-.11,0S7.92,7.18,8,7.17Zm1-2.51c-.37-.11-.68-.36-1-.47A5,5,0,0,1,8.93,4.66Zm.83-1.35-.39.82c-.07.15-.14.3-.22.44s-.05.09-.11.08,0,0-.06-.06,0-.07.07-.09a.77.77,0,0,0,.24-.32c.13-.3.28-.6.42-.9Zm.05.34-.48,1a.31.31,0,0,1-.2.2s-.08,0-.1,0,0-.06.06-.07.24-.17.31-.31.25-.54.38-.81Zm-.2,4.12c.15,0,.19-.19.25-.32l.56-1.17a9.09,9.09,0,0,1-.67,1.53.27.27,0,0,1-.07.08.07.07,0,0,1-.1,0A.06.06,0,0,1,9.61,7.77ZM10.36,2a.41.41,0,0,1-.1.22.07.07,0,0,1-.11,0s0-.07,0-.1Zm1.53,1.23a.06.06,0,0,1,0,0A.54.54,0,0,0,12.23,3c-.07.17-.16.23-.27.24S11.89,3.22,11.89,3.19Zm0-.29a.52.52,0,0,0,.3-.3A1.1,1.1,0,0,1,12,3s-.08,0-.11,0S11.85,2.92,11.9,2.9ZM11.79,3c-.35-.11-.65-.34-1-.45A5.37,5.37,0,0,1,11.79,3ZM10.9,5.37a.18.18,0,0,1-.06.09.07.07,0,0,1-.11,0s0-.09,0-.11.23-.24.3-.39c.17-.34.34-.69.5-1h0Zm-.22.26c.46-.07.49-.47.68-.75a4.57,4.57,0,0,1-.35.7C10.93,5.71,10.86,5.72,10.68,5.63Zm-.49-3.25s0,0,0,0,.1-.06.15-.08a.48.48,0,0,0,.11-.08c0,.11,0,.14-.06.16A.17.17,0,0,1,10.19,2.38Zm.45,3.12L10,5.19a.56.56,0,0,0-.28-.1.06.06,0,0,1-.08,0,0,0,0,0,1,0-.05.09.09,0,0,1,.1,0l.53.24A.9.9,0,0,1,10.64,5.5ZM9.53,8.06c.35-.06.43-.3.54-.53l.57-1.2,0,0c-.15.31-.3.62-.44.94s-.18.4-.28.6A.28.28,0,0,1,9.53,8.06Zm0-.13-.16-.08a4.79,4.79,0,0,0-.81-.34s-.1,0-.08,0,.07,0,.11,0l.95.45ZM8.7,11.71h0l0,.05c.09.14,0,.37.22.44,0,0,0,0,0,.05s0,.14-.12.25ZM8.28,10.4c-.11-.11-.08-.14-.24-.21L7.61,10c-.08,0-.16-.11-.27-.05s0,0-.06,0a.07.07,0,0,1,.06-.07.26.26,0,0,1,.17.05l.58.28c.14.07.14.07.28,0h.05c.1,0,.15,0,.18-.1s.16-.32.24-.48l.46-1a.19.19,0,0,1,0,.21l-.69,1.44s-.06.08,0,.12.08,0,.1,0A1.22,1.22,0,0,0,8.91,10c.21-.43.41-.87.62-1.3l0,0-.06.18c-.24.5-.47,1-.7,1.49a.35.35,0,0,0-.05.08.35.35,0,0,1-.28.18C8.41,10.64,8.35,10.47,8.28,10.4Zm-.86,2.39c.16,0,.19-.13.25-.23s.22-.48.33-.71.27-.55.4-.83l0,0a.17.17,0,0,1,0,.07c-.27.58-.54,1.16-.82,1.74A.2.2,0,0,1,7.5,13c-.06,0-.14.08-.18,0A.14.14,0,0,1,7.42,12.79Zm-1.26-.54c.06,0,.12,0,.17,0l.92.44h0A14.69,14.69,0,0,0,8.16,11a.19.19,0,0,1,0,.17l-.67,1.44a.2.2,0,0,1-.22.11h0s0,.11,0,.13-.13,0-.19-.08.09,0,.15,0c-.31-.18-.63-.31-.94-.46,0,0,0,0,0,0s0,.08,0,0a.1.1,0,0,1,0-.06S6.13,12.26,6.16,12.25Zm-.58-.46a1.12,1.12,0,0,0,.16-.22c.19-.41.39-.82.58-1.22,0,0,0-.13.11-.12v0a15.61,15.61,0,0,1-.76,1.6l0,0h0c.15.12.2,0,.25-.12l.69-1.45c0-.05,0-.12.11-.16a.29.29,0,0,1-.05.21c-.24.52-.49,1-.73,1.54l-.1.15s-.11.1-.18.07,0-.11,0-.16,0-.05,0-.08h0C5.54,11.91,5.51,11.87,5.58,11.79Zm-1.1-.33,0,0,.93.44A.11.11,0,0,1,5.5,12s0,0,0,0,0,0-.06,0-.06-.13-.11-.15Zm-.56-.34c.17,0,.2-.14.26-.25.2-.41.39-.83.59-1.24l.12-.27h0a.17.17,0,0,1,0,.07l-.78,1.69a.27.27,0,0,1-.14.14s-.09.05-.11,0S3.86,11.13,3.92,11.12Zm-1.25-.38v0l.88.42v0Zm0-.15a5.89,5.89,0,0,1,1.15.5h0c0-.16.16-.25.22-.38.18-.41.37-.81.56-1.21,0,0,0-.1.08-.1a.07.07,0,0,1,0,.1L4,11a.17.17,0,0,1-.18.1h0s0,0-.09,0Zm5.88,1L9,11.51l.14,1.07-.47.06Z"/><polygon class="cls-3" points="11.39 8.8 11.39 8.8 11.39 8.8 11.39 8.81 11.39 8.8"/><polygon class="cls-3" points="7.26 12.73 7.25 12.73 7.25 12.73 7.25 12.73 7.26 12.73"/><polygon class="cls-3" points="6.1 6.28 6.1 6.29 6.11 6.29 6.1 6.28"/><polygon class="cls-3" points="3.79 11.08 3.79 11.09 3.78 11.09 3.79 11.08 3.79 11.08"/><polygon class="cls-3" points="5.64 11.9 5.64 11.89 5.64 11.89 5.65 11.89 5.64 11.9"/><rect class="cls-3" x="8.49" y="11.54" width="0.62" height="1.11" transform="translate(19.08 22.96) rotate(172.63)"/></svg>