<svg id="Ebene_1" data-name="Ebene 1" xmlns="http://www.w3.org/2000/svg" viewBox="0 0 255.12 255.12"><defs><style>.cls-1{fill:#432918;}</style></defs><title>Logout</title><path class="cls-1" d="M120.6,215.12a72.46,72.46,0,0,1-70.71-57.41c-6.79-31,8.52-63.91,36.7-78.85,3.69-2,7.37-1.07,9.08,2.2s.47,6.49-3.17,8.54C73.68,100.2,62.66,116.32,61,137.73c-1.87,23.64,7.59,42.69,27.55,55.59a59.86,59.86,0,0,0,91-37.39c6.06-26.65-5.76-52.2-29.47-65.94a10.8,10.8,0,0,1-4.33-4.61c-1-2.3-.15-4.76,2-6.38a6.26,6.26,0,0,1,7.06-.3,71.49,71.49,0,0,1,23.33,19.64c11.33,14.75,16.72,31.55,14.92,50-2.83,29.08-18,49.72-44.9,61.48A66.62,66.62,0,0,1,120.6,215.12Z"/><path class="cls-1" d="M128.93,89.45q0,15.09,0,30.17c0,5-3.4,8.66-8.06,8.67s-8.1-3.54-8.1-8.61q0-30.17,0-60.33c0-5.09,3.33-8.62,8-8.64s8.11,3.55,8.12,8.58C129,69.34,128.93,79.4,128.93,89.45Z"/></svg>