<svg id="Ebene_1" data-name="Ebene 1" xmlns="http://www.w3.org/2000/svg" viewBox="0 0 255.12 255.12"><defs><style>.cls-1{fill:#c04858;}.cls-2{fill:#e65469;}.cls-3{fill:#84b427;}</style></defs><title>Himbeere</title><path class="cls-1" d="M184.88,107.57c-.12.09-.23.2-.46.41a13.68,13.68,0,0,1,6,3,11.62,11.62,0,0,1,4,8.64,22.33,22.33,0,0,1-2.62,11.77,1.2,1.2,0,0,0,.22,1.13c3.28,3.22,4,6.7,2,10.81a22.31,22.31,0,0,1-9.25,9.53l-1.12.64a13.15,13.15,0,0,1,2.86,6.53,13.69,13.69,0,0,1-3.83,11.22,18.23,18.23,0,0,1-11.89,6.42,3.59,3.59,0,0,0-.56.17,11.32,11.32,0,0,1-3.7,9.18,18.2,18.2,0,0,1-10.61,5.25,11.56,11.56,0,0,1-3.62,0,1.42,1.42,0,0,0-1.72.79,20.86,20.86,0,0,1-5.9,6.16,16.25,16.25,0,0,1-12.76,2.22,1.52,1.52,0,0,0-1.78.58c-3.4,3.88-7.48,6.61-13,6.32a8.2,8.2,0,0,1-3-.89,1.89,1.89,0,0,0-2,0,18.17,18.17,0,0,1-12.55,2c-4.76-1.06-8.11-3.76-9.58-8.38a1.36,1.36,0,0,0-.16-.38,45.32,45.32,0,0,1-6.6,0c-3.54-.5-5.77-2.88-7.26-5.84a37.42,37.42,0,0,1-2-5.27,1.84,1.84,0,0,0-1.29-1.42c-4.73-1.6-7.64-7.25-6-11.74A23.08,23.08,0,0,1,69,172.62a15,15,0,0,1-5.67-10,13.57,13.57,0,0,1,3.43-11.05l-1.23-.76a10.91,10.91,0,0,1-5.24-11.73A20.23,20.23,0,0,1,65.89,128a8.87,8.87,0,0,1-4.55-6,12.67,12.67,0,0,1,1.73-9.59c2.4-4,5.77-6.94,10.68-7.77a21.48,21.48,0,0,1,3.59,0A15.55,15.55,0,0,1,82.42,88a9.31,9.31,0,0,1,9.31-1.65l.38.11a30.44,30.44,0,0,1-.18-5.63c.81-5.44,4.81-9.24,10.65-10.51,6.67-1.46,12.53.58,18.12,3.84.3.18.59.38,1,.67"/><path class="cls-2" d="M124.63,125.54a13.25,13.25,0,0,0,1,8c.46.95,1.17,1.77,1.7,2.68a2,2,0,0,1,.38,1.32c-2.46,8.15-12.78,12.86-20.63,7.84-5.62-3.59-4.86-11.46-1.51-14.8a3.67,3.67,0,0,1,4-1.08C115,130.93,120,130.17,124,126,124.11,125.92,124.24,125.84,124.63,125.54Z"/><path class="cls-2" d="M129,111c-.13,4.44-1.13,8.28-5.54,10.53a20.83,20.83,0,0,1-11,2.64c-5.48-.38-8.63-3.1-9.23-8.35a12.36,12.36,0,0,1,5.23-12,15.22,15.22,0,0,1,2.83-1.3c.86-.39,1.19,0,1.41.78a9.71,9.71,0,0,0,8.19,7.4,50.5,50.5,0,0,0,6.76.43C128,111.08,128.45,111,129,111Z"/><path class="cls-2" d="M127.76,169.68c-.06.5-.13,1-.18,1.46a9.86,9.86,0,0,0,1.57,6.15,18.49,18.49,0,0,0,5.29,5.88c1,.71.88,1.31.39,2.12a16.92,16.92,0,0,1-8.49,7c-7.24,2.91-12.9-1.83-14.08-7.6a13.06,13.06,0,0,1,1.49-9.4,1.62,1.62,0,0,1,1.06-.76,21.25,21.25,0,0,0,12.6-4.85S127.56,169.7,127.76,169.68Z"/><path class="cls-2" d="M126.05,147.51c.18,1.09.35,2,.46,2.87a13.21,13.21,0,0,0,3.21,7.08,1.41,1.41,0,0,1,.32,1.2c-2.52,5.08-6.11,9.14-12,10.66-6.35,1.65-11.26-2-11.63-8.38a11,11,0,0,1,1-5.83,10.29,10.29,0,0,1,1.39-1.9,2.2,2.2,0,0,1,2.26-.62c5.4.8,10-.9,14.1-4.26C125.4,148.11,125.65,147.87,126.05,147.51Z"/><path class="cls-2" d="M178,116c0,9.12-10,12.58-15.61,9.75s-7.15-9.16-3.23-14a13.06,13.06,0,0,1,9.6-5.09c4.78-.31,7.92,2,8.87,6.54C177.82,114.13,177.88,115.07,178,116Z"/><path class="cls-2" d="M126.14,106c-3-.13-5.36-.63-7.14-2.64a6.76,6.76,0,0,1-.08-9.15c3.62-4,8.17-6.49,13.89-6.24A8.91,8.91,0,0,1,141,94.63a5.42,5.42,0,0,1-1.35,4.68,18.44,18.44,0,0,1-10.56,6.22C128,105.78,126.89,105.87,126.14,106Z"/><path class="cls-2" d="M106.35,91.23a14.75,14.75,0,0,1-6.94-2.08c-2.9-1.75-3.79-4.47-2.44-7.49,2.41-5.39,7.78-7.38,13.21-7a13,13,0,0,1,9,4.11,6.47,6.47,0,0,1,2,5.46,5.17,5.17,0,0,1-3.24,4.42A27.63,27.63,0,0,1,106.35,91.23Z"/><path class="cls-2" d="M157.69,127.41c4.43,4.63,9.53,4.22,14.94,2.84a10.06,10.06,0,0,1,2.23,5.86c.16,3.92-.61,7.59-4,10.17a11.18,11.18,0,0,1-8.17,2.29,7.41,7.41,0,0,1-6.05-4,16.7,16.7,0,0,1-.63-14.7A13.9,13.9,0,0,1,157.69,127.41Z"/><path class="cls-2" d="M150.11,137.55c0,1.62-.1,3.25,0,4.85a13.66,13.66,0,0,0,2.77,7.15,1.21,1.21,0,0,1,0,1.64,13.4,13.4,0,0,1-9.2,6.49c-5.51,1-10.32-2.24-11.28-7.59a14,14,0,0,1,2-9.89,1.48,1.48,0,0,1,1.15-.66c4.55,1,8.83,0,13-1.5C149.19,137.84,149.75,137.66,150.11,137.55Z"/><path class="cls-2" d="M106.54,95.25c-.77,10.06-11.42,13.41-18.32,11.11a9.15,9.15,0,0,1-6.38-9.12A5.88,5.88,0,0,1,83,94.1a12.83,12.83,0,0,1,8.57-4.82,4.27,4.27,0,0,1,3.65,1.17A17.68,17.68,0,0,0,106.54,95.25Z"/><path class="cls-2" d="M108.52,173.38c-1.57,4.28-4,7.76-9.09,8.54a12.56,12.56,0,0,1-7.88-1.23,7.57,7.57,0,0,1-4-6.31c-.4-3.61.17-7,2.74-9.88a1.42,1.42,0,0,1,1.6-.6c4,.8,7.5-.31,10.88-2.46C101.79,166.68,104.74,170.13,108.52,173.38Z"/><path class="cls-2" d="M97.46,138.11c.4,1.86.66,3.56,1.15,5.2a10.89,10.89,0,0,0,5.47,6.74c.8.42,1,.86.67,1.68-1.52,3.94-4.68,6.14-8.58,7.55a9.73,9.73,0,0,1-5.5.35c-4.06-.94-6.43-4.64-5.86-9,.71-5.44,5.64-10.86,11.16-12.25C96.47,138.22,97,138.18,97.46,138.11Z"/><path class="cls-2" d="M88.06,136.28c-1.12,2-2.06,4-3.29,5.82-2.81,4.14-9.12,5.71-13.73,3.56-4-1.84-5.66-6.36-4.2-10.84,1.53-4.69,7-7.18,10.93-7.26a1.07,1.07,0,0,1,.81.5,14.53,14.53,0,0,0,7.69,7.16A14.34,14.34,0,0,1,88.06,136.28Z"/><path class="cls-2" d="M97.8,113.08c.3,5.06,1.34,10,5.81,13.74A14.19,14.19,0,0,1,95.47,131a13,13,0,0,1-10.38-2.52,7.28,7.28,0,0,1-1.84-10.07c1.82-3.06,4.78-4.54,8.1-5.54a2,2,0,0,1,.6,0Z"/><path class="cls-2" d="M148.45,159.73c.71,2.14,1.49,4.27,2.09,6.45a14.34,14.34,0,0,1,.92,4.89c-.39,4.41-4.55,7.75-9.38,7.87a9.56,9.56,0,0,1-9.65-7.53,12.92,12.92,0,0,1,.14-6.27c.58-2,1.69-2.85,3.87-2.8.72,0,1.44.14,2.17.2C142.88,162.9,145.28,162.19,148.45,159.73Z"/><path class="cls-2" d="M147.51,101.1c5.17,0,8.45,4.19,7.09,9-1.62,5.71-8.32,9.94-14.32,9-4-.6-6.19-3.57-5.45-7.42C135.86,106.33,142.11,101.08,147.51,101.1Z"/><path class="cls-2" d="M161.77,167.13c-5.09,0-9.08-3.61-8.89-8.13a11,11,0,0,1,2.39-6.27,1.36,1.36,0,0,1,1.74-.57,15.94,15.94,0,0,0,13.69-1.69c1.37-.84,1.44-.85,2.39.43a7.74,7.74,0,0,1,1,6.83A12.59,12.59,0,0,1,161.77,167.13Z"/><path class="cls-2" d="M80.05,151.42c0,4.12,1.18,7.51,4.57,10.29a40.37,40.37,0,0,1-3.67,5.2c-3.15,3.31-8.31,2.65-11.14-1.34A10.09,10.09,0,0,1,69,154.68a3,3,0,0,1,3.41-2A12.43,12.43,0,0,0,80.05,151.42Z"/><path class="cls-2" d="M174.83,128.76a14.4,14.4,0,0,0,5.8-7.6,13,13,0,0,0,.3-7.5c-.11-.46-.25-.91-.32-1.37-.2-1.39.16-1.78,1.61-1.79,6.22-.06,9.91,4,9.14,10-.67,5.3-3.8,9.26-8.32,10.09a16.51,16.51,0,0,1-5.52-.08C176.61,130.42,175.83,129.46,174.83,128.76Z"/><path class="cls-2" d="M151.59,122.16c1,7.53-5.45,13.47-13.33,12.38a10.83,10.83,0,0,1-5.37-2,5.85,5.85,0,0,1-2.26-6.37,11.45,11.45,0,0,1,2.48-4.74C138.32,125.84,144.32,126.07,151.59,122.16Z"/><path class="cls-2" d="M155.07,170.32c5.63-.1,9.6,4.59,8.39,9.92a9.69,9.69,0,0,1-2.59,5.07c-2.17,2.13-5,2.24-7.78,2.2a6.69,6.69,0,0,1-4.66-1.68,6.6,6.6,0,0,1-1.51-2.2,1.76,1.76,0,0,1,.92-2.41,14.75,14.75,0,0,0,7-9.31A12.37,12.37,0,0,0,155.07,170.32Z"/><path class="cls-2" d="M77.35,124.43c-2.74-.68-5.18-.06-7.62.74a1.3,1.3,0,0,1-1.15-.31,9.25,9.25,0,0,1-1.77-3c-.87-3.51-.46-7,2.15-9.67a12.76,12.76,0,0,1,11.2-3.86,2,2,0,0,1,.77.31c1.39.79,2.77,1.6,4.3,2.5C79.3,113.67,76.63,118,77.35,124.43Z"/><path class="cls-2" d="M92.59,185.31c5.78,3.93,10.66,2,15.49-1.87-.25,3,.79,5.58,1.88,8.13a1.17,1.17,0,0,1-.06.86c-1.43,3-5.63,5.37-9,4.85a8.41,8.41,0,0,1-3.79-1.62A11.63,11.63,0,0,1,92.59,185.31Z"/><path class="cls-2" d="M82.57,173.13c.85,1.89,1.69,3.74,2.52,5.6,1.17,2.62.52,4.34-2.2,5.5-3.27,1.39-6.54,1.86-9.62-.51a6.34,6.34,0,0,1-1.35-8.65,1.52,1.52,0,0,1,1.2-.59A11.45,11.45,0,0,0,82,173.35c.14-.07.28-.15.43-.21A.3.3,0,0,1,82.57,173.13Z"/><path class="cls-2" d="M130.52,195.35c6.11-5.21,6.76-6,8.31-10.64l5-1.08a8.58,8.58,0,0,0,4.09,7.21c-2.1,3.45-4.63,6.35-8.92,7.13A8.77,8.77,0,0,1,130.52,195.35Z"/><path class="cls-2" d="M174.5,146.65c4-4.47,4.68-7.53,2.74-12.73,2.42,1.2,4.79.84,7.19.52,2.6-.35,4,.71,4.07,4.07.09,4-3.94,8.59-8,9.37A9.17,9.17,0,0,1,174.5,146.65Z"/><path class="cls-2" d="M129.43,195.77a10.15,10.15,0,0,1,0,1.66c-.41,2.65-5.1,6.78-8.5,7a8.94,8.94,0,0,1-8.87-4.71,5.38,5.38,0,0,1-.25-4.32c.18-.56.45-1,1.23-.52a16.77,16.77,0,0,0,15.87.93A4,4,0,0,1,129.43,195.77Z"/><path class="cls-2" d="M177.5,153.14c2.78,2.05,4.67,4.7,4.53,8.08-.18,4.67-2.66,8.22-7,10.39-3,1.5-5.92.94-8.93-.71a15.91,15.91,0,0,0,9.76-6.56C178.33,160.91,178.11,157.06,177.5,153.14Z"/><path class="cls-2" d="M79.4,188.91c3.89-.34,7.13-2.07,10.18-3.77,0,2-.11,4,0,6a10.27,10.27,0,0,0,1,3.11c.31.72.09,1-.54,1.39-2.6,1.44-6.69.54-8.89-2A7.14,7.14,0,0,1,79.4,188.91Z"/><path class="cls-2" d="M110.88,204.4c-6.31,3.87-14.41,2.58-17.17-4.29a13.32,13.32,0,0,0,7.77,1.43,18.22,18.22,0,0,0,7.47-2.13C109.57,201,110.21,202.66,110.88,204.4Z"/><path class="cls-3" d="M186.23,109c-2.48-2.28-5.58-3.36-8.47-4.83-1.2-.61-1.75.31-2.16,1.09-1.48,2.77-2.89,5.58-4.3,8.38-.42.83-.84,1.74-1.9,1.69s-1.11-1.08-1.5-1.75q-4.34-7.5-8.63-15c-1.94-3.42-2-3.4-5.44-2.26-2,.65-4,1-6,1.47a11.06,11.06,0,0,0-4.75,1c-3.23.68-6.47,1.35-9.69,2.07-.69.15-1.41.43-2-.13s-.29-1.44-.12-2.17c.6-2.51,1.94-4.74,2.17-7.38a9.26,9.26,0,0,0,1.28-3.65c.14-.86-.29-.65-.73-.48-1.86-.91-3.55-.15-5.26.09-5.79.82-11.65,1.35-17.32,2.62-.57.13-1.36.25-1.67-.51-.38-.94.42-1.39,1-1.83q6.17-5,12.39-10c2.27-1.81,2.29-2.12-.42-4-1.55-1-3.17-2-4.76-3-2.21-2.09-5.11-3.21-7.57-5.7,4.4.29,8.49.5,12.59.85,5.58.48,11.17.19,16.74,1.93a25.3,25.3,0,0,1,7.47,4c2.28,1.69,5,2.7,7.61,4a1.85,1.85,0,0,0,1.78-.1c4.36-2,7.88-4.94,9.89-9.37,2.42-5.34,4.71-10.74,7.18-16a8.16,8.16,0,0,1,6.09-4.58c.4-.08,1.3-.43,1,1a67.21,67.21,0,0,1-6.22,17.33,50.89,50.89,0,0,0-5.15,18.55,4.06,4.06,0,0,0,1.32,3.28,32,32,0,0,0,10.8,8.5c2.06,1,3.45,3,4.66,5,2.36,3.92,4.83,7.77,7.25,11.64l-.51.61c-1.5-.76-3-1.49-4.49-2.29C187.58,108.64,186.89,108.36,186.23,109Z"/></svg>