<svg id="Ebene_1" data-name="Ebene 1" xmlns="http://www.w3.org/2000/svg" viewBox="0 0 255.12 255.12"><defs><style>.cls-1{fill:#d6bd6d;}.cls-2{fill:#aa8d52;}.cls-3{fill:#9bb91f;}</style></defs><title>Pistazie</title><path class="cls-1" d="M107.3,61.73c-.31,1-.62,1.94-.92,2.91,2,.23,1.78-1.35,2.12-2.5,7-9.32,7.22-9.52,14.32.27,11.34,15.62,17.5,32.76,14.05,52.47-.77,4.39-.49,9-1.18,13.37-.62,3.92-1.59,7.92-6.07,11.12,1.26-7.62,3-14.28,1.31-21.29-.21,15.68-8.91,27.46-16.84,39.76,1.14-5.11-.17-9.21-2-13.84-3.13-7.8-3.72-16.38-5.19-24.67s-1.81-17-4-25.46a72.42,72.42,0,0,1-1-28.73c.35-2.29-.51-1.89-1.81-1.72,1.74-3.29,3.48-6.25,2.88-10.54-.78-5.56,2.73-8.21,8.12-7.37C110.71,51.12,108.8,56.38,107.3,61.73ZM129.56,104c.55-1.55-.26-2.33-1.23-3.19C127.78,102.36,128.54,103.16,129.56,104ZM124,80.09a8,8,0,0,0,.25,1.71c.12.34.55.57.84.84l.3-1.5Z"/><path class="cls-1" d="M44.38,91.71c-1.64,2.93,1,5.84,0,8.77,2.41.93,2.31,3.41,3.14,5.26,3.1,6.89,5,14.33,11,19.77a9.77,9.77,0,0,1,3.25,8.58c-.18,3.24,2.45,3.8,4.61,4.81,4.09,2.6,11,2.23,10.43,9.75.6,3.24,3.83,3.56,5.84,5.24.81-.35.78-2.29,2.19-1.33.82.56,2.55,1.11,1,2.7l.14.05,2-4.64A48.93,48.93,0,0,1,94.18,155c1.74,1.67,2.88,4,6.43,4.94-1.88-6.67-7.25-8.66-11.63-11.75,3.44-2.53,5.44.19,7.34,1.77,2.25,1.88,4,4.34,6,6.56,1.22,1.37,2,3.62,4.3,3.19,2.91-.56,2-3.35,2.42-5.26,1.79-8.08-.84-15.83-4.25-22.54-1.4-2.76-.93-8.36-5.6-8.82-3.52-.35-3.94-2.7-5-4.89l.15,0c-.92.52-1.7,1-2.8.07C83.19,111,75,103.56,66.43,96.55c-3.28-2.68-5.75-5.1-6.17-9.66C60,84.24,58,81.76,56.52,78.65c-.51,2.19-.78,3.39-1.06,4.59l-.67,12.22c-2.62-5.52-1.35-9.18-.92-12.83-1.09-2.74,1-6.07-1.67-9.25-.47,3.12,0,6.34-1.39,7.83A35.24,35.24,0,0,0,44.38,91.71Z"/><path class="cls-2" d="M94.13,118.22c1.1,2.19,1.52,4.54,5,4.89,4.67.46,4.2,6.06,5.6,8.82,3.41,6.71,6,14.46,4.25,22.54-.42,1.91.49,4.7-2.42,5.26-2.27.43-3.08-1.82-4.3-3.19-2-2.22-3.73-4.68-6-6.56-1.9-1.58-3.9-4.3-7.34-1.77,4.38,3.09,9.75,5.08,11.63,11.75-3.55-.94-4.69-3.27-6.43-4.94a48.93,48.93,0,0,0-6.12-4.35l-2,4.64c5.46,1.73,9,6,13.29,9.49,5.7,4.66,10.47,4.33,14.89-1.34,3.51-4.48,7.93-7.49,12.48-10.78,10-7.18,14-17.64,14.41-30a113,113,0,0,0-15.81-62.51c-2.81-4.76-5.76-9.6-11.5-11.37-1.86-.58-1.78-2.22-2.7-3.28-.38,5.61-2.29,10.87-3.79,16.22a5,5,0,0,1,1.2.42c7-9.33,7.22-9.53,14.32.26,11.34,15.62,17.5,32.76,14.05,52.47-.77,4.39-.49,9-1.18,13.37-.62,3.92-1.59,7.92-6.07,11.12,1.26-7.62,3-14.28,1.31-21.29-.21,15.68-8.91,27.46-16.84,39.76,1.14-5.11-.17-9.21-2-13.84-3.13-7.8-3.72-16.38-5.19-24.67s-1.81-17-4-25.46a72.42,72.42,0,0,1-1-28.73c.35-2.29-.51-1.89-1.81-1.72-1.89,1.56-4.15-1.52-6,.47,3.69,2.65,3.71,2.66.71,6.79-.33.45-1.15.77-.59,1.35,5.49,5.82,4.15,13.46,4.2,20.1.07,10.28,2.88,19.7,5.37,29.45C100.3,121.49,99.31,113.47,94.13,118.22Z"/><path class="cls-3" d="M94.13,118.22c5.18-4.75,6.17,3.27,9.64,3.36-2.49-9.75-5.3-19.17-5.37-29.45-.05-6.64,1.29-14.28-4.2-20.1-.56-.58.26-.9.59-1.35,3-4.13,3-4.14-.71-6.79-2.78-.3-5.6-1-8.16.79-1.53,1.35.75,2.8-.51,4.76-9.24-7.6-15.11,1.16-19.87,6C60.39,80.75,68.13,86.32,70.07,92c-3.08-.92-3.42-5.25-7.21-4.9-.1,4.6,3.33,6.18,5.94,8.6,5,4.65,12.1,6,16.71,11.55,3,3.61,4.45,8.49,8.77,11Z"/><path class="cls-2" d="M94.28,118.26c-4.32-2.5-5.78-7.38-8.77-11-4.61-5.57-11.69-6.9-16.71-11.55-2.61-2.42-6-4-5.94-8.6,3.79-.35,4.13,4,7.21,4.9-1.94-5.7-9.68-11.27-4.53-16.54,4.76-4.88,10.63-13.64,19.87-6,1.26-2-1-3.41.51-4.76-2.86-.46-5.71-1-8.59-1.35-1.22-.14-3.38-.15-3.59.38-2.52,6.4-10.56,7-13.42,13.51-1.78-3.72-3.31-7-4.93-10.29-.87-1.74-2.1-2.78-4-1.29-4.53,3.45-9.08,20.5-7,26.07a35.24,35.24,0,0,1,6.43-10.5c1.39-1.49.92-4.71,1.39-7.83,2.69,3.18.58,6.51,1.67,9.25l1.59.61c.28-1.2.55-2.4,1.06-4.59,1.48,3.11,3.5,5.59,3.74,8.24.42,4.56,2.89,7,6.17,9.66,8.56,7,16.76,14.45,25,21.78C92.58,119.3,93.36,118.78,94.28,118.26Z"/><path class="cls-2" d="M51.16,122.09c2.27,3.68,5.81,6.53,7.08,10.85l3.52,1.15a9.74,9.74,0,0,0-3.24-8.58c-6-5.44-7.86-12.88-11-19.77-.83-1.85-.73-4.33-3.14-5.26A123,123,0,0,0,51.16,122.09Z"/><path class="cls-2" d="M76.81,148.65c.52-7.52-6.34-7.15-10.43-9.75C67.27,144.91,71.59,147.26,76.81,148.65Z"/><path class="cls-2" d="M85.89,155.26c1.5-1.59-.23-2.14-1-2.7-1.41-1-1.38,1-2.19,1.33C83.39,155.16,84.62,155.26,85.89,155.26Z"/><path class="cls-2" d="M107.3,61.73c-.31,1-.62,1.94-.92,2.91,2,.23,1.78-1.35,2.12-2.5A5.48,5.48,0,0,0,107.3,61.73Z"/><path class="cls-2" d="M128.33,100.77c-.55,1.59.21,2.39,1.23,3.19C130.11,102.41,129.3,101.63,128.33,100.77Z"/><path class="cls-2" d="M125.39,81.14l-1.39-1a8,8,0,0,0,.25,1.71c.12.34.55.57.84.84Z"/><path class="cls-2" d="M53.87,82.63c-.43,3.65-1.7,7.31.92,12.83l.67-12.22Z"/><path class="cls-1" d="M144.17,209.76c4.9-1.21,10.32-1.2,14.84-6.53-11.91,2-22.57,5.76-33.78,4-.18,0-.38.18-.58.27-.87.13-1.73.24-2.32-.64.56-.66.78-1.3-.19-1.78-.72-.37-1.41-.54-1.69.53h0c-.06-.48.05-1.1-.21-1.44-.61-.8-.89.23-1.34.38h0c-3.13-6.33.46-7.66,5.76-7.72a1.51,1.51,0,0,0,.64,0c3.22-1.63,6.51-.47,9.8-.34s4.59-3.43,7.45-4.48a90.66,90.66,0,0,0-10.82,1.17,15.31,15.31,0,0,1-9.87-1.64c-8.46-4.67-3.56-12.6-5.13-18.91-.72-2.88-.11-6.32,2-7.75,5.63-3.91,7.15-11.89,14.39-14a1.59,1.59,0,0,0,1-2.45,2.87,2.87,0,0,0-1.57-.84c-4.7,6.54-17.16,4.1-17.86,15.47-.1,1.65-.56,4.81-3.57,4.39-1.9-.26-2.34-2.33-3.3-3.89-1.48-2.4-.48-5-2-7l-.07.16c1.73-.91,3.25-1.92,2-4.24l0-.07c5.61-3.09,11-6.49,15.27-11.34,11.71-7.35,25-10.83,37.78-15.58,3.81-1.42,7.58-2.94,11.37-4.41h.15l0,.12c6.89-.09,13.39-3.44,20.41-2.43l4.87,3.52c3.53,5.2.68,10.47-.53,16.54,3.92-3.33,5.45-2.25,5.85,1.55.32,3.1-.91,5.82-1.6,8.73-2.34,9.86-11,15-16.84,22-8.4,9.91-20.4,15.43-33.27,18.72,4.64-1.52,9.5,1.3,14.12-1.83,5.39-3.64,10.47-8.25,16.06-10.91,9.58-4.57,17.11-10.65,22.86-19.29,1-1.45,1.81-.22,2.71-.13-1.35,7.69-4.38,14.32-11.17,18.9-2.6,1.75-4.8,4.79-6.28,7-5.56,8.34-26.72,12.74-32.47,20.44-.61.82-2.28-.84-1.15,1.44m39.59-62.33c-14.49,16.87-31.78,30.59-49.24,45.27,12.94-4.62,25.75-7.93,36-19.25-6.71,2.31-9.94,8.07-16.41,9.19C177.8,167.58,191.17,159,195.54,143.05Zm-55,1.1a14.23,14.23,0,0,0,10.63-3.78C146.77,140,143.88,142.69,140.55,144.15Z"/><path class="cls-2" d="M105.82,156.51c1.54,2,.54,4.61,2,7,1,1.56,1.4,3.63,3.3,3.89,3,.42,3.47-2.74,3.57-4.39.7-11.37,13.16-8.93,17.86-15.47a2.87,2.87,0,0,1,1.57.84,1.59,1.59,0,0,1-1,2.45c-7.24,2.15-8.76,10.13-14.39,14-2.08,1.43-2.69,4.87-2,7.75,1.57,6.31-3.33,14.24,5.13,18.91a15.31,15.31,0,0,0,9.87,1.64A90.66,90.66,0,0,1,142.55,192c-2.86,1.05-4.21,4.6-7.45,4.48s-6.58-1.29-9.8.34a1.51,1.51,0,0,1-.64,0c-5.3.06-8.89,1.39-5.76,7.72-6.5-3.57-13.78-6.12-17.49-13.33.93-.85.52-1.27-.49-1.49-1.3-.74-4.07-.69-1.82-3.36,3.73-4.4-.11-7.57-1.82-11.09C97.81,168,99.31,161.11,105.82,156.51Z"/><path class="cls-2" d="M207,157.59c-.9-.09-1.75-1.32-2.71.13-5.75,8.64-13.28,14.72-22.86,19.29-5.59,2.66-10.67,7.27-16.06,10.91-4.62,3.13-9.48.31-14.12,1.83,12.87-3.29,24.87-8.81,33.27-18.72,5.88-6.94,14.5-12.11,16.84-22,.69-2.91,1.92-5.63,1.6-8.73-.4-3.8-1.93-4.88-5.85-1.55,1.21-6.07,4.06-11.34.53-16.54,5.38.49,4,4.65,3.6,7.57s.09,3.72,2.89,4.56c7.08,2.13,8.53,5.62,5.92,12.64C208.79,150.46,210.2,154.69,207,157.59Z"/><path class="cls-2" d="M124.65,207.54c.2-.09.4-.29.58-.27,11.21,1.72,21.87-2,33.78-4-4.52,5.33-9.94,5.32-14.84,6.53C137.62,209.45,130.9,210.55,124.65,207.54Z"/><path class="cls-2" d="M192.79,118.72c-7-1-13.52,2.34-20.41,2.43C178.94,118.32,185.39,114.47,192.79,118.72Z"/><path class="cls-2" d="M123.12,141c-4.3,4.85-9.66,8.25-15.27,11.34A24.58,24.58,0,0,1,123.12,141Z"/><path class="cls-2" d="M120.45,205.65c.28-1.07,1-.9,1.69-.53,1,.48.75,1.12.19,1.78Z"/><path class="cls-2" d="M118.91,204.59c.45-.15.73-1.18,1.34-.38.26.34.15,1,.21,1.44C119.72,205.63,119,205.56,118.91,204.59Z"/><polygon class="cls-2" points="172.42 121.03 172.27 121.03 172.22 121.31 172.42 121.03"/><path class="cls-2" d="M195.54,143.05c-4.37,16-17.74,24.53-29.61,35.21,6.47-1.12,9.7-6.88,16.41-9.19-10.29,11.32-23.1,14.63-36,19.25C163.76,173.64,181.05,159.92,195.54,143.05Z"/><path class="cls-2" d="M207.71,155.8c-2.87,16.16-10,23.65-23.73,32.7-3.82,2.95-27.19,17.25-27.19,17.25-7.06,3.33-2.1-1.22-4.18-.63C169.74,195.87,196.66,176.37,207.71,155.8Z"/><path class="cls-2" d="M140.55,144.15c3.33-1.46,6.22-4.13,10.63-3.78A14.23,14.23,0,0,1,140.55,144.15Z"/><path class="cls-3" d="M168.22,177.64s13.38-8.24,21.39-14.37,14-15.91,13.35-20.68-.08-6.56-3.87-5.23-6.31,10.49-6.31,10.49l-12.42,16.91-13.55,12.71Z"/></svg>