<svg id="Ebene_1" data-name="Ebene 1" xmlns="http://www.w3.org/2000/svg" viewBox="0 0 255.12 255.12"><defs><style>.cls-1{fill:#432918;}</style></defs><title>Logout</title><path class="cls-1" d="M127.34,209.76a72.46,72.46,0,0,1-70.71-57.4c-6.79-31,8.52-63.92,36.7-78.86,3.68-2,7.36-1.06,9.07,2.2s.47,6.49-3.16,8.54C80.41,94.85,69.39,111,67.7,132.38,65.83,156,75.29,175.07,95.25,188a59.87,59.87,0,0,0,90.95-37.39c6.06-26.66-5.76-52.21-29.48-65.94A10.87,10.87,0,0,1,152.4,80c-1-2.29-.15-4.76,2-6.37a6.26,6.26,0,0,1,7.06-.31A71.49,71.49,0,0,1,184.83,93c11.33,14.76,16.72,31.55,14.92,50-2.83,29.09-18,49.73-44.9,61.49A66.65,66.65,0,0,1,127.34,209.76Z"/><path class="cls-1" d="M135.67,84.1q0,15.08,0,30.16c0,5.06-3.4,8.67-8.06,8.67s-8.1-3.54-8.11-8.61q0-30.16,0-60.33c0-5.08,3.34-8.61,8.05-8.64s8.11,3.56,8.12,8.58Q135.69,69,135.67,84.1Z"/></svg>