<svg id="Ebene_1" data-name="Ebene 1" xmlns="http://www.w3.org/2000/svg" viewBox="0 0 255.12 255.12"><defs><style>.cls-1{fill:#98d3d8;stroke:#98d3d8;stroke-miterlimit:10;stroke-width:3px;}</style></defs><title>Warenkorb_t</title><path class="cls-1" d="M43.08,48.84c.46-3.07,2.36-3.43,4.41-3.44,4.21,0,8.42-.1,12.62,0a18,18,0,0,1,17,12.7c1,2.84,1.93,5.68,2.78,8.56a2,2,0,0,0,2.24,1.72q27.32.3,54.63.72,34.8.48,69.6,1a7.14,7.14,0,0,1,4.55,1.36,2,2,0,0,1,.47.57c.69,1.22,1,2.44-.16,5.7l-.06.2c-1.42,5.73-2.85,11.46-4.25,17.19-1.67,6.82-3.13,13.71-5,20.46a21.11,21.11,0,0,1-18.58,15.31l-45.17,4.72c-11.53,1.2-23.06,2.47-34.61,3.53-2.23.21-2.83,1.47-3.52,3.11-2.47,5.79.1,12.15,5.9,14.19a11.9,11.9,0,0,0,3.89.61q32.19,0,64.38,0c3.43,0,6.86,0,10.28,0,2.75,0,4.43,1.54,4.45,3.91s-1.62,3.92-4.4,3.92H121.58c-4,0-7.93,0-11.9,0-13.78-.15-22.45-13.58-16.79-26.17a8.74,8.74,0,0,0,.42-7c-7.9-23.5-15.66-47-23.5-70.58-1.84-5.51-5.11-7.8-10.9-7.85-3.49,0-7,0-10.46,0-2.15,0-5.37-.37-5.37-4.47M86,76.24a2.09,2.09,0,0,0-2,2.73v0q8.25,25,16.51,49.93c1,2.86.17,2.54,3.44,2.22,11.18-1.1,22.35-2.33,33.52-3.5Q160,125.29,182.59,123c6.27-.65,10.57-4.34,12.07-10.43,2.64-10.66,5.21-21.34,7.81-32v0a2.08,2.08,0,0,0-2-2.55Z"/><path class="cls-1" d="M114.83,192.16a17.63,17.63,0,1,1-17.6-17.68A17.65,17.65,0,0,1,114.83,192.16Zm-7.91,0a9.72,9.72,0,1,0-9.72,9.72A9.62,9.62,0,0,0,106.92,192.13Z"/><path class="cls-1" d="M189.25,192a17.61,17.61,0,1,1-17.73-17.54A17.65,17.65,0,0,1,189.25,192Zm-17.63,9.82a9.73,9.73,0,1,0,0-19.45,9.73,9.73,0,1,0,0,19.45Z"/></svg>