<svg id="Ebene_1" data-name="Ebene 1" xmlns="http://www.w3.org/2000/svg" viewBox="0 0 255.12 255.12"><defs><style>.cls-1{fill:#4c2b00;stroke:#4c2b00;stroke-miterlimit:10;}</style></defs><title>Rechteck</title><path class="cls-1" d="M127.59,209.76a2.52,2.52,0,0,1-1.3-.36,341.62,341.62,0,0,1-34-23.21,231.34,231.34,0,0,1-21.54-18.92A158.93,158.93,0,0,1,52,145.08a105.35,105.35,0,0,1-11.57-21.33,77.92,77.92,0,0,1-3.83-12.6,57.44,57.44,0,0,1-1.24-8.66c-.1-1.88-.21-4-.18-6.07a53.75,53.75,0,0,1,3.69-18.69,50.39,50.39,0,0,1,9.09-14.87,51.18,51.18,0,0,1,25-15.66c.65-.19,1.32-.36,2-.52a48.62,48.62,0,0,1,14.15-1.24,52,52,0,0,1,19.61,4.87,39.92,39.92,0,0,1,12.45,9.3,41.87,41.87,0,0,1,6.48,9.66l.51-1c.6-1.13,1.22-2.3,1.93-3.41a39.79,39.79,0,0,1,18.45-15.49,51.41,51.41,0,0,1,11.91-3.35,50.14,50.14,0,0,1,24.06,1.82A51.3,51.3,0,0,1,202,57.72,50.63,50.63,0,0,1,217.8,82a51.4,51.4,0,0,1,2.14,12.81c0,.88,0,1.77,0,2.63v1.17a55,55,0,0,1-.67,8.72,76.46,76.46,0,0,1-5,17.69,102.77,102.77,0,0,1-8.73,16.53,140.2,140.2,0,0,1-11.6,15.48,193.27,193.27,0,0,1-18.84,19c-3.65,3.24-7.52,6.48-11.51,9.61-6.51,5.13-13.63,10.24-21.16,15.19-3.43,2.25-7,4.45-10.38,6.58l-3.14,2A2.5,2.5,0,0,1,127.59,209.76ZM86.16,47.58a46.47,46.47,0,0,0-10.73,1.26c-.63.15-1.27.32-1.89.5a50,50,0,0,0-14.67,6.77,50.93,50.93,0,0,0-9.27,8.22,48,48,0,0,0-8.68,14.22,51,51,0,0,0-3.53,17.91c0,2,.07,4.07.17,5.91a55.28,55.28,0,0,0,1.19,8.32,76.64,76.64,0,0,0,3.73,12.25,103.48,103.48,0,0,0,11.33,20.88A157,157,0,0,0,72.3,165.7a228.26,228.26,0,0,0,21.34,18.73,339.9,339.9,0,0,0,33.79,23.07.28.28,0,0,0,.28,0l3.15-2c3.4-2.12,6.93-4.32,10.33-6.55,7.47-4.92,14.54-10,21-15.08,4-3.11,7.79-6.32,11.41-9.53a192.08,192.08,0,0,0,18.62-18.78,137.21,137.21,0,0,0,11.42-15.25,100.32,100.32,0,0,0,8.54-16.17A73.64,73.64,0,0,0,217.08,107h0a53,53,0,0,0,.64-8.38c0-.41,0-.8,0-1.2,0-.84,0-1.7,0-2.53a49.3,49.3,0,0,0-2.05-12.25,48.48,48.48,0,0,0-15.1-23.25A49.1,49.1,0,0,0,183.77,50a48,48,0,0,0-23-1.74,49.22,49.22,0,0,0-11.41,3.21,37.59,37.59,0,0,0-17.43,14.63c-.66,1-1.26,2.17-1.84,3.27l-.77,1.43c-.63,1.15-1.43,1.23-2,1.09a2.46,2.46,0,0,1-1.15-.73l-.09-.09a1.76,1.76,0,0,1-.42-.68l0-.07a39.32,39.32,0,0,0-6.16-9.21,37.45,37.45,0,0,0-11.76-8.78,49.7,49.7,0,0,0-18.78-4.66C88,47.61,87.09,47.58,86.16,47.58Z"/><path class="cls-1" d="M158.4,189.52,75.46,170.09a.25.25,0,0,1-.18-.15l-.8-1.84a.28.28,0,0,0-.12-.12l-1.28-.68a.26.26,0,0,1-.06-.41l3-3a.21.21,0,0,0,.07-.13l10.41-48.17a.26.26,0,0,0-.33-.3l-41.59,12.6c-.56.17-1.46-.45-1.22-1L80.1,46.55a1.31,1.31,0,0,1,.92-.26L98.48,58.34a.26.26,0,0,0,.39-.16l2-9.43a.24.24,0,0,1,.3-.19l1.67.36a.25.25,0,0,1,.2.3L100.79,59.8a.25.25,0,0,0,.11.26l43,31a.26.26,0,0,0,.41-.25l-4.56-34.61a1.3,1.3,0,0,1,1.61-1.43L213,72.46c.25.07.87,1,.63,1.11L149.83,94.85a.25.25,0,0,0-.07.45l58,42.1a.67.67,0,0,1-.25,1.2l-52.83,11.54a.26.26,0,0,0-.2.29l5.08,38A.94.94,0,0,1,158.4,189.52Zm-81.32-21,79.68,18.82a.26.26,0,0,0,.32-.28l-4.8-36.18a.25.25,0,0,0-.3-.22L78,166.05a.26.26,0,0,0-.2.2l-.58,2.68C77.19,169.07,76.94,168.52,77.08,168.56Zm67.73-70.88L80.16,162.85a.26.26,0,0,0,.24.43l71.32-14.8a.26.26,0,0,0,.2-.29l-6.67-50.36A.26.26,0,0,0,144.81,97.68ZM89,114.52,79.14,160a.26.26,0,0,0,.44.24l61.67-62.16a.26.26,0,0,0-.27-.43L89.15,114.33A.27.27,0,0,0,89,114.52Zm58.4-17.67,6.73,50.85a.26.26,0,0,0,.31.22L204,137.64a.26.26,0,0,0,.1-.46L147.77,96.6A.26.26,0,0,0,147.37,96.85ZM81.13,48.93l-34.8,76.36a.25.25,0,0,0,.31.35L87,112.7a.24.24,0,0,0,.17-.19L98.24,61.08a.24.24,0,0,0-.1-.26l-16.62-12A.27.27,0,0,0,81.13,48.93Zm19,13.79L89.64,111.43a.26.26,0,0,0,.33.3l54-17.34a.26.26,0,0,0,.07-.46l-43.5-31.36A.26.26,0,0,0,100.16,62.72Zm46.73,30.5.23.17,61.64-19.78a.26.26,0,0,0,0-.5L142.47,57.23a.25.25,0,0,0-.31.28Z"/></svg>