<svg id="Ebene_1" data-name="Ebene 1" xmlns="http://www.w3.org/2000/svg" viewBox="0 0 255.12 255.12"><defs><style>.cls-1{fill:none;stroke:#4c2b00;stroke-miterlimit:10;stroke-width:3px;}</style></defs><title>Herz</title><path class="cls-1" d="M209.76,127.56a82.2,82.2,0,1,1-82.2-82.21A82.2,82.2,0,0,1,209.76,127.56Z"/><path class="cls-1" d="M51,157.44l123.85-38.76,31.25-9.28a.17.17,0,0,0,0-.32L69.34,70.92a.4.4,0,0,0-.47.56l54,120.13,7.9,17.09a.7.7,0,0,0,1,.29l68.43-44.37L134.38,46.71a.72.72,0,0,0-1.3.1L80.85,189.11l-2,5.19"/><path class="cls-1" d="M174.81,118.68l-42.75,89.85a1.05,1.05,0,0,1-1.63.34l-42.88-38"/><line class="cls-1" x1="47.28" y1="109.81" x2="148.91" y2="169.95"/><path class="cls-1" d="M181.28,66.52l-39.59,61.21a.8.8,0,0,1-1.39-.08L101.67,49.52"/><line class="cls-1" x1="161.51" y1="146.63" x2="200.17" y2="164.62"/></svg>