<svg id="Ebene_1" data-name="Ebene 1" xmlns="http://www.w3.org/2000/svg" viewBox="0 0 255.12 255.12"><defs><style>.cls-1{fill:#4c2b00;}</style></defs><title>Rechteck</title><path class="cls-1" d="M230.73,194.8H24.39V60.22H230.73ZM27.47,191.73H227.65V63.3H27.47Z"/><path class="cls-1" d="M137.82,194.89l-22.49-81.21L77.52,101.21,51.39,136.39l24,58L24.75,167.09,47.88,136,24.9,80.6l51.48,17,27.45-36.95,14,50.64,112.5,37.12Zm-19-80,20.94,75.63L222.33,149Zm-89.5,51.23,40,21.51-.24-.59L49.25,139.26Zm1-80.44L50,133.08l24.44-32.89Zm49.14,13,34.89,11.51-11.8-42.6Z"/><path class="cls-1" d="M58.34,159.89l-.74-3,164.51-40.49-36.2-25.93-45.85,29.64a2.32,2.32,0,0,1-2.6,0,2.35,2.35,0,0,1-1-2.41l13.15-56.95L186,86.77l40.68-26.3,1.67,2.58L188.69,88.69l40.64,29.11Zm93.26-94-11.7,50.66,43.33-28Z"/><rect class="cls-1" x="80.04" y="53.29" width="3.07" height="102.36" transform="translate(-44.06 62.24) rotate(-33.43)"/><rect class="cls-1" x="183.43" y="113.94" width="3.07" height="103.98" transform="translate(-53.43 236.04) rotate(-58.28)"/><rect class="cls-1" x="98.24" y="132.94" width="3.07" height="85.78" transform="translate(-101.43 195.53) rotate(-66.02)"/></svg>