<svg id="Ebene_1" data-name="Ebene 1" xmlns="http://www.w3.org/2000/svg" viewBox="0 0 255.12 255.12"><defs><style>.cls-1{fill:#e33229;}.cls-2{fill:#84b427;}.cls-3{fill:#832c30;}</style></defs><title>Erdbeere</title><path class="cls-1" d="M93.42,209.76h-.57a.65.65,0,0,0-.8,0H86.23a.66.66,0,0,0-.8,0h-.34c0-.25-.22-.21-.38-.23a30.75,30.75,0,0,1-7-1.7,23.49,23.49,0,0,1-10.68-8,33.14,33.14,0,0,1-4.74-9.12c-.34-1-.61-2-1-2.93a3.58,3.58,0,0,1-.18-.77c-.07-.85-.15-1.71-.21-2.56-.14-1.82-.26-3.64-.39-5.46q-.27-3.72-.52-7.44c-.07-.95-.12-1.9-.17-2.84-.1-1.58-.2-3.15-.29-4.72-.07-1.29-.08-2.59-.17-3.88-.14-2-.16-4-.28-6-.07-1.1,0-2.2-.11-3.31-.09-1.84-.09-3.68-.13-5.52,0-.54,0-1.07,0-1.6,0-.18,0-.39-.16-.52v-4.57c.23-.16.15-.41.16-.63,0-1.44,0-2.89.06-4.33.08-2.07.13-4.14.24-6.21.07-1.25.15-2.5.22-3.75.17-2.79.48-5.57.81-8.34q.55-4.78,1.54-9.51a80.29,80.29,0,0,1,2.35-8.63,55.6,55.6,0,0,1,4.16-9.68,44.41,44.41,0,0,1,8.88-11.38,47.78,47.78,0,0,1,6.65-5.09A54.43,54.43,0,0,1,96.25,65.4,12.42,12.42,0,0,0,98,64.83a2.35,2.35,0,0,1,.74.09c2.88.67,5.76,1.35,8.61,2.17a97.47,97.47,0,0,1,12.12,4.19,44.31,44.31,0,0,1,8.8,4.91A22.12,22.12,0,0,1,131.46,79c.21.22.27.39,0,.61a3.37,3.37,0,0,0-.29.35,54.94,54.94,0,0,0-5.06,6.89,35.66,35.66,0,0,0-4.44,10.46,25.62,25.62,0,0,0-.49,9.07,2.28,2.28,0,0,0,2.25,2,5.09,5.09,0,0,0,1.16-.24A72,72,0,0,1,142.27,104a54.25,54.25,0,0,1,6.5-.14c.6,0,.61,0,.59.63-.06,1.82-.15,3.64-.3,5.46a84.94,84.94,0,0,1-1.25,9.27,98,98,0,0,1-4,14.56,5.5,5.5,0,0,0-.28,1.56,1.58,1.58,0,0,0,1,1.49,2.2,2.2,0,0,0,1.55.15,62.44,62.44,0,0,0,12.91-4.8,28.38,28.38,0,0,0,7.33-5.29,17.61,17.61,0,0,0,4.72-8.21c.16-.63.16-.62.78-.32a22.29,22.29,0,0,1,9,8.23,32.24,32.24,0,0,1,3,6.25,2,2,0,0,0,1.44,1.45c0,.25,0,.49,0,.74a52.53,52.53,0,0,1-.54,8.86,44.93,44.93,0,0,1-1.42,6.63,29.36,29.36,0,0,1-2.4,6.37,45.27,45.27,0,0,1-2.33,3.91,47.27,47.27,0,0,1-6.21,7q-3.21,3-6.7,5.75c-3.64,2.86-7.43,5.5-11.29,8-2.6,1.72-5.24,3.37-7.91,5-4.61,2.81-9.3,5.47-14,8.09-3.21,1.78-6.45,3.49-9.69,5.21-1.75.92-3.5,1.84-5.26,2.74a28.43,28.43,0,0,1-4.75,2.2c-.58.17-1.15.39-1.72.59a89.86,89.86,0,0,1-9.91,2.89,62.61,62.61,0,0,1-7.47,1.26C93.64,209.54,93.44,209.51,93.42,209.76Z"/><path class="cls-2" d="M185.4,134.27a2,2,0,0,1-1.44-1.45,32.24,32.24,0,0,0-3-6.25,22.29,22.29,0,0,0-9-8.23c-.62-.3-.62-.31-.78.32a17.61,17.61,0,0,1-4.72,8.21,28.38,28.38,0,0,1-7.33,5.29,62.44,62.44,0,0,1-12.91,4.8,2.2,2.2,0,0,1-1.55-.15,1.58,1.58,0,0,1-1-1.49,5.5,5.5,0,0,1,.28-1.56,98,98,0,0,0,4-14.56,84.94,84.94,0,0,0,1.25-9.27c.15-1.82.24-3.64.3-5.46,0-.59,0-.61-.59-.63a54.25,54.25,0,0,0-6.5.14,72,72,0,0,0-17.66,4.15,5.09,5.09,0,0,1-1.16.24,2.28,2.28,0,0,1-2.25-2,25.62,25.62,0,0,1,.49-9.07,35.66,35.66,0,0,1,4.44-10.46A54.94,54.94,0,0,1,131.19,80a3.37,3.37,0,0,1,.29-.35c.25-.22.19-.39,0-.61a22.12,22.12,0,0,0-3.15-2.81,44.31,44.31,0,0,0-8.8-4.91,97.47,97.47,0,0,0-12.12-4.19c-2.85-.82-5.73-1.5-8.61-2.17a2.35,2.35,0,0,0-.74-.09,2.42,2.42,0,0,0-.7-.19c-.71-.15-1.42-.28-2.12-.46a2,2,0,0,1-1.17-.75,1.68,1.68,0,0,1-.27-1.84,1.28,1.28,0,0,0,.11-.33A.31.31,0,0,1,94,61a3,3,0,0,1,1.43-.49c1,.05,2,0,3,.06l2.85.07c2.34,0,4.67.15,7,.22,1.14,0,2.28,0,3.42.06.79,0,1.59,0,2.39.06,2.35.07,4.71.16,7.06.22,1.88.05,3.76.05,5.64.13.89,0,1.79,0,2.68.09a8.55,8.55,0,0,0,1.82,0,.83.83,0,0,0-.2-.54c-1.69-3-3.37-6-5.07-8.91a6.05,6.05,0,0,1-.52-1.2c-.06-.22-.22-.43-.09-.66s.28-.85.65-1.12a2.06,2.06,0,0,1,1.46-.51,3,3,0,0,1,1,.22c.56.28,1.14.51,1.71.78a61.35,61.35,0,0,1,9.4,5.57,53.94,53.94,0,0,1,9.22,8.38A57.32,57.32,0,0,1,157.64,77a3.34,3.34,0,0,0,.48.88c.63-.67,1.25-1.31,1.84-2a69.87,69.87,0,0,0,4.74-6A63.63,63.63,0,0,0,170.49,60a68.71,68.71,0,0,0,4.35-12.57,2.5,2.5,0,0,1,1.27-1.65,1.74,1.74,0,0,0,.66-.44h2.85c.32.17.5.17.69,0h.34c-.1,0-.09.11,0,.16a.82.82,0,0,0,.38.09A14.36,14.36,0,0,1,185.09,47a13.27,13.27,0,0,1,5.66,6.36,24.81,24.81,0,0,1,1.93,8.9,43.86,43.86,0,0,1,.08,4.44,2.28,2.28,0,0,1-1,1.89l-7.7,5.68-12.47,9.21c-.1.07-.26.12-.21.31L172,84a30.94,30.94,0,0,1,7.52,3.36,41.33,41.33,0,0,1,9.12,7.76,65.69,65.69,0,0,1,6.42,8.63c.39.61.75,1.23,1.14,1.85,0,.06.07.27.21.06v.57c-.2.11-.17.23,0,.34v.57c-.17.09-.2.27-.3.4s-.26.55-.52.66a3.2,3.2,0,0,1-1.43.37l-3.06-.21-4.71-.31-3.35-.22c-.14,0-.3,0-.41.07a1.06,1.06,0,0,0,.29.44A24.41,24.41,0,0,1,188.69,124c0,.81,0,1.63-.05,2.45a36.24,36.24,0,0,1-.89,6.13c-.18.8-.52,1.55-1.51,1.7A7.88,7.88,0,0,1,185.4,134.27Z"/><ellipse class="cls-3" cx="87.45" cy="83.07" rx="6.42" ry="3.95" transform="translate(-23.26 130.95) rotate(-66.92)"/><ellipse class="cls-3" cx="97.27" cy="110.25" rx="6.42" ry="3.95" transform="matrix(0.39, -0.92, 0.92, 0.39, -42.29, 156.52)"/><ellipse class="cls-3" cx="110.33" cy="88.2" rx="6.42" ry="3.95" transform="translate(-14.06 155.12) rotate(-66.92)"/><ellipse class="cls-3" cx="71.96" cy="114.2" rx="6.42" ry="3.95" transform="translate(-61.31 135.63) rotate(-66.92)"/><ellipse class="cls-3" cx="95.43" cy="143.34" rx="6.42" ry="3.95" transform="translate(-73.85 174.93) rotate(-66.92)"/><ellipse class="cls-3" cx="134.74" cy="121.4" rx="6.42" ry="3.95" transform="translate(-29.77 197.76) rotate(-66.92)"/><ellipse class="cls-3" cx="118.68" cy="143.34" rx="6.42" ry="3.95" transform="translate(-59.71 196.32) rotate(-66.92)"/><ellipse class="cls-3" cx="165.33" cy="144.84" rx="6.42" ry="3.95" transform="translate(-32.74 240.15) rotate(-66.92)"/><ellipse class="cls-3" cx="110.33" cy="174.53" rx="6.42" ry="3.95" transform="translate(-93.48 207.6) rotate(-66.92)"/><ellipse class="cls-3" cx="71.96" cy="158.18" rx="6.42" ry="3.95" transform="translate(-101.77 162.37) rotate(-66.92)"/><ellipse class="cls-3" cx="81.1" cy="186.96" rx="6.42" ry="3.95" transform="translate(-122.68 188.27) rotate(-66.92)"/><ellipse class="cls-3" cx="141.1" cy="168.36" rx="6.42" ry="3.95" transform="translate(-69.09 232.16) rotate(-66.92)"/></svg>