<svg id="Ebene_1" data-name="Ebene 1" xmlns="http://www.w3.org/2000/svg" viewBox="0 0 255.12 255.12"><defs><style>.cls-1{fill:#f8d84e;}.cls-2{fill:#d5a523;}.cls-3{fill:#cfa542;}.cls-4{fill:#fff;}.cls-5{fill:#91601d;}</style></defs><title>Gold</title><path class="cls-1" d="M62.09,194.38c-1,.21-1.35-.61-1.77-1.15a47.65,47.65,0,0,1-4.82-8c-1-2-2.17-4-3.38-6-2.06-3.31-4.12-6.63-6-10s-3.85-6.59-5.78-9.88c-2.38-4-4.73-8.13-7.18-12.14-.69-1.13-1-2.4-1.84-3.48a2.41,2.41,0,0,1-.24-2.09q3.21-12.26,6.37-24.52c.53-2,1-4,1.61-6,.13-.45.28-1,.87-1.18a3.79,3.79,0,0,0,.26,4.3c2.45,3.13,4.31,6.64,6.54,9.91,1.73,2.54,3.34,5.16,5,7.74,3,4.6,6,9.16,8.81,13.81,1.2,2,2.08,4,4.43,5.05.67.29,1.1.45,1.62.18,4.75-2.49,9.87-4,14.86-5.89,7.23-2.69,14.37-5.61,21.62-8.27,5-1.84,10-3.8,15-5.79,3.07-1.22,6.28-2.09,9.29-3.41,4.53-2,9.2-3.61,13.78-5.44s9.24-3.42,13.85-5.18c10.25-3.91,20.5-7.82,30.79-11.63,4.11-1.52,8.21-3.09,12.29-4.66,3-1.17,6.06-2.44,9.08-3.67,1.41-.57,2.95-.85,4.16-1.9s1.14-3.54-.26-4.33c-.32-.18-.74-.46-1.16-.06s0,.59.17.86c.61,1.15,0,2.3-1.33,2.07a4.54,4.54,0,0,0-2.77.63,41.58,41.58,0,0,0-4.67,2.46c-1.78,1-3.84,1.37-5.72,2.18-2.18.93-4.52,1.36-6.7,2.38-1.48.69-3.15,1.14-4.71,1.76A55.6,55.6,0,0,1,178.9,105a73.18,73.18,0,0,0-9,3.17c-3,1.29-6,2.53-9,3.84-3.51,1.53-7.26,2.46-10.75,4-3.1,1.38-6.37,2.23-9.49,3.54-2.62,1.11-5.31,2.14-8,3.08-3.09,1.07-6,2.46-9.08,3.63-2.6,1-5.32,1.7-7.93,2.67-4.78,1.77-9.39,4-14.25,5.55-.43.14-1.12.71-1.58-.11a1.07,1.07,0,0,1,.62-.42c3.22-1.25,6.45-2.48,9.67-3.76q12.65-5,25.29-10.09c7-2.77,14-5.44,20.92-8.31,4.7-2,9.65-3.21,14.22-5.47.79-.39.82-.34,1.51-1.54a155,155,0,0,0-16.63,6c.61.39,1-.35,1.46-.07-.11.36-.44.37-.7.44-2.57.66-4.86,2.05-7.37,2.84-4.22,1.33-8,4.13-12.7,3.88a3.23,3.23,0,0,0-.72.2,4.26,4.26,0,0,1,.78.12c.2.08.48.09.51.5-1.94.52-3.93.33-5.9,1.19-4.63,2-9.4,3.71-14.22,5.28-6.89,2.24-13.63,4.94-20.41,7.51a27.46,27.46,0,0,0-5,2.1c.42.5,1,.09,1.37.33h0c-.27.39-.73.42-1.11.57q-4.41,1.66-8.82,3.29c-5.37,2-10.63,4.29-16.14,5.9-.76.22-1.67.82-2-.59l-.45.14c-.83-.81-.68-2-1.29-3q-5.28-8.07-10.47-16.21c-3.13-4.94-6.53-9.68-9.86-14.48-.63-.89-1.36-1.42-2.47-.78a3.89,3.89,0,0,1,2.21-1.82q9.82-3.56,19.67-7Q70.91,97.82,80,94.61l22.84-8c7.05-2.48,14.1-4.94,21.14-7.43Q135.71,75,147.4,70.85l28.73-10.21a20.91,20.91,0,0,1,2.09-.61,5.09,5.09,0,0,1,5.28,1.4c5.72,5.94,11.49,11.82,17.18,17.79,3.66,3.83,7.5,7.47,11,11.44a5.28,5.28,0,0,1,1.14,2.12c2.16,7.69,4.79,15.24,7.15,22.86.79,2.54,1.35,5.14,2.26,7.63a19.42,19.42,0,0,0,1.66,4.34,3.06,3.06,0,0,1,0,2.63c-.8,2.76-3.2,3.28-5.32,4.19-6,2.58-12,5.13-18.08,7.58-1.46.59-2.82,1.55-4.49,1.57.06-.09.11-.23.2-.27,3-1.35,6.08-2.62,9.1-3.95,4.13-1.82,8.37-3.37,12.53-5.11a12.19,12.19,0,0,0,4.23-2.33,3.84,3.84,0,0,0-1.22.31c-2.91,1.19-5.82,2.39-8.74,3.57l-23.64,9.48c-2.13.85-4.21,1.86-6.35,2.63-2.29.83-4.61,1.62-6.89,2.52-4.15,1.66-8.32,3.28-12.47,5-4.62,1.88-9.29,3.64-13.9,5.53-7.09,2.92-14.29,5.57-21.43,8.38-7.33,2.9-14.63,5.87-22,8.79-5.34,2.13-10.7,4.21-16,6.36-7.6,3.06-15.18,6.19-22.8,9.22a4.86,4.86,0,0,1-5.39-1c-.22-.2-.46-.36-.83-.65C60.72,193.21,61.58,193.66,62.09,194.38Zm70.49-94.3-.26-.24a1,1,0,0,0-.53-.75c-.23-.15,0-.71-.56-.55a1.28,1.28,0,0,0-.3.17l.81.42a.72.72,0,0,0,.49.8l.24.27c.08.23,0,.53.27.68A.64.64,0,0,0,132.58,100.08Zm21-16.89-.07-.06.08.05.81.87C154.3,83.56,154.1,83.17,153.59,83.19Zm-1.53,4.11-1.47.35c.67.14,1.13.13,1.45-.37a2,2,0,0,0,1.55-.51,3.22,3.22,0,0,0,1.59-.6c-.55.14-1.18.12-1.58.62A2,2,0,0,0,152.06,87.3ZM131.9,105.37l1.27-1c-.65.07-1.21.22-1.45.83a.76.76,0,0,0-.07,1Zm4.47-20.62c.07.18.07.43.36.43,0,0,.08-.06.08-.09,0-.27-.17-.34-.36-.42-.07-.61-.45-.51-.83-.35a.29.29,0,0,0-.16.42C135.74,85.12,136.06,84.6,136.37,84.75Zm-11.79,5.62a.42.42,0,0,0-.64-.08l.64.09a1.37,1.37,0,0,0,1,1.32l.18.54s.08,0,.09-.08a.4.4,0,0,0-.21-.51A2.24,2.24,0,0,0,124.58,90.37ZM79.4,128.63c-.83.07-1.52.65-2.37.68a4.76,4.76,0,0,0,2.36-.68c.29-.26.37-.53,0-1ZM128.19,95c0-.17,0-.34-.18-.41,0,0-.11.05-.17.07l.33.36c.1.7,1,1,1,1.74C129.47,95.8,129,95.3,128.19,95Zm-56,17.22c-.14-.26-.33-.29-.62-.08l.62.07c.58.47.71,1.25,1.26,2C73.48,113.06,73.37,112.26,72.21,112.2Zm64.06-23c-1.18.51-1,1.48-.77,2.45a4.45,4.45,0,0,1,.95-2.29.83.83,0,0,0,.51-.51l2.83-1.48a4,4,0,0,0-3,1.31A.7.7,0,0,0,136.27,89.24Zm20.92,2.67c.85-.07,1.91.38,2.27-1l-2.27,1-.53.08C156.87,92.09,157.07,92.16,157.19,91.91ZM79.37,126.34l.82,1.39c.08-.72,0-1.29-.72-1.5-1.54-.91-2.91-.19-4.3.41C76.56,126.42,77.9,125.42,79.37,126.34Zm62.23-45a.57.57,0,0,0-.73-.43.74.74,0,0,1-.82-.4c-.28-.55-.28-.67-.75-.35s-.44,0-.64,0c-2.78-.7-5.21.28-7.43,1.76-1.55,1-1.62,1.5-1.37,2.87.79-3.17,5.44-5,8.69-4.58-.28.5.23.44.42.52.7.27,1.42.49,2.13.73l.35.08L143,84A2.26,2.26,0,0,0,141.6,81.32Zm16.61,22.14a2,2,0,0,0,0-2.59,23.16,23.16,0,0,0-3-3.41,4.13,4.13,0,0,0,1.43,2.19c1,1.1,2,2.17,1.61,3.82l-.05.06Zm-10.51,1.28a2.16,2.16,0,0,0-1.25-1.31,1.69,1.69,0,0,0,1.23,1.33,1.71,1.71,0,0,0,1.11.75,9.06,9.06,0,0,0,7.69-1.55,1,1,0,0,0,.48-.73,1.06,1.06,0,0,0,.06-1.62l-.17,1.54C154,105.07,151.13,106.36,147.7,104.74Zm16.17-10.27.08.06-.09,0c-.62-1.6-2-2.54-3.11-3.72-.39.34.16.72-.2,1.09a4.54,4.54,0,0,1-4.34,1.51c-.42-.08-.82-.22-.88.31s.44.48.81.51a7.65,7.65,0,0,0,3.77-1.09c1.08-.5,2-.74,2.76.5A1.6,1.6,0,0,0,163.87,94.47Zm-19.79,6.35a1.86,1.86,0,0,0,2.75,1.07c2.49-1,5-1.84,7.54-2.75.19-.07.42-.12.34-.42a.4.4,0,0,0-.47-.06c-2.18.83-4.39,1.6-6.53,2.52A4.11,4.11,0,0,1,144.08,100.82Zm12.83-11.61c-.85.06-1.31-.79-2.14-.32a5.33,5.33,0,0,1-2.26.82c.6-.3,1.33.8,2.22.16.25-.17.73-.5,1.05-.12s-.15.68-.3,1c-.34.75-1.07,1.35-1.09,2.22l.32.15Zm-8.08,5.11-.12-.46a33.06,33.06,0,0,0-4.77,1.75c-1.49.82-3.12,0-4.85.73C142.93,97.27,145.65,94.8,148.83,94.32Zm-10.17-.82c2.76,0,5.44-.33,7.62-2.24a1.6,1.6,0,0,0,.65-2C145.12,92.67,142,93.27,138.66,93.5ZM131,84.41a2,2,0,0,0,1.43,2.36c1.26.41,2.34-.35,3.44-1C134,86.42,132,87.47,131,84.41Zm-56.18,32.1c-1.6-.72-2.41-.59-5,.71-.4.21-.94.34-.83,1.18A6.86,6.86,0,0,1,74.85,116.51ZM70.94,112c-1-.48-4.51.39-5.11,1.27-.25.36.06.61.1.94C66.88,112.83,68.2,112.25,70.94,112Zm7.53-.9c1.68-.2,2,1.18,3.12,2C80.66,110.41,80,110,78.47,111.11Zm5.63,7.76a2.9,2.9,0,0,1-.65.22,1.68,1.68,0,0,0-1.8.77c-.4.77.56.64.78,1a2.5,2.5,0,0,1,.09.49c0,.19.15.34.33.25a1.24,1.24,0,0,0,.46-.42c.15-.24-.14-.23-.25-.3l-1-.62C82.55,119.66,83.27,119.53,84.1,118.87Zm68.77-24.19c-.67-1.09-1.65-1.7-2.15-2.7a.32.32,0,0,0-.52-.13c-.21.18-.49.38-.36.73s.15.5.29.55c1.18.42,1.17.42,1.56.79S152.16,94.63,152.87,94.68Zm-16.49,11.68c-1.59,1.72-2.76,1.18-3.75-.9-.15,1.59.79,1.88,1.71,2S136.21,107.75,136.38,106.36Zm11.69-16c.23-1.84-.34-2.69-2.28-3.12C147,88.1,148,88.89,148.07,90.34ZM82.16,113.51a.49.49,0,0,0-.51.54,1.53,1.53,0,0,0,1.25.92c.23,0,.48-.26.31-.37C82.76,114.3,82.73,113.57,82.16,113.51Zm46.44-11c-1.08,0-2.42.54-2.76-1.52C125.62,102.65,126.83,103.16,128.6,102.52Zm6.38,1.54c1.22.45,1.69,1.57,2.39,2.53A2.57,2.57,0,0,0,135,104.06ZM127,100.5c.17-1,1.24-1.15,1.73-2.13C127.52,98.71,126.7,99.11,127,100.5ZM79.55,123.24c.35-1.61-.37-2.15-1.48-2.41A3.29,3.29,0,0,1,79.55,123.24Zm41.55-32.8c-1.17.5-1.3.83-.52,2C120.22,91.45,120.89,91.06,121.1,90.44Zm-49,34.12c-.37-.58.15-1.19-.15-2.15C71.63,123.4,71.55,124,72.05,124.56Zm12.82-3.49.08-.86c-.19.06-.49.08-.56.21C84.19,120.81,84.61,120.87,84.87,121.07Zm43.29-16.48-.52-.11c-.28,0-.57,0-.3.33S127.79,104.82,128.16,104.59Zm9.16-18.79c0-.07,0-.17-.09-.21s-.14,0-.21,0l.11.28ZM72.74,122c-.06,0-.16.06-.2.12s0,.14,0,.22l.2-.14C72.88,122.13,72.86,122.06,72.74,122Z"/><path class="cls-2" d="M62.09,194.38c-.51-.72-1.37-1.17-1.68-2.32.37.29.61.45.83.65a4.86,4.86,0,0,0,5.39,1c7.62-3,15.2-6.16,22.8-9.22,5.34-2.15,10.7-4.23,16-6.36,7.33-2.92,14.63-5.89,22-8.79,7.14-2.81,14.34-5.46,21.43-8.38,4.61-1.89,9.28-3.65,13.9-5.53,4.15-1.68,8.32-3.3,12.47-5,2.28-.9,4.6-1.69,6.89-2.52,2.14-.77,4.22-1.78,6.35-2.63l23.64-9.48c2.92-1.18,5.83-2.38,8.74-3.57a3.84,3.84,0,0,1,1.22-.31,12.19,12.19,0,0,1-4.23,2.33c-4.16,1.74-8.4,3.29-12.53,5.11-3,1.33-6.07,2.6-9.1,3.95-.09,0-.14.18-.2.27l-.67.27c-.19-.1-.33-.1-.38.15a5,5,0,0,1-2,.84c-1.5,0-2.66,1-4,1.49l-20.72,8.35c-5.69,2.29-11.38,4.56-17.06,6.87a10.72,10.72,0,0,0-3.43,1.63l-.89.32a2.64,2.64,0,0,0-2.22.9l-.89.35a12.34,12.34,0,0,0-4.76,2l-.87.32c-.32-.13-.65-.3-.63.29l-.44.19a2.05,2.05,0,0,0-1.9.74l-.9.32c-.52-.33-.89.1-1.3.27-5.09,2-10.13,4.27-15.3,6.14-6,2.17-11.73,4.93-17.7,7.13-3.55,1.3-7,2.82-10.53,4.25a67.07,67.07,0,0,0-6.94,2.8l-.77.32c-.41-.15-.75.12-1.08.25-4.5,1.72-9,3.47-13.48,5.21a6.55,6.55,0,0,1-3.32.06,2.73,2.73,0,0,0-1.25-.35Z"/><path class="cls-3" d="M82.53,189.18a67.07,67.07,0,0,1,6.94-2.8c3.51-1.43,7-2.95,10.53-4.25,6-2.2,11.71-5,17.7-7.13,5.17-1.87,10.21-4.09,15.3-6.14.41-.17.78-.6,1.3-.27.06.38-.27.39-.48.48-1.86.8-3.68,1.74-5.6,2.35-2.39.75-4.59,1.92-7,2.74-3.85,1.35-7.6,3-11.38,4.55-4.66,1.91-9.29,3.89-14,5.75-4.22,1.68-8.49,3.25-12.73,4.86C82.93,189.42,82.69,189.5,82.53,189.18Z"/><path class="cls-3" d="M147.8,163.18a10.72,10.72,0,0,1,3.43-1.63c5.68-2.31,11.37-4.58,17.06-6.87L189,146.33c1.31-.53,2.47-1.47,4-1.49-1.23,1.09-2.82,1.46-4.27,2.06-7.25,3-14.53,5.95-21.81,8.89q-8.82,3.59-17.67,7.11C148.79,163.07,148.34,163.45,147.8,163.18Z"/><path class="cls-3" d="M67.2,195c4.49-1.74,9-3.49,13.48-5.21.33-.13.67-.4,1.08-.25-.42,1-1.52,1-2.29,1.32-3.67,1.5-7.41,2.82-11.14,4.16C68,195.1,67.55,195.66,67.2,195Z"/><path class="cls-3" d="M139,166.73a12.34,12.34,0,0,1,4.76-2A10,10,0,0,1,139,166.73Z"/><path class="cls-3" d="M144.69,164.4a2.64,2.64,0,0,1,2.22-.9A2.35,2.35,0,0,1,144.69,164.4Z"/><path class="cls-3" d="M135.2,168.27a2.05,2.05,0,0,1,1.9-.74A1.84,1.84,0,0,1,135.2,168.27Z"/><path class="cls-3" d="M62.63,194.67a2.73,2.73,0,0,1,1.25.35C63.23,195.4,63,195.34,62.63,194.67Z"/><path class="cls-3" d="M137.54,167.34c0-.59.31-.42.63-.29C138.11,167.48,137.86,167.49,137.54,167.34Z"/><path class="cls-3" d="M195,144c0-.25.19-.25.38-.15a.19.19,0,0,1-.11.3A.18.18,0,0,1,195,144Z"/><path class="cls-2" d="M99.82,134.33c.46.82,1.15.25,1.58.11,4.86-1.56,9.47-3.78,14.25-5.55,2.61-1,5.33-1.66,7.93-2.67,3-1.17,6-2.56,9.08-3.63,2.7-.94,5.39-2,8-3.08,3.12-1.31,6.39-2.16,9.49-3.54,3.49-1.55,7.24-2.48,10.75-4,3-1.31,6-2.55,9-3.84a73.18,73.18,0,0,1,9-3.17,55.6,55.6,0,0,0,5.23-1.92c1.56-.62,3.23-1.07,4.71-1.76,2.18-1,4.52-1.45,6.7-2.38,1.88-.81,3.94-1.17,5.72-2.18a41.58,41.58,0,0,1,4.67-2.46,4.54,4.54,0,0,1,2.77-.63c1.31.23,1.94-.92,1.33-2.07-.14-.27-.58-.46-.17-.86s.84-.12,1.16.06c1.4.79,1.49,3.26.26,4.33s-2.75,1.33-4.16,1.9c-3,1.23-6,2.5-9.08,3.67-4.08,1.57-8.18,3.14-12.29,4.66-10.29,3.81-20.54,7.72-30.79,11.63-4.61,1.76-9.27,3.36-13.85,5.18s-9.25,3.45-13.78,5.44c-3,1.32-6.22,2.19-9.29,3.41-5,2-10,3.95-15,5.79-7.25,2.66-14.39,5.58-21.62,8.27-5,1.86-10.11,3.4-14.86,5.89-.52.27-1,.11-1.62-.18-2.35-1-3.23-3.09-4.43-5.05-2.86-4.65-5.86-9.21-8.81-13.81-1.66-2.58-3.27-5.2-5-7.74-2.23-3.27-4.09-6.78-6.54-9.91a3.79,3.79,0,0,1-.26-4.3l0,0c1.11-.64,1.84-.11,2.47.78,3.33,4.8,6.73,9.54,9.86,14.48q5.18,8.14,10.47,16.21c.61.93.46,2.16,1.29,3l.06.32a1.11,1.11,0,0,0,0,1.21l.14.63c0,.45.12.73.68.65a39.55,39.55,0,0,0,8.18-2c4.89-1.79,9.75-3.64,14.63-5.47a47.91,47.91,0,0,0,7.16-3.22l.31-.15a.35.35,0,0,0,.46-.19l.09,0c.37.08.71,0,.89-.35a.51.51,0,0,1,.58-.21c.93,0,1.82,0,2.25-1Z"/><path class="cls-4" d="M99.82,134.33l-.34.17a3,3,0,0,0-2.25,1,.51.51,0,0,0-.58.21.69.69,0,0,0-.89.35l-.09,0a.32.32,0,0,0-.46.19l-.31.15a1.29,1.29,0,0,0-1.34,0,22.29,22.29,0,0,1-4,1.58c-1.88.79-3.84,1.38-5.75,2.09-3.72,1.39-7.32,3.14-11.25,3.93a2.32,2.32,0,0,0-.8.37,37.71,37.71,0,0,1-4.24,1.8c-.94.44-2.2-.11-3.29.27l-.14-.63a1.46,1.46,0,0,0,0-1.21l-.06-.32.45-.14c.29,1.41,1.2.81,2,.59,5.51-1.61,10.77-3.92,16.14-5.9q4.41-1.64,8.82-3.29c.38-.15.84-.18,1.11-.57l.19-.1-.12-.08-.07.19c-.4-.24-.95.17-1.37-.33a27.46,27.46,0,0,1,5-2.1c6.78-2.57,13.52-5.27,20.41-7.51,4.82-1.57,9.59-3.27,14.22-5.28,2-.86,4-.67,5.9-1.19,0-.41-.31-.42-.51-.5a4.26,4.26,0,0,0-.78-.12,3.23,3.23,0,0,1,.72-.2c4.7.25,8.48-2.55,12.7-3.88,2.51-.79,4.8-2.18,7.37-2.84.26-.07.59-.08.7-.44-.51-.28-.85.46-1.46.07a155,155,0,0,1,16.63-6c-.69,1.2-.72,1.15-1.51,1.54-4.57,2.26-9.52,3.52-14.22,5.47-6.93,2.87-13.94,5.54-20.92,8.31q-12.65,5-25.29,10.09c-3.22,1.28-6.45,2.51-9.67,3.76A1.07,1.07,0,0,0,99.82,134.33Zm26.31-11.86c.3,0,.6.11.77-.26a9,9,0,0,0,3.16-1.22c-1.1.31-2.32.28-3.17,1.22-.31-.07-.61-.12-.77.25l-.44.08c0,.06.07.15.11.16A.25.25,0,0,0,126.13,122.47Zm-26.7,10a.58.58,0,0,0-.67.09s0,.09.06.1a.41.41,0,0,0,.6-.19c.23,0,.44,0,.51-.26a2.39,2.39,0,0,0,2.06-.77l.41-.12s-.05-.09-.07-.1a.25.25,0,0,0-.34.22,2.34,2.34,0,0,0-2,.77C99.72,132.2,99.47,132.14,99.43,132.48Zm4.11-1.54a.55.55,0,0,0-.65.1s0,.08,0,.09a.4.4,0,0,0,.59-.2c.15,0,.31,0,.39-.15a.24.24,0,0,0-.09-.08C103.65,130.67,103.52,130.72,103.54,130.94Zm-9.25,3.33a1.1,1.1,0,0,0-1.14.42,1.12,1.12,0,0,0,1.15-.41l.39-.12s0-.07-.07-.08S94.32,134.08,94.29,134.27Zm2.31-.76a2.19,2.19,0,0,0,1.69-.7c-.64.06-1.36-.07-1.69.69A1.77,1.77,0,0,0,95,134C95.8,134.05,96.25,133.94,96.6,133.51Zm27.47-10.28a4.17,4.17,0,0,0-2.63,1,4.45,4.45,0,0,0,2.63-1l.41-.11s0-.09-.07-.09A.24.24,0,0,0,124.07,123.23Zm-11.69,4.32a1.7,1.7,0,0,0,.38,0s.06-.1.1-.15a1.43,1.43,0,0,0-.35-.06S112.44,127.46,112.38,127.55Zm-.62.07-.16.12s.06.08.08.08l.2-.08Zm-1.28.51-.15.12s.06.08.08.08a1.46,1.46,0,0,0,.19-.07ZM125.05,123l.2-.09s-.07-.13-.11-.14a.64.64,0,0,0-.2.08Z"/><path class="cls-5" d="M163.87,94.47a1.6,1.6,0,0,1-1.2-.88c-.77-1.24-1.68-1-2.76-.5a7.65,7.65,0,0,1-3.77,1.09c-.37,0-.89.07-.81-.51s.46-.39.88-.31a4.54,4.54,0,0,0,4.34-1.51c.36-.37-.19-.75.2-1.09,1.1,1.18,2.49,2.12,3.11,3.72Z"/><path class="cls-5" d="M144.08,100.82a4.11,4.11,0,0,0,3.63.36c2.14-.92,4.35-1.69,6.53-2.52a.38.38,0,0,1,.47.07c.08.29-.15.34-.34.41-2.52.91-5.05,1.79-7.54,2.75A1.86,1.86,0,0,1,144.08,100.82Z"/><path class="cls-5" d="M156.91,89.21l-2.2,3.91-.32-.15c0-.87.75-1.47,1.09-2.22.15-.32.63-.61.3-1s-.8,0-1.05.12c-.89.64-1.62-.46-2.22-.16a5.33,5.33,0,0,0,2.26-.82C155.6,88.42,156.06,89.27,156.91,89.21Z"/><path class="cls-5" d="M148.83,94.32c-3.18.48-5.9,3-9.74,2,1.73-.78,3.36.09,4.85-.73a33.06,33.06,0,0,1,4.77-1.75Z"/><path class="cls-5" d="M138.66,93.5c3.35-.23,6.46-.83,8.27-4.26a1.6,1.6,0,0,1-.65,2C144.1,93.17,141.42,93.53,138.66,93.5Z"/><path class="cls-5" d="M157,103.23a1,1,0,0,1-.48.73,9.06,9.06,0,0,1-7.69,1.55,1.71,1.71,0,0,1-1.11-.75l0,0c3.43,1.62,6.34.33,9.15-1.59Z"/><path class="cls-5" d="M138.55,80.14c-3.25-.44-7.9,1.41-8.69,4.58-.25-1.37-.18-1.84,1.37-2.87,2.22-1.48,4.65-2.46,7.43-1.76A.1.1,0,0,1,138.55,80.14Z"/><path class="cls-5" d="M131,84.41c.93,3.06,2.92,2,4.87,1.35-1.1.66-2.18,1.42-3.44,1A2,2,0,0,1,131,84.41Z"/><path class="cls-5" d="M74.85,116.51a6.86,6.86,0,0,0-5.8,1.89c-.11-.84.43-1,.83-1.18C72.44,115.92,73.25,115.79,74.85,116.51Z"/><path class="cls-5" d="M158.22,103.47c.36-1.65-.65-2.72-1.61-3.82a4.13,4.13,0,0,1-1.43-2.19,23.16,23.16,0,0,1,3,3.41,2,2,0,0,1,0,2.59Z"/><path class="cls-5" d="M70.94,112c-2.74.24-4.06.82-5,2.21,0-.33-.35-.58-.1-.94C66.43,112.4,69.91,111.53,70.94,112Z"/><path class="cls-5" d="M78.47,111.11c1.57-1.13,2.19-.7,3.12,2C80.51,112.29,80.15,110.91,78.47,111.11Z"/><path class="cls-5" d="M84.1,118.87c-.83.66-1.55.79-2,1.41l1,.62c.11.07.4.06.25.3a1.24,1.24,0,0,1-.46.42c-.18.09-.3-.06-.33-.25a2.5,2.5,0,0,0-.09-.49c-.22-.38-1.18-.25-.78-1a1.68,1.68,0,0,1,1.8-.77A2.9,2.9,0,0,0,84.1,118.87Z"/><path class="cls-5" d="M152.87,94.68c-.71-.05-.89-.48-1.18-.76s-.38-.37-1.56-.79c-.14,0-.21-.35-.29-.55s.15-.55.36-.73a.32.32,0,0,1,.52.13C151.22,93,152.2,93.59,152.87,94.68Z"/><path class="cls-5" d="M136.38,106.36c-.17,1.39-1.2,1.23-2,1.11s-1.86-.42-1.71-2C133.62,107.54,134.79,108.08,136.38,106.36Z"/><path class="cls-4" d="M138.55,80.14a.1.1,0,0,0,.11,0c.2,0,.32.26.64,0s.47-.2.75.35a.74.74,0,0,0,.82.4l.23.5c-.71-.24-1.43-.46-2.13-.73C138.78,80.58,138.27,80.64,138.55,80.14Z"/><path class="cls-5" d="M148.07,90.34c-.06-1.45-1.06-2.24-2.28-3.12C147.73,87.65,148.3,88.5,148.07,90.34Z"/><path class="cls-5" d="M82.16,113.51c.57.06.6.79,1,1.09.17.11-.08.42-.31.37a1.53,1.53,0,0,1-1.25-.92A.49.49,0,0,1,82.16,113.51Z"/><path class="cls-5" d="M141.61,81.32A2.26,2.26,0,0,1,143,84l-1.57-2.53Z"/><path class="cls-5" d="M128.6,102.52c-1.77.64-3,.13-2.76-1.52C126.18,103.06,127.52,102.48,128.6,102.52Z"/><path class="cls-5" d="M79.37,126.34c-1.47-.92-2.81.08-4.2.3,1.39-.6,2.76-1.32,4.3-.41Z"/><path class="cls-5" d="M135,104.06a2.57,2.57,0,0,1,2.39,2.53C136.67,105.63,136.2,104.51,135,104.06Z"/><path class="cls-5" d="M127,100.5c-.34-1.39.48-1.79,1.73-2.13C128.28,99.35,127.21,99.54,127,100.5Z"/><path class="cls-5" d="M136.81,88.71a4,4,0,0,1,3-1.3L137,88.89Z"/><path class="cls-5" d="M157.19,91.92l2.27-1c-.36,1.34-1.42.89-2.27,1Z"/><path class="cls-5" d="M79.55,123.24a3.29,3.29,0,0,0-1.48-2.41C79.18,121.09,79.9,121.63,79.55,123.24Z"/><path class="cls-5" d="M136.45,89.4a4.45,4.45,0,0,0-.95,2.29c-.2-1-.41-1.94.77-2.45Z"/><path class="cls-5" d="M121.1,90.44c-.21.62-.88,1-.52,2C119.8,91.27,119.93,90.94,121.1,90.44Z"/><path class="cls-5" d="M72.21,112.2c1.16.06,1.27.86,1.26,2-.55-.72-.68-1.5-1.26-2Z"/><path class="cls-5" d="M128.19,95c.8.32,1.28.82.94,1.76.06-.79-.86-1-1-1.74Z"/><path class="cls-5" d="M147.68,104.76a1.69,1.69,0,0,1-1.23-1.33,2.16,2.16,0,0,1,1.25,1.31Z"/><path class="cls-5" d="M79.39,128.63a4.76,4.76,0,0,1-2.36.68c.85,0,1.54-.61,2.37-.68Z"/><path class="cls-5" d="M79.47,126.23c.68.21.8.78.72,1.5-.27-.46-.55-.92-.82-1.39Z"/><path class="cls-5" d="M72.05,124.56c-.5-.57-.42-1.16-.15-2.15C72.2,123.37,71.68,124,72.05,124.56Z"/><path class="cls-5" d="M125.56,91.7a1.37,1.37,0,0,1-1-1.32h0a2.24,2.24,0,0,1,1,1.28Z"/><path class="cls-5" d="M136.37,84.75c-.31-.15-.63.37-.91,0a.29.29,0,0,1,.16-.42c.38-.16.76-.26.83.35Z"/><path class="cls-5" d="M156.85,103.15l.17-1.54a1.06,1.06,0,0,1-.06,1.62Z"/><path class="cls-5" d="M84.87,121.07c-.26-.2-.68-.26-.48-.65.07-.13.37-.15.56-.21Z"/><path class="cls-5" d="M131.71,105.22c.25-.61.81-.76,1.46-.83l-1.27,1Z"/><path class="cls-5" d="M153.6,86.79c.4-.5,1-.48,1.58-.62a3.22,3.22,0,0,1-1.59.6Z"/><path class="cls-5" d="M152,87.28c-.32.5-.78.51-1.45.37l1.47-.35Z"/><path class="cls-5" d="M153.59,86.77a2,2,0,0,1-1.55.51l0,0a2,2,0,0,1,1.54-.51Z"/><path class="cls-5" d="M153.59,83.19c.51,0,.71.37.82.86l-.81-.87Z"/><path class="cls-5" d="M128.16,104.59c-.37.23-.66.44-.82.22s0-.38.3-.33Z"/><path class="cls-5" d="M131.74,99.13l-.81-.42a1.28,1.28,0,0,1,.3-.17c.52-.16.33.4.56.55Z"/><path class="cls-5" d="M132.23,99.93a.72.72,0,0,1-.49-.8l0,0a1,1,0,0,1,.53.75Z"/><path class="cls-5" d="M132.58,100.08a.64.64,0,0,1,.16.8c-.29-.15-.19-.45-.27-.68Z"/><path class="cls-5" d="M137.32,85.8l-.19.11-.11-.28c.07,0,.16-.07.21,0S137.29,85.73,137.32,85.8Z"/><path class="cls-5" d="M136.45,84.67c.19.08.39.15.36.42,0,0-.05.09-.08.09-.29,0-.29-.25-.36-.43Z"/><path class="cls-5" d="M79.4,128.63v-1c.36.43.28.7,0,1Z"/><path class="cls-5" d="M141.1,81.39l-.23-.5a.58.58,0,0,1,.74.43l-.16.15Z"/><path class="cls-5" d="M131.9,105.37l-.25.87a.77.77,0,0,1,.06-1Z"/><path class="cls-5" d="M124.58,90.38l-.64-.09a.42.42,0,0,1,.64.08Z"/><path class="cls-5" d="M137,88.89a.83.83,0,0,1-.51.51l-.18-.16a.73.73,0,0,1,.54-.53Z"/><path class="cls-5" d="M72.21,112.19l-.62-.07c.29-.21.48-.18.62.08Z"/><path class="cls-5" d="M128.17,95l-.33-.36c.06,0,.13-.09.17-.07.2.07.21.24.18.41Z"/><path class="cls-5" d="M157.19,91.91c-.12.25-.32.18-.53.09l.53-.08Z"/><path class="cls-5" d="M125.62,91.65a.4.4,0,0,1,.21.51s-.06,0-.09.08l-.18-.54Z"/><path class="cls-5" d="M72.74,122c.12,0,.14.12,0,.2l-.2.14c0-.08-.07-.17,0-.22S72.68,122.05,72.74,122Z"/><path class="cls-5" d="M163.86,94.48l.09,0-.08-.06Z"/><path class="cls-5" d="M158.21,103.46l0,.07.05-.06Z"/><path class="cls-5" d="M153.6,83.18l-.08-.05.07.06Z"/><path class="cls-5" d="M132.47,100.2l-.24-.27.09-.09.26.24Z"/><path class="cls-3" d="M64.25,146.51c1.09-.38,2.35.17,3.29-.27a37.71,37.71,0,0,0,4.24-1.8,2.32,2.32,0,0,1,.8-.37c3.93-.79,7.53-2.54,11.25-3.93,1.91-.71,3.87-1.3,5.75-2.09a22.29,22.29,0,0,0,4-1.58,1.29,1.29,0,0,1,1.34,0,47.91,47.91,0,0,1-7.16,3.22c-4.88,1.83-9.74,3.68-14.63,5.47a39.55,39.55,0,0,1-8.18,2C64.37,147.24,64.26,147,64.25,146.51Z"/><path class="cls-3" d="M97.23,135.53a3,3,0,0,1,2.25-1C99.05,135.53,98.16,135.57,97.23,135.53Z"/><path class="cls-3" d="M64.07,144.67a1.46,1.46,0,0,1,0,1.21A1.11,1.11,0,0,1,64.07,144.67Z"/><path class="cls-3" d="M95.76,136.09a.69.69,0,0,1,.89-.35C96.47,136.14,96.13,136.17,95.76,136.09Z"/><path class="cls-3" d="M95.21,136.33a.32.32,0,0,1,.46-.19A.35.35,0,0,1,95.21,136.33Z"/><path class="cls-3" d="M126.89,122.21c.85-.94,2.07-.91,3.17-1.22a9,9,0,0,1-3.16,1.22Z"/><path class="cls-3" d="M124.07,123.24a4.45,4.45,0,0,1-2.63,1,4.17,4.17,0,0,1,2.63-1Z"/><path class="cls-3" d="M99.94,132.23a2.32,2.32,0,0,1,2-.78h0a2.39,2.39,0,0,1-2.06.77Z"/><path class="cls-3" d="M96.6,133.5c.33-.76,1.05-.63,1.69-.69a2.19,2.19,0,0,1-1.69.7Z"/><path class="cls-3" d="M96.6,133.51c-.35.43-.8.54-1.6.48a1.77,1.77,0,0,1,1.6-.49Z"/><path class="cls-3" d="M94.3,134.28a1.12,1.12,0,0,1-1.15.41,1.1,1.1,0,0,1,1.14-.42Z"/><path class="cls-3" d="M112.38,127.55c.06-.09.1-.19.13-.19a1.43,1.43,0,0,1,.35.06s-.07.15-.1.15A1.7,1.7,0,0,1,112.38,127.55Z"/><path class="cls-3" d="M103.53,130.93a.4.4,0,0,1-.59.2s-.06-.09,0-.09a.55.55,0,0,1,.65-.1Z"/><path class="cls-3" d="M99.42,132.48a.41.41,0,0,1-.6.19s-.07-.09-.06-.1a.58.58,0,0,1,.67-.09Z"/><path class="cls-3" d="M126.12,122.46c.16-.37.46-.32.77-.25h0c-.17.37-.47.31-.77.26Z"/><path class="cls-3" d="M111.76,127.62l.12.12-.2.08s-.05,0-.08-.08Z"/><path class="cls-3" d="M110.48,128.13l.12.13a1.46,1.46,0,0,1-.19.07s0-.05-.08-.08Z"/><path class="cls-3" d="M102,131.45a.25.25,0,0,1,.34-.22s0,.06.07.1l-.41.12Z"/><path class="cls-3" d="M99.43,132.48c0-.34.29-.28.51-.25h0c-.07.27-.28.28-.51.26Z"/><path class="cls-3" d="M124.07,123.23a.24.24,0,0,1,.34-.19s0,.06.07.09l-.41.11Z"/><path class="cls-3" d="M126.13,122.47a.25.25,0,0,1-.34.23s-.07-.1-.11-.16l.44-.08Z"/><path class="cls-3" d="M94.29,134.27c0-.19.16-.24.33-.19s0,0,.07.08l-.39.12Z"/><path class="cls-3" d="M125.05,123l-.11-.15a.64.64,0,0,1,.2-.08s.07.09.11.14Z"/><path class="cls-3" d="M103.54,130.94c0-.22.11-.27.29-.24a.24.24,0,0,1,.09.08c-.08.18-.24.16-.39.15Z"/><path class="cls-3" d="M92.49,135.05l.07-.19.12.08-.19.1Z"/></svg>