<svg id="Ebene_1" data-name="Ebene 1" xmlns="http://www.w3.org/2000/svg" viewBox="0 0 255.12 255.12"><defs><style>.cls-1{fill:#9c2618;}.cls-2{fill:#e33229;}.cls-3{fill:#1a3066;}.cls-4{fill:#274b9b;}.cls-5{fill:#709b2c;}.cls-6{fill:#84b427;}.cls-7{fill:#d77e2b;}.cls-8{fill:#ee8702;}.cls-9{fill:#e3a82d;}.cls-10{fill:#fad32c;}</style></defs><title>Schokolinsen</title><ellipse class="cls-1" cx="84.48" cy="74.11" rx="42.68" ry="25.09" transform="translate(-14.6 21.07) rotate(-13.1)"/><ellipse class="cls-2" cx="81.66" cy="71.65" rx="42.68" ry="25.09" transform="translate(-14.11 20.37) rotate(-13.1)"/><ellipse class="cls-3" cx="173.11" cy="76.24" rx="25.09" ry="42.68" transform="translate(69.69 234.62) rotate(-80.62)"/><ellipse class="cls-4" cx="171.45" cy="72.88" rx="25.09" ry="42.68" transform="translate(71.61 230.17) rotate(-80.62)"/><ellipse class="cls-5" cx="156.89" cy="183.95" rx="42.68" ry="25.09" transform="translate(-29.76 30.29) rotate(-10.08)"/><ellipse class="cls-6" cx="154.2" cy="181.33" rx="42.68" ry="25.09" transform="translate(-29.35 29.78) rotate(-10.08)"/><ellipse class="cls-7" cx="100.22" cy="155.47" rx="25.09" ry="42.68" transform="translate(-70.8 225.96) rotate(-79.59)"/><ellipse class="cls-8" cx="98.62" cy="152.08" rx="25.09" ry="42.68" transform="translate(-68.78 221.6) rotate(-79.59)"/><ellipse class="cls-9" cx="138.92" cy="116.93" rx="42.68" ry="25.09"/><ellipse class="cls-10" cx="136.73" cy="113.89" rx="42.68" ry="25.09"/></svg>